<svg width="40" height="50" viewBox="0 0 55 55" fill="#381568" xmlns="http://www.w3.org/2000/svg"><path fill-rule="evenodd" clip-rule="evenodd" d="M10.3125 20.625C9.67968 20.625 9.16667 21.138 9.16667 21.7709V48.125H6.875V21.7709C6.875 19.8723 8.41403 18.3334 10.3125 18.3334H24.0625C25.961 18.3334 27.5 19.8723 27.5 21.7709V48.125H25.2083V21.7709C25.2083 21.138 24.6953 20.625 24.0625 20.625H10.3125Z" fill="#381568"></path><path fill-rule="evenodd" clip-rule="evenodd" d="M44.6875 22.9167H36.6667V20.625H44.6875C46.5861 20.625 48.125 22.164 48.125 24.0625V48.125H45.8334V24.0625C45.8334 23.4297 45.3204 22.9167 44.6875 22.9167Z" fill="#381568"></path><path fill-rule="evenodd" clip-rule="evenodd" d="M20.625 6.87504C19.9922 6.87504 19.4792 7.38805 19.4792 8.02087V19.4792H17.1875V8.02087C17.1875 6.1224 18.7265 4.58337 20.625 4.58337H34.375C36.2735 4.58337 37.8125 6.1224 37.8125 8.02087V48.125H35.5208V8.02087C35.5208 7.38805 35.0078 6.87504 34.375 6.87504H20.625Z" fill="#381568"></path><path fill-rule="evenodd" clip-rule="evenodd" d="M50.4166 50.4167H4.58331V48.125H50.4166V50.4167Z" fill="#381568"></path><path fill-rule="evenodd" clip-rule="evenodd" d="M22.9166 9.16663C22.2838 9.16663 21.7708 9.67964 21.7708 10.3125V12.6041C21.7708 13.237 22.2838 13.75 22.9166 13.75H25.2083C25.8412 13.75 26.3541 13.237 26.3541 12.6041V10.3125C26.3541 9.67964 25.8412 9.16663 25.2083 9.16663H22.9166Z" fill="#381568"></path><path fill-rule="evenodd" clip-rule="evenodd" d="M12.6041 22.9166C11.9713 22.9166 11.4583 23.4296 11.4583 24.0625V26.3541C11.4583 26.987 11.9713 27.5 12.6041 27.5H14.8958C15.5287 27.5 16.0416 26.987 16.0416 26.3541V24.0625C16.0416 23.4296 15.5287 22.9166 14.8958 22.9166H12.6041Z" fill="#381568"></path><path fill-rule="evenodd" clip-rule="evenodd" d="M19.4791 22.9166C18.8463 22.9166 18.3333 23.4296 18.3333 24.0625V26.3541C18.3333 26.987 18.8463 27.5 19.4791 27.5H21.7708C22.4037 27.5 22.9166 26.987 22.9166 26.3541V24.0625C22.9166 23.4296 22.4037 22.9166 21.7708 22.9166H19.4791Z" fill="#381568"></path><path fill-rule="evenodd" clip-rule="evenodd" d="M22.9166 16.0416C22.2838 16.0416 21.7708 16.5546 21.7708 17.1875V19.4791C21.7708 20.112 22.2838 20.625 22.9166 20.625H25.2083C25.8412 20.625 26.3541 20.112 26.3541 19.4791V17.1875C26.3541 16.5546 25.8412 16.0416 25.2083 16.0416H22.9166Z" fill="#381568"></path><path fill-rule="evenodd" clip-rule="evenodd" d="M12.6041 29.7916C11.9713 29.7916 11.4583 30.3046 11.4583 30.9375V33.2291C11.4583 33.862 11.9713 34.375 12.6041 34.375H14.8958C15.5287 34.375 16.0416 33.862 16.0416 33.2291V30.9375C16.0416 30.3046 15.5287 29.7916 14.8958 29.7916H12.6041Z" fill="#381568"></path><path fill-rule="evenodd" clip-rule="evenodd" d="M12.6041 36.6666C11.9713 36.6666 11.4583 37.1796 11.4583 37.8125V40.1041C11.4583 40.737 11.9713 41.25 12.6041 41.25H14.8958C15.5287 41.25 16.0416 40.737 16.0416 40.1041V37.8125C16.0416 37.1796 15.5287 36.6666 14.8958 36.6666H12.6041Z" fill="#381568"></path><path fill-rule="evenodd" clip-rule="evenodd" d="M19.4791 29.7916C18.8463 29.7916 18.3333 30.3046 18.3333 30.9375V33.2291C18.3333 33.862 18.8463 34.375 19.4791 34.375H21.7708C22.4037 34.375 22.9166 33.862 22.9166 33.2291V30.9375C22.9166 30.3046 22.4037 29.7916 21.7708 29.7916H19.4791Z" fill="#381568"></path><path fill-rule="evenodd" clip-rule="evenodd" d="M19.4791 36.6666C18.8463 36.6666 18.3333 37.1796 18.3333 37.8125V40.1041C18.3333 40.737 18.8463 41.25 19.4791 41.25H21.7708C22.4037 41.25 22.9166 40.737 22.9166 40.1041V37.8125C22.9166 37.1796 22.4037 36.6666 21.7708 36.6666H19.4791Z" fill="#381568"></path><path fill-rule="evenodd" clip-rule="evenodd" d="M29.7916 9.16663C29.1588 9.16663 28.6458 9.67964 28.6458 10.3125V12.6041C28.6458 13.237 29.1588 13.75 29.7916 13.75H32.0833C32.7162 13.75 33.2291 13.237 33.2291 12.6041V10.3125C33.2291 9.67964 32.7162 9.16663 32.0833 9.16663H29.7916Z" fill="#381568"></path><path fill-rule="evenodd" clip-rule="evenodd" d="M29.7916 16.0416C29.1588 16.0416 28.6458 16.5546 28.6458 17.1875V19.4791C28.6458 20.112 29.1588 20.625 29.7916 20.625H32.0833C32.7162 20.625 33.2291 20.112 33.2291 19.4791V17.1875C33.2291 16.5546 32.7162 16.0416 32.0833 16.0416H29.7916Z" fill="#381568"></path><path fill-rule="evenodd" clip-rule="evenodd" d="M29.7916 22.9166C29.1588 22.9166 28.6458 23.4296 28.6458 24.0625V26.3541C28.6458 26.987 29.1588 27.5 29.7916 27.5H32.0833C32.7162 27.5 33.2291 26.987 33.2291 26.3541V24.0625C33.2291 23.4296 32.7162 22.9166 32.0833 22.9166H29.7916Z" fill="#381568"></path><path fill-rule="evenodd" clip-rule="evenodd" d="M29.7916 29.7916C29.1588 29.7916 28.6458 30.3046 28.6458 30.9375V33.2291C28.6458 33.862 29.1588 34.375 29.7916 34.375H32.0833C32.7162 34.375 33.2291 33.862 33.2291 33.2291V30.9375C33.2291 30.3046 32.7162 29.7916 32.0833 29.7916H29.7916Z" fill="#381568"></path><path fill-rule="evenodd" clip-rule="evenodd" d="M40.1041 25.2084C39.4713 25.2084 38.9583 25.7214 38.9583 26.3542V28.6459C38.9583 29.2787 39.4713 29.7917 40.1041 29.7917H42.3958C43.0287 29.7917 43.5416 29.2787 43.5416 28.6459V26.3542C43.5416 25.7214 43.0287 25.2084 42.3958 25.2084H40.1041Z" fill="#381568"></path><path fill-rule="evenodd" clip-rule="evenodd" d="M40.1041 32.0834C39.4713 32.0834 38.9583 32.5964 38.9583 33.2292V35.5209C38.9583 36.1537 39.4713 36.6667 40.1041 36.6667H42.3958C43.0287 36.6667 43.5416 36.1537 43.5416 35.5209V33.2292C43.5416 32.5964 43.0287 32.0834 42.3958 32.0834H40.1041Z" fill="#381568"></path><path fill-rule="evenodd" clip-rule="evenodd" d="M40.1041 38.9584C39.4713 38.9584 38.9583 39.4714 38.9583 40.1042V42.3959C38.9583 43.0287 39.4713 43.5417 40.1041 43.5417H42.3958C43.0287 43.5417 43.5416 43.0287 43.5416 42.3959V40.1042C43.5416 39.4714 43.0287 38.9584 42.3958 38.9584H40.1041Z" fill="#381568"></path><path fill-rule="evenodd" clip-rule="evenodd" d="M29.7916 36.6666C29.1588 36.6666 28.6458 37.1796 28.6458 37.8125V40.1041C28.6458 40.737 29.1588 41.25 29.7916 41.25H32.0833C32.7162 41.25 33.2291 40.737 33.2291 40.1041V37.8125C33.2291 37.1796 32.7162 36.6666 32.0833 36.6666H29.7916Z" fill="#381568"></path></svg>