<svg width="180" height="41" viewBox="0 0 180 41" fill="none" xmlns="http://www.w3.org/2000/svg">
<path d="M6.1287 40.0044C4.64249 39.5149 3.63126 38.8673 2.52809 37.7144C0.766088 35.8824 0 33.9872 0 31.4602C0 28.9649 0.796731 27.0065 2.52809 25.2219C5.2094 22.458 9.03984 21.8263 12.5638 23.5951C13.8662 24.2427 15.5669 25.9641 16.2257 27.3066L16.7007 28.3016L14.6016 29.3913C13.4372 30.0072 12.5638 30.4968 12.6405 30.4968C12.7324 30.4968 13.7436 30.2599 14.8927 29.9757C17.2676 29.3913 17.0684 29.3123 17.237 30.8285C17.4208 32.4552 16.8846 34.6663 15.9193 36.1982C14.7702 38.0461 13.1154 39.3411 11.1236 39.9729C9.75996 40.3993 7.36977 40.4151 6.1287 40.0044ZM9.11645 36.7984C10.6486 36.3878 11.6445 35.8824 12.1655 35.2506C12.6558 34.6347 12.7783 34.1925 12.6864 33.1817C12.5945 32.2341 12.2268 31.6656 11.3534 31.1602C10.8631 30.8917 10.7252 30.7337 10.8172 30.5284C11.0623 29.9125 11.0623 28.7438 10.8018 28.0647C10.2349 26.5327 9.17773 26.0273 7.30848 26.4064C6.35853 26.5959 4.48928 27.275 4.22881 27.5277C4.12155 27.6225 4.68846 29.3755 4.97957 29.8335C4.99489 29.8651 5.50051 29.7388 6.09806 29.565C7.4617 29.1702 7.92135 29.1702 8.10521 29.5492C8.33504 29.9915 8.01328 30.2915 7.01737 30.5916C6.52707 30.7337 6.1287 30.9233 6.1287 31.0338C6.1287 31.176 6.60368 33.0554 6.66497 33.1501C6.66497 33.1659 7.04801 33.087 7.50766 32.9606C8.62615 32.6447 8.99387 32.6605 9.17773 33.0238C9.4382 33.5134 9.05516 33.8134 7.6762 34.2241C6.9714 34.4452 6.37385 34.6347 6.34321 34.6505C6.31256 34.6979 6.54239 36.372 6.66497 36.9405C6.7569 37.3512 7.1093 37.3196 9.11645 36.7984Z" fill="#FBFBFB"/>
<path d="M21.2511 37.8409C19.9028 37.5882 17.1602 36.7038 17.1602 36.5143C17.1602 36.4511 17.3287 36.0089 17.5432 35.5193C18.6004 33.1345 18.6311 30.0074 17.6045 27.5436L17.3134 26.8487L18.6004 26.8961L19.8875 26.9593L19.9794 26.3275C20.4237 23.1373 21.435 10.392 21.2511 10.2025C21.0059 9.94982 18.0948 9.7761 16.5473 9.91823L14.9385 10.0604L14.8313 10.6921C14.7853 11.0396 14.6934 11.9398 14.6321 12.7137L14.5095 14.0877H15.0151C15.4595 14.0877 15.4901 14.1193 15.4135 14.5299C15.3675 14.7668 15.2296 16.2672 15.0917 17.8781C14.9692 19.489 14.8006 21.4158 14.7393 22.1581L14.6321 23.5321L13.6515 22.9162C11.9048 21.8264 10.9702 21.5895 8.39614 21.5895H6.15916L6.05191 20.1681C5.8374 17.1358 6.58817 13.4402 8.01309 10.5342C9.68317 7.10702 12.9007 3.8062 16.3175 2.03734C18.2174 1.05816 20.8987 0.315867 23.3042 0.0947602L24.484 0L24.5759 1.94258C24.6219 3.01653 24.7138 5.11705 24.7598 6.58583C24.8211 8.07041 24.8824 9.20753 24.913 9.11277C24.9436 9.03381 25.3727 6.99646 25.8936 4.61166C26.4145 2.22686 26.8435 0.252694 26.8742 0.221107C26.9048 0.205314 27.4717 0.300074 28.1306 0.426421C33.3553 1.53196 37.7526 4.70642 40.4493 9.33388C41.2154 10.6763 42.0734 12.6347 42.2266 13.4559C42.3185 13.914 42.3032 13.9298 41.7669 13.9298C40.7557 13.9298 39.1776 14.4193 37.5688 15.2248C34.7342 16.6462 32.4207 19.3469 31.4094 22.3792C31.2715 22.8056 31.0877 23.1689 31.0111 23.1689C30.9345 23.1531 30.1684 23.1057 29.3103 23.0267C27.9314 22.9162 27.7322 22.8688 27.7322 22.6003C27.7322 22.0791 28.4064 21.5422 29.9385 20.863C31.7312 20.0734 32.4973 19.5048 33.1867 18.4624C33.8149 17.5148 34.0448 16.7094 34.0448 15.3512C34.0601 13.9613 33.7996 13.0769 33.1561 12.3504C32.4819 11.5765 31.6699 11.1817 30.1071 10.8343C28.7894 10.55 25.5412 10.4552 24.3308 10.6605L23.626 10.7869L23.7026 12.9506C23.7332 14.1351 23.7945 15.1932 23.8252 15.3038C23.8711 15.4301 24.1163 15.3985 24.6985 15.1616C25.725 14.751 28.0846 14.6089 28.6362 14.9089C29.7547 15.5249 29.387 16.0303 27.15 16.9147C24.3461 18.0044 23.105 19.1574 22.5228 21.1631C22.2164 22.2529 21.8333 26.8645 22.0325 27.0698C22.1551 27.1962 27.0734 27.7805 29.2337 27.9227L30.7506 28.0332L31.0877 29.3915C31.486 31.0971 32.3594 32.9766 33.3706 34.3032C33.7996 34.856 34.1214 35.3614 34.0754 35.4245C33.9528 35.6456 31.4401 36.8143 30.2909 37.2092C29.6321 37.4303 28.4983 37.7146 27.7628 37.8567C26.1081 38.1568 22.8752 38.141 21.2511 37.8409Z" fill="#FBFBFB"/>
<path d="M41.5066 37.92C39.0857 37.5883 36.7415 36.3091 34.9489 34.3665C33.6465 32.9609 32.8651 31.5869 32.2982 29.7232C32.0071 28.7283 31.9458 28.2071 31.9458 26.4066C31.9611 24.4325 31.9918 24.1798 32.4361 22.8847C34.1062 18.0361 38.1818 15.0354 43.0847 15.0354C45.0153 15.0354 46.3483 15.3671 48.0949 16.2357C49.336 16.8674 49.765 17.1833 50.9448 18.4152C53.1511 20.6894 54.0551 22.8057 54.193 25.9486C54.3003 28.1439 54.0398 29.5653 53.2431 31.2868C52.2165 33.4821 51.0367 34.8877 49.1215 36.1827C48.1256 36.846 46.0418 37.7621 45.9039 37.6041C45.8733 37.5725 45.6588 36.9882 45.429 36.3091C45.1991 35.6457 44.9846 35.1088 44.954 35.1246C44.9387 35.1562 44.9846 35.7405 45.0612 36.4196C45.1532 37.1145 45.1532 37.7147 45.0919 37.7936C44.8774 37.9832 42.5791 38.0779 41.5066 37.92ZM45.6894 33.9874C48.1256 33.2136 49.2288 31.3657 48.861 28.7125C48.7844 28.1281 48.5699 27.2911 48.4014 26.8646C48.0183 25.9486 47.0224 24.9536 46.1797 24.6536C45.3217 24.3377 43.6057 24.4167 42.5331 24.8115L41.6445 25.1432L41.7364 24.6378C41.7824 24.3535 41.8896 24.0692 41.9509 24.006C42.0275 23.9271 43.0541 23.6428 44.2645 23.3585C45.4596 23.09 46.4402 22.8215 46.4555 22.7742C46.4555 22.7268 46.4095 21.8581 46.3483 20.8474L46.241 18.9837H45.7507C44.7854 18.9995 42.0275 19.4418 41.0316 19.7576C39.1317 20.3736 37.7834 21.6528 37.3084 23.2795C36.8028 25.0484 37.1705 28.3018 38.1664 30.7498C38.7946 32.3449 40.097 33.7821 41.2921 34.1928C42.288 34.5402 44.2645 34.4455 45.6894 33.9874Z" fill="#FBFBFB"/>
<path d="M43.2532 30.1654C43.0694 30.0707 42.8395 29.8022 42.7476 29.5653C42.2726 28.365 43.5137 27.4174 44.2645 28.3966C45.0306 29.4074 44.2951 30.6866 43.2532 30.1654Z" fill="#FBFBFB"/>
<path d="M163.713 37.0039L163.253 36.9091L163.207 34.5401L163.177 32.1553L164.249 32.2185C164.831 32.2501 165.567 32.2343 165.858 32.1869C166.547 32.0448 167.39 31.1603 167.896 30.0548L168.279 29.202L167.543 27.212C167.145 26.1223 166.547 24.4797 166.21 23.5637C165.873 22.6477 165.322 21.1631 164.985 20.2471C164.648 19.3311 164.203 18.1624 164.019 17.6412C162.579 13.8192 161.798 11.6555 161.798 11.545C161.798 11.466 163.131 11.4028 164.755 11.4028H167.697L169.122 16.5831C169.903 19.4259 170.623 22.2055 170.715 22.7741L170.899 23.8006L171.037 23.0899C171.175 22.4424 172.186 18.6204 172.538 17.4833C172.615 17.2306 172.998 15.8724 173.381 14.4825C173.764 13.0927 174.116 11.8293 174.147 11.6871C174.224 11.4344 174.499 11.4028 177.119 11.4028H180L179.387 13.1717C179.05 14.1509 178.437 15.9513 178.008 17.1674C177.594 18.3835 177.181 19.5522 177.119 19.7733C177.043 19.9944 176.782 20.7683 176.537 21.5106C176.277 22.2529 175.725 23.848 175.312 25.0641C174.883 26.2802 174.224 28.1912 173.841 29.3283C172.048 34.5085 170.455 36.4037 167.405 36.9723C166.425 37.1618 164.479 37.1776 163.713 37.0039Z" fill="#FBFBFB"/>
<path d="M83.6567 29.5652C80.148 29.123 77.7578 26.9435 76.8998 23.4058C76.5933 22.1265 76.6393 18.3993 76.9764 17.1042C77.7425 14.214 79.2287 12.5084 81.7568 11.6239C82.814 11.2449 83.2123 11.1975 84.8058 11.1975C86.3993 11.1975 86.813 11.2607 87.8548 11.6239C89.862 12.3188 90.9958 13.3296 91.7925 15.1143C92.3901 16.3935 92.5739 17.5622 92.6046 19.9312L92.6199 21.9054L87.579 21.9528C84.147 21.9686 82.4922 22.0476 82.4156 22.1581C82.3696 22.2529 82.385 22.6161 82.4769 22.9794C82.6761 23.8164 83.672 24.843 84.5147 25.1115C85.9856 25.5537 88.8201 25.222 90.7507 24.3692L91.4708 24.0533V26.2328V28.4281L90.72 28.7597C89.0959 29.4704 85.863 29.8495 83.6567 29.5652ZM87.4871 18.0202C87.4871 17.9413 87.4105 17.5464 87.3186 17.1832C87.1194 16.3461 86.3993 15.6039 85.5872 15.367C84.101 14.9563 82.8906 15.8566 82.5075 17.6886L82.4003 18.194H84.9437C86.6291 18.194 87.4871 18.1308 87.4871 18.0202Z" fill="#FBFBFB"/>
<path d="M123.57 29.6284C122.513 29.5494 121.118 29.2809 120.168 28.9808L119.356 28.7124V26.296C119.356 24.9693 119.387 23.8796 119.418 23.8796C119.448 23.8796 119.923 24.0533 120.475 24.2744C122.911 25.222 125.761 25.5063 126.649 24.9062C127.553 24.306 126.925 23.5005 124.796 22.5687C121.67 21.1947 120.582 20.3735 119.877 18.8731C119.326 17.736 119.218 16.0935 119.586 14.7984C119.785 14.0719 120.015 13.7087 120.705 12.9822C121.455 12.2241 121.762 12.0346 122.88 11.6555C124.029 11.2449 124.397 11.1975 126.098 11.1975C128.182 11.1975 129.407 11.4344 131.093 12.1451C131.629 12.382 132.073 12.6347 132.073 12.7295C132.073 12.9506 130.832 16.1724 130.679 16.3619C130.602 16.4409 130.235 16.3619 129.79 16.1724C129.377 15.9987 128.427 15.6986 127.691 15.5091C125.7 14.9879 124.55 15.2722 124.78 16.204C124.887 16.6462 125.209 16.8673 126.711 17.5464C130.311 19.189 131.292 19.8997 131.935 21.4C132.41 22.5214 132.441 24.8272 131.997 26.0907C131.445 27.6384 129.913 28.9177 128.09 29.3757C127.308 29.5652 124.704 29.7073 123.57 29.6284Z" fill="#FBFBFB"/>
<path d="M138.984 29.5653C137.804 29.3758 136.532 28.6651 136.042 27.907C135.077 26.3908 135.077 26.296 135.015 20.9263L134.969 15.983H133.974H132.993V14.7353V13.4876L134.234 12.5558L135.49 11.624L136.21 9.7446L136.946 7.8494L138.8 7.80202L140.654 7.75464V9.58667V11.4029H142.722H144.806L144.76 13.6614L144.714 15.904L142.676 15.9514L140.638 15.9988L140.684 20.0261L140.73 24.0692L141.159 24.4482C141.68 24.9062 142.584 24.9536 143.917 24.5904C144.408 24.464 144.837 24.3535 144.867 24.3535C144.913 24.3535 144.944 25.3327 144.944 26.5487V28.7282L144.3 28.9809C142.784 29.5653 140.531 29.8022 138.984 29.5653Z" fill="#FBFBFB"/>
<path d="M149.464 29.5808C147.886 29.2965 146.599 28.2068 145.986 26.5801C145.725 25.8852 145.649 25.3482 145.649 24.0374C145.633 22.458 145.664 22.3159 146.139 21.3209C146.522 20.5154 146.813 20.1364 147.441 19.6784C148.912 18.5886 151.18 18.0359 154.198 18.0359H155.562L155.485 17.2462C155.301 15.272 153.509 14.893 150.307 16.1565C149.678 16.4092 149.081 16.6145 148.989 16.6145C148.728 16.6145 147.242 12.8556 147.457 12.6819C147.748 12.445 149.127 11.8923 150.077 11.6396C150.582 11.5132 151.808 11.3237 152.819 11.2289C156.573 10.8657 159.009 11.7501 160.373 13.977C161.124 15.2089 161.185 15.8564 161.185 22.8844V29.4071H159.27H157.339L156.788 28.2226C156.497 27.5751 156.205 27.0381 156.175 27.0381C156.129 27.0381 155.654 27.4645 155.118 27.9699C154.505 28.57 153.877 29.0123 153.34 29.2176C152.436 29.5492 150.414 29.7545 149.464 29.5808ZM154.367 25.0007C155.194 24.5112 155.516 23.832 155.516 22.4896V21.3051L154.336 21.3841C152.927 21.463 152.069 21.8421 151.67 22.5212C151.18 23.3424 151.333 24.6533 151.977 25.0639C152.62 25.4745 153.57 25.4588 154.367 25.0007Z" fill="#FBFBFB"/>
<path d="M64.6882 20.4524L64.7342 11.4817L66.8333 11.4343L68.9324 11.387L69.3461 12.7768C69.7597 14.1982 69.9896 14.6562 70.1275 14.2772C70.1734 14.1508 70.5411 13.6612 70.9395 13.1558C71.4605 12.5241 71.9507 12.1135 72.7015 11.7186C73.6668 11.2132 73.8506 11.1659 75.0304 11.1817C75.7352 11.1974 76.3481 11.229 76.3787 11.2606C76.3941 11.2922 76.3174 12.6031 76.1949 14.1666L75.9497 17.0094H74.249C72.1653 17.0094 71.5677 17.2621 70.8629 18.4308L70.4033 19.1889L70.3573 24.3059L70.296 29.4072H67.4768H64.6576L64.6882 20.4524Z" fill="#FBFBFB"/>
<path d="M98.672 29.0598C98.3656 28.3017 92.5433 11.6713 92.5433 11.5292C92.5433 11.466 93.8457 11.4186 95.4698 11.4344L98.3962 11.4818L99.8365 16.8989C100.618 19.8681 101.323 22.6793 101.384 23.1373L101.491 23.9586L101.69 23.011C101.966 21.8265 104.602 12.2399 104.801 11.7661C104.939 11.4028 104.985 11.4028 107.804 11.4028H110.654L110.577 11.7661C110.546 11.9556 110.286 12.7137 110.01 13.456C109.75 14.1983 109.474 14.9721 109.397 15.1932C109.321 15.4143 109.045 16.1882 108.784 16.9305C108.524 17.6728 108.248 18.4467 108.172 18.6678C108.095 18.8889 107.819 19.6628 107.559 20.4051C107.298 21.1473 107.007 21.9212 106.946 22.1423C106.823 22.5214 106.701 22.8688 105.72 25.6169C105.46 26.3591 105.061 27.5121 104.831 28.1912L104.433 29.4073H101.629C98.8559 29.4073 98.8099 29.4073 98.672 29.0598Z" fill="#FBFBFB"/>
<path d="M111.389 20.4051V11.4028L114.193 11.4344L116.981 11.4818L117.027 20.4524L117.058 29.4073H114.224H111.389V20.4051Z" fill="#FBFBFB"/>
<path d="M55.2503 28.6648C55.3116 28.3331 55.3729 27.2592 55.3729 26.28L55.3882 24.5111L55.8325 24.1953C57.2421 23.2477 57.1195 20.7523 55.6333 20.01C55.3269 19.8679 54.6987 19.6942 54.239 19.6626C53.4423 19.5836 53.3657 19.5362 52.8601 18.7939C51.7569 17.183 49.2595 15.3036 47.237 14.5613L46.2717 14.1981V10.1866V6.17505L50.761 6.20664C56.7978 6.22243 58.5445 6.50671 60.3371 7.73859C62.2676 9.04944 62.9112 12.2081 61.7314 14.6245C61.3024 15.5247 60.3065 16.5039 59.5404 16.7882C59.2339 16.8987 59.0041 17.0567 59.0348 17.1356C59.0501 17.2146 59.3718 17.4041 59.7242 17.5463C61.9919 18.4465 62.9571 20.4365 62.6354 23.5793C62.4975 24.9692 62.0225 25.9799 60.9806 27.0539C59.7089 28.3805 57.6864 29.2492 55.8938 29.2492H55.1277L55.2503 28.6648ZM54.6834 15.0193C55.7865 14.7824 56.3841 14.0559 56.3841 12.9662C56.3841 11.45 55.6027 10.9289 53.3197 10.9289H51.9408V12.9504C51.9408 14.0717 51.9867 15.0351 52.048 15.0825C52.2013 15.2562 53.8407 15.2089 54.6834 15.0193Z" fill="#FBFBFB"/>
<path d="M113.228 9.5235C111.849 9.23922 111.236 8.41797 111.236 6.9018C111.236 4.99081 112.048 4.2959 114.254 4.2959C115.434 4.2959 115.71 4.34328 116.154 4.65915C116.936 5.19612 117.242 5.92261 117.181 7.09132C117.12 8.22845 116.783 8.8128 115.971 9.22343C115.342 9.5393 113.979 9.68144 113.228 9.5235Z" fill="#FBFBFB"/>
</svg>
