<?xml version="1.0" encoding="UTF-8"?>
<!DOCTYPE svg PUBLIC "-//W3C//DTD SVG 1.1//EN" "http://www.w3.org/Graphics/SVG/1.1/DTD/svg11.dtd">
<!-- Creator: CorelDRAW (Evaluation Version) -->
<svg xmlns="http://www.w3.org/2000/svg" xml:space="preserve" version="1.1" style="shape-rendering:geometricPrecision; text-rendering:geometricPrecision; image-rendering:optimizeQuality; fill-rule:evenodd; clip-rule:evenodd"
viewBox="0 0 21000 29700"
 xmlns:xlink="http://www.w3.org/1999/xlink"
 xmlns:xodm="http://www.corel.com/coreldraw/odm/2003"
 sodipodi:docname="Hexa-lifts-logo.cdr"
 xmlns:inkscape="http://www.inkscape.org/namespaces/inkscape"
 xmlns:sodipodi="http://sodipodi.sourceforge.net/DTD/sodipodi-0.dtd"
 xmlns:svg="http://www.w3.org/2000/svg">
 <defs>
  <style type="text/css">
   <![CDATA[
    .fil2 {fill:#006066}
    .fil3 {fill:#007CB4}
    .fil1 {fill:#19ADDF}
    .fil0 {fill:#2E2E2A}
    .fil4 {fill:#969691}
   ]]>
  </style>
 </defs>
 <g id="Layer_x0020_1">
  <metadata id="CorelCorpID_0Corel-Layer"/>
  <sodipodi:namedview id="namedview158" pagecolor="#ffffff" bordercolor="#000000" borderopacity="0.25" inkscape:showpageshadow="2" inkscape:pageopacity="0.0" inkscape:pagecheckerboard="0" inkscape:deskcolor="#d1d1d1" inkscape:document-units="pt"/>
  <g id="Layer1000">
   <polygon id="path2" class="fil0" points="8441.37,12581.67 8441.37,13149.97 9293.82,13149.97 9293.82,12581.67 9577.97,12581.67 9577.97,14002.41 9293.82,14002.41 9293.82,13434.11 8441.37,13434.11 8441.37,14002.41 8157.22,14002.41 8157.22,12581.67 "/>
   <polygon id="path4" class="fil0" points="11282.85,12581.67 11282.85,12865.82 10146.26,12865.82 10146.26,13149.97 11282.85,13149.97 11282.85,13434.12 10146.26,13434.11 10146.26,13718.26 11282.85,13718.26 11282.85,14002.41 9862.11,14002.41 9862.11,12581.67 "/>
  </g>
  <g id="Layer1001">
   <g id="Layer1002">
    <polygon id="path7" class="fil1" points="11466.96,12588.52 11708.74,12588.66 12078.15,13110.04 12078.15,13482.27 "/>
   </g>
   <g id="Layer1003">
    <polygon id="path10" class="fil2" points="11666.43,12880.21 12078.15,13391.28 12078.15,13482.26 "/>
   </g>
   <g id="Layer1004">
    <polygon id="path13" class="fil3" points="12689.36,12588.52 12447.56,12588.66 12078.15,13110.04 12078.15,13482.27 "/>
   </g>
   <g id="Layer1005">
    <polygon id="path16" class="fil2" points="12489.88,12880.21 12078.15,13391.28 12078.15,13482.26 "/>
   </g>
   <polygon id="path19" class="fil3" points="12011.44,12803.66 12078.15,12803.66 12078.15,12924.24 "/>
   <polygon id="path21" class="fil1" points="12144.87,12802.64 12078.15,12802.64 12078.15,12923.21 "/>
  </g>
  <g id="Layer1006">
   <g id="Layer1007">
    <polygon id="path24" class="fil1" points="12689.36,14002.59 12447.57,14002.45 12078.17,13481.07 12078.17,13108.83 "/>
   </g>
   <g id="Layer1008">
    <polygon id="path27" class="fil2" points="12489.88,13710.9 12078.17,13199.81 12078.17,13108.83 "/>
   </g>
   <g id="Layer1009">
    <polygon id="path30" class="fil3" points="11466.98,14002.59 11708.76,14002.45 12078.17,13481.07 12078.17,13108.83 "/>
   </g>
   <g id="Layer1010">
    <polygon id="path33" class="fil2" points="11666.45,13710.9 12078.17,13199.81 12078.17,13108.83 "/>
   </g>
   <polygon id="path36" class="fil3" points="12144.89,13787.44 12078.17,13787.44 12078.17,13666.86 "/>
   <polygon id="path38" class="fil1" points="12011.46,13788.47 12078.17,13788.47 12078.17,13667.88 "/>
  </g>
  <g id="Layer1011">
   <g id="Layer1012">
    <polygon id="path41" class="fil1" points="13731.71,14022.28 13403.85,14022.28 13403.85,13694.42 13469.42,13694.42 13469.42,13956.71 13731.71,13956.71 "/>
    <path id="path43" class="fil1" d="M13740.45 14031.03l-345.34 0 0 -345.35 83.05 0 0 262.29 262.29 0 0 83.06zm-327.86 -17.49l0 0 310.38 0 0 -48.09 -262.29 0 0 -262.29 -48.09 0 0 310.38z"/>
   </g>
   <g id="Layer1013">
    <polygon id="path46" class="fil1" points="13862.86,13694.42 13862.86,14022.28 13797.29,14022.28 13797.29,13694.42 "/>
    <path id="path48" class="fil1" d="M13871.6 14031.03l-83.06 0 0 -345.35 83.06 0 0 345.35zm-65.57 -17.49l0 0 48.08 0 0 -310.38 -48.08 0 0 310.38z"/>
   </g>
   <g id="Layer1014">
    <polygon id="path51" class="fil1" points="13928.43,13694.42 14256.29,13694.42 14256.29,13759.99 13994,13759.99 13994,13825.56 14256.29,13825.57 14256.29,13891.14 13994,13891.14 13994,14022.29 13928.43,14022.28 "/>
    <path id="path53" class="fil1" d="M14002.74 14031.03l-83.05 0 0 -345.35 345.34 0 0 83.06 -262.29 -0.01 0 48.09 262.29 0 0 83.06 -262.29 0 0 131.15zm-65.57 -17.49l0 0 48.09 0 0 -131.15 262.29 0 0 -48.08 -262.29 0 0 -83.06 262.29 0 0 -48.09 -310.38 0 0 310.38z"/>
   </g>
   <g id="Layer1015">
    <polygon id="path56" class="fil1" points="14321.86,13694.42 14649.73,13694.42 14649.73,13759.99 14518.58,13759.99 14518.58,14022.28 14453.01,14022.28 14453.01,13759.99 14321.86,13759.99 "/>
    <path id="path58" class="fil1" d="M14527.33 14031.03l-83.06 0 0 -262.29 -131.15 -0.01 0 -83.06 345.35 0.01 0 83.06 -131.14 -0.01 0 262.3zm-65.58 -17.49l0 0 48.09 0 0 -262.29 131.14 0 0 -48.09 -310.37 0 0 48.09 131.14 0 0 262.29z"/>
   </g>
   <g id="Layer1016">
    <polygon id="path61" class="fil1" points="15043.16,13759.99 14780.87,13759.99 14780.87,13825.56 15043.16,13825.57 15043.16,14022.29 14715.3,14022.28 14715.3,13956.71 14977.59,13956.71 14977.59,13891.14 14715.3,13891.14 14715.3,13694.42 15043.16,13694.42 "/>
    <path id="path63" class="fil1" d="M15051.91 14031.03l-345.35 0 0 -83.06 262.29 0 0 -48.09 -262.29 0 0 -214.2 345.35 0 0 83.06 -262.29 -0.01 0 48.09 262.29 0 0 214.21zm-327.87 -17.49l0 0 310.38 0 0 -179.23 -262.29 0 0 -83.06 262.29 0 0 -48.09 -310.38 0 0 179.23 262.29 0 0 83.06 -262.29 0 0 48.09z"/>
   </g>
  </g>
  <g id="Layer1017">
   <g id="Layer1018">
    <polygon id="path67" class="fil0" points="13425.67,13575.7 13495.62,13340.7 13692.54,13340.71 13557.58,13011.41 13171.32,14005.93 12847.22,14005.92 13415.52,12585.18 13699.66,12585.18 14091.93,13575.7 "/>
   </g>
  </g>
  <g id="Layer1019">
   <polygon id="path71" class="fil1" points="6209.38,12537.42 6209.38,13832.31 6454.96,13883.12 6454.97,13203.46 6387.99,13203.46 6574.03,12913.23 6789.86,13233.23 6659.61,13233.23 6659.61,13925.45 6964.73,13988.57 6964.73,12351.37 "/>
  </g>
  <g id="Layer1020">
   <polygon id="path74" class="fil3" points="7794.52,13796.94 7794.52,12502.07 7548.94,12451.25 7548.92,13130.9 7615.92,13130.88 7429.85,13421.13 7214.07,13101.11 7344.28,13101.13 7344.27,12408.91 7039.15,12345.78 7039.15,13982.99 "/>
  </g>
  <polygon id="path77" class="fil4" points="6227.98,14017.1 6570.33,13962.54 7009.39,14096.48 7537.75,13962.54 7850.31,14010.9 7020.56,14245.32 "/>
 </g>
</svg>
