<svg height="128" viewBox="0 0 128 128" width="128" xmlns="http://www.w3.org/2000/svg"><path d="m24.651 39.282h78.698v34.744h-78.698z" fill="#d2ddff"/><path d="m35 61.83h58v12.2h-58z" fill="#8299fd"/><path d="m93 66.18v3.5h-51.62a1.75 1.75 0 1 1 0-3.5z" fill="#3536c0"/><path d="m37.666 47.468h-6.791a1.75 1.75 0 0 1 0-3.5h6.791a1.75 1.75 0 0 1 0 3.5z" fill="#8299fd"/><path d="m47.333 47.468h-2.375a1.75 1.75 0 0 1 0-3.5h2.375a1.75 1.75 0 0 1 0 3.5z" fill="#8299fd"/><path d="m64 79.3a1.749 1.749 0 0 0 -1.75 1.75v7.666a1.75 1.75 0 1 0 3.5 0v-7.664a1.75 1.75 0 0 0 -1.75-1.752z" fill="#96ffd1"/><path d="m52.732 79.4a1.751 1.751 0 0 0 -2.222 1.089l-2.625 7.666a1.75 1.75 0 1 0 3.315 1.13l2.625-7.666a1.75 1.75 0 0 0 -1.093-2.219z" fill="#96ffd1"/><path d="m80.115 88.151-2.625-7.666a1.75 1.75 0 0 0 -3.312 1.134l2.622 7.666a1.75 1.75 0 1 0 3.312-1.134z" fill="#96ffd1"/><g fill="#3536c0"><path d="m29.25 72.276h-2.85v-31.244h27.6a1.75 1.75 0 0 0 0-3.5h-29.349a1.75 1.75 0 0 0 -1.75 1.75v34.744a1.751 1.751 0 0 0 1.75 1.75h4.6a1.75 1.75 0 0 0 0-3.5z"/><path d="m103.349 66.18a1.751 1.751 0 0 0 -1.75 1.75v4.346h-6.849v-10.443a1.751 1.751 0 0 0 -1.75-1.75h-58a1.751 1.751 0 0 0 -1.75 1.75v12.193a1.751 1.751 0 0 0 1.75 1.75h68.349a1.751 1.751 0 0 0 1.75-1.75v-6.1a1.751 1.751 0 0 0 -1.75-1.746zm-12.1-2.6v2.6h-49.874a1.75 1.75 0 0 0 0 3.5h49.875v2.6h-54.5v-8.697z"/><path d="m103.349 58.75a1.751 1.751 0 0 0 -1.75 1.75v1a1.75 1.75 0 0 0 3.5 0v-1a1.751 1.751 0 0 0 -1.75-1.75z"/><path d="m103.349 37.532h-35.516a1.75 1.75 0 0 0 0 3.5h33.767v13.622a1.75 1.75 0 1 0 3.5 0v-15.372a1.75 1.75 0 0 0 -1.751-1.75z"/><path d="m60.833 41.032h.75a1.75 1.75 0 0 0 0-3.5h-.75a1.75 1.75 0 0 0 0 3.5z"/><path d="m30.875 43.968a1.75 1.75 0 0 0 0 3.5h6.792a1.75 1.75 0 0 0 0-3.5z"/><path d="m44.958 43.968a1.75 1.75 0 0 0 0 3.5h2.375a1.75 1.75 0 0 0 0-3.5z"/><path d="m64 79.3a1.75 1.75 0 0 0 -1.75 1.75v7.666a1.75 1.75 0 1 0 3.5 0v-7.664a1.75 1.75 0 0 0 -1.75-1.752z"/><path d="m52.732 79.4a1.751 1.751 0 0 0 -2.222 1.089l-2.625 7.666a1.75 1.75 0 1 0 3.315 1.13l2.625-7.666a1.75 1.75 0 0 0 -1.093-2.219z"/><path d="m77.49 80.485a1.75 1.75 0 1 0 -3.311 1.134l2.621 7.666a1.75 1.75 0 1 0 3.311-1.134z"/></g></svg>