<?xml version="1.0" encoding="utf-8"?>
<!-- Generator: Adobe Illustrator 19.0.0, SVG Export Plug-In . SVG Version: 6.00 Build 0)  -->
<svg version="1.1" id="Layer_1" xmlns="http://www.w3.org/2000/svg" xmlns:xlink="http://www.w3.org/1999/xlink" x="0px" y="0px"
	 viewBox="-87 289.5 436.5 214.5" style="enable-background:new -87 289.5 436.5 214.5;" xml:space="preserve">
<style type="text/css">
	.st0{fill:#ED1C24;}
	.st1{enable-background:new    ;}
	.st2{fill:#FFFFFF;}
</style>
<path class="st0" d="M-6.7,354.8h-11.9c-4.6,0-8.5,0.4-11.6,1.1c-3.1,0.7-5.6,2-7.5,3.8c-1.9,1.8-3.2,4.2-4,7.4
	c-0.8,3.1-1.2,7.1-1.2,11.8v73.4h-33.2v-73.6c0-9.1,1-16.8,3.1-23.2s5.4-11.6,9.9-15.7c4.5-4.1,10.4-7.1,17.5-9
	c7.1-1.9,15.8-2.9,26.1-2.9h12.8V354.8L-6.7,354.8z"/>
<path class="st0" d="M274.8,452.3v-97.5h-11h-5.9h-17.3L202.2,440c-1.6,3.4-4,6.3-7,8.6s-6.8,3.5-11.3,3.5c-4.3,0-8-1.2-11-3.5
	s-5.4-5.2-7-8.6l-34.1-74.5L95.9,440c-1.8,3.7-4.2,6.7-7.2,8.8c-3,2.2-6.8,3.2-11.3,3.2c-5.1,0-8.9-1.1-11.5-3.2
	c-2.6-2.2-4.7-5.1-6.4-8.8l-36.7-85.2H2.2H1.3h-6.6v-27h6.6h0.9h8.9h33.7l34.8,81.4l34.6-72.2c2.1-4,4.4-7.1,7-9.3s6.4-3.2,11.3-3.2
	c4.8,0,8.5,1,11.1,3c2.7,2,5,5.2,6.9,9.5l32.8,72.2l36.6-81.4h1.5h31.5h5.1h5.9h11v-34.1h33.9v34.2h38.1v27h-38.1v97.5h-34
	L274.8,452.3L274.8,452.3z"/>
<g class="st1">
	<path class="st2" d="M-77.8,499.9v-11.6c0-1.5,0.2-2.8,0.5-3.8c0.3-1,0.9-1.9,1.6-2.6c0.7-0.7,1.7-1.2,2.9-1.5
		c1.2-0.3,2.6-0.5,4.3-0.5h3.5v4.5h-3.4c-0.8,0-1.4,0.1-1.9,0.2c-0.5,0.1-0.9,0.3-1.2,0.6s-0.5,0.7-0.7,1.2c-0.1,0.5-0.2,1.2-0.2,2
		V500h-5.4V499.9z"/>
	<path class="st2" d="M-57.1,499.9c-1.4,0-2.6-0.1-3.5-0.4c-0.9-0.2-1.7-0.6-2.2-1.1s-0.9-1-1.1-1.7c-0.2-0.7-0.3-1.4-0.3-2.2v-1.9
		c0-0.8,0.1-1.6,0.3-2.2c0.2-0.7,0.6-1.2,1.1-1.7s1.2-0.8,2.1-1s2-0.4,3.4-0.4h14.6v-0.4c0-1.3-0.3-2.1-0.8-2.6s-1.4-0.6-2.6-0.6
		h-5.4v-3.9h5.4c1.6,0,2.9,0.1,4,0.4s2,0.7,2.7,1.4c0.7,0.6,1.2,1.4,1.5,2.3c0.3,0.9,0.5,2,0.5,3.3v4.9c0,1.5-0.1,2.7-0.4,3.7
		c-0.3,1-0.8,1.8-1.5,2.4c-0.7,0.6-1.6,1.1-2.8,1.3c-1.2,0.3-2.6,0.4-4.4,0.4H-57.1z M-42.9,490.9h-14c-0.6,0-1.1,0.1-1.5,0.4
		s-0.5,0.8-0.5,1.6v1.4c0,0.7,0.2,1.2,0.6,1.5c0.4,0.3,0.9,0.4,1.6,0.4h10.2c0.6,0,1.2,0,1.6-0.1s0.8-0.3,1.1-0.5
		c0.3-0.3,0.5-0.6,0.7-1.1s0.2-1.1,0.2-1.8V490.9z"/>
	<path class="st2" d="M-24,499.9c-1.8,0-3.4-0.2-4.6-0.5c-1.2-0.3-2.2-0.8-2.9-1.5s-1.2-1.6-1.5-2.7c-0.3-1.1-0.5-2.4-0.5-4.1v-2.7
		c0-1.6,0.2-3,0.5-4.1s0.8-2,1.5-2.7c0.7-0.7,1.7-1.2,2.9-1.5c1.2-0.3,2.8-0.5,4.6-0.5h11v-6.5h5.4V491c0,1.6-0.2,3-0.5,4.1
		c-0.3,1.1-0.8,2-1.5,2.7s-1.7,1.2-2.9,1.5c-1.2,0.3-2.7,0.5-4.6,0.5H-24V499.9z M-28.2,491.1c0,0.9,0.1,1.6,0.2,2.1
		c0.1,0.5,0.4,1,0.7,1.3c0.4,0.3,0.9,0.5,1.5,0.6c0.6,0.1,1.4,0.1,2.4,0.1h6c0.8,0,1.5-0.1,2.1-0.2c0.5-0.1,1-0.3,1.3-0.6
		s0.5-0.7,0.7-1.3c0.1-0.5,0.2-1.2,0.2-2.1v-6.5h-10.3c-0.9,0-1.7,0-2.3,0.1c-0.6,0.1-1.1,0.3-1.5,0.6c-0.4,0.3-0.6,0.7-0.7,1.3
		c-0.1,0.5-0.2,1.3-0.2,2.1L-28.2,491.1L-28.2,491.1z"/>
	<path class="st2" d="M-1.6,478.7c-0.7,0-1.2-0.1-1.4-0.4c-0.3-0.3-0.4-0.7-0.4-1.3v-2.1c0-0.6,0.1-1,0.4-1.3
		c0.3-0.3,0.8-0.4,1.4-0.4h1.8c0.7,0,1.2,0.1,1.5,0.4c0.3,0.3,0.4,0.7,0.4,1.3v2.1c0,0.6-0.1,1-0.4,1.3c-0.3,0.3-0.8,0.4-1.5,0.4
		H-1.6z M-3.5,499.9v-19.5H2v19.5H-3.5z"/>
	<path class="st2" d="M13.1,499.9c-1.4,0-2.6-0.1-3.5-0.4c-0.9-0.2-1.7-0.6-2.2-1.1s-0.9-1-1.1-1.7C6.1,496,6,495.3,6,494.5v-1.9
		c0-0.8,0.1-1.6,0.3-2.2c0.2-0.7,0.6-1.2,1.1-1.7s1.2-0.8,2.1-1s2-0.4,3.4-0.4h14.6v-0.4c0-1.3-0.3-2.1-0.8-2.6s-1.4-0.6-2.6-0.6
		h-5.4v-3.9h5.4c1.6,0,2.9,0.1,4,0.4s2,0.7,2.7,1.4c0.7,0.6,1.2,1.4,1.5,2.3c0.3,0.9,0.5,2,0.5,3.3v4.9c0,1.5-0.1,2.7-0.4,3.7
		s-0.8,1.8-1.5,2.4c-0.7,0.6-1.6,1.1-2.8,1.3c-1.2,0.3-2.6,0.4-4.4,0.4H13.1z M27.3,490.9h-14c-0.6,0-1.1,0.1-1.5,0.4
		s-0.5,0.8-0.5,1.6v1.4c0,0.7,0.2,1.2,0.6,1.5s0.9,0.4,1.6,0.4h10.2c0.6,0,1.2,0,1.6-0.1s0.8-0.3,1.1-0.5c0.3-0.3,0.5-0.6,0.7-1.1
		s0.2-1.1,0.2-1.8L27.3,490.9L27.3,490.9z"/>
	<path class="st2" d="M56.9,499.9v-11.2c0-0.8-0.1-1.5-0.2-2.1c-0.1-0.6-0.4-0.9-0.7-1.3c-0.3-0.3-0.8-0.5-1.3-0.6
		c-0.6-0.1-1.3-0.2-2.2-0.2h-5.9c-0.9,0-1.6,0.1-2.1,0.2s-1,0.3-1.4,0.6s-0.6,0.7-0.7,1.3c-0.1,0.5-0.2,1.2-0.2,2.1v11.2h-5.4v-11.4
		c0-1.6,0.2-3,0.5-4.1s0.8-2,1.5-2.7c0.7-0.7,1.7-1.2,2.9-1.5c1.2-0.3,2.7-0.5,4.6-0.5h6.6c1.8,0,3.4,0.2,4.6,0.5
		c1.2,0.3,2.2,0.8,2.9,1.5c0.7,0.7,1.2,1.6,1.5,2.7s0.5,2.5,0.5,4.1v11.4H56.9z"/>
	<path class="st2" d="M67.6,499.9v-15.6h-2.8v-4.5h2.8v-5.7h5.5v5.7h6.2v4.5h-6.2v15.6H67.6z"/>
	<path class="st2" d="M114.4,486.1l-5.9,12.4c-0.3,0.6-0.7,1.1-1.2,1.5s-1.1,0.5-1.8,0.5c-0.8,0-1.5-0.2-1.9-0.5
		c-0.4-0.4-0.8-0.8-1-1.5l-7.9-18.6h5.5l5.7,13.5l5.6-12c0.3-0.7,0.7-1.2,1.1-1.5s1-0.5,1.8-0.5s1.4,0.2,1.8,0.5s0.8,0.9,1.1,1.6
		l5.4,12l6-13.5h5.4l-8.3,18.6c-0.3,0.6-0.6,1-1.1,1.4s-1.1,0.6-1.8,0.6s-1.3-0.2-1.8-0.6c-0.5-0.4-0.9-0.9-1.1-1.4L114.4,486.1z"/>
	<path class="st2" d="M140.8,491.9v0.9c0,0.6,0,1.1,0.1,1.5s0.3,0.7,0.5,0.9c0.3,0.2,0.6,0.4,1,0.4c0.4,0.1,1,0.1,1.6,0.1h6.4v4.2
		H144c-3.1,0-5.4-0.6-6.7-1.8s-2-3.1-2-5.8v-4.6c0-1.5,0.1-2.7,0.4-3.7c0.3-1,0.8-1.8,1.5-2.4c0.7-0.6,1.6-1,2.7-1.3
		c1.1-0.3,2.6-0.4,4.3-0.4h9.5c1.4,0,2.6,0.1,3.5,0.4s1.7,0.6,2.2,1.1s0.9,1.1,1.1,1.7c0.2,0.7,0.3,1.4,0.3,2.2v6.6L140.8,491.9
		L140.8,491.9z M155.6,485.8c0-0.7-0.2-1.1-0.5-1.3s-0.9-0.3-1.7-0.3h-9c-0.7,0-1.3,0-1.7,0.1c-0.4,0.1-0.8,0.2-1.1,0.4
		c-0.3,0.2-0.5,0.5-0.6,1c-0.1,0.4-0.2,1-0.2,1.7v1.1h14.9L155.6,485.8L155.6,485.8z"/>
	<path class="st2" d="M174.3,499.9c-1.8,0-3.3-0.2-4.6-0.5c-1.2-0.3-2.2-0.8-2.9-1.5s-1.2-1.6-1.5-2.7c-0.3-1.1-0.5-2.4-0.5-4.1
		v-17.9h5.4v6.5h11c1.8,0,3.4,0.2,4.6,0.5c1.2,0.3,2.2,0.8,2.9,1.5c0.7,0.7,1.2,1.6,1.5,2.7s0.5,2.5,0.5,4.1v2.7
		c0,1.6-0.2,3-0.5,4.1c-0.3,1.1-0.8,2-1.5,2.7s-1.7,1.2-2.9,1.5c-1.2,0.3-2.7,0.5-4.6,0.5h-6.9V499.9z M185.3,488.8
		c0-0.9-0.1-1.6-0.2-2.1s-0.3-1-0.7-1.3s-0.8-0.5-1.3-0.6s-1.3-0.2-2.1-0.2h-10.8v6.5c0,0.8,0.1,1.5,0.2,2s0.3,1,0.7,1.3
		s0.7,0.5,1.3,0.6s1.2,0.2,2.1,0.2h6.6c0.8,0,1.6-0.1,2.1-0.2s1-0.3,1.3-0.6s0.5-0.7,0.7-1.3c0.1-0.5,0.2-1.2,0.2-2.1v-2.2H185.3z"
		/>
	<path class="st2" d="M210.4,499.9v-15.6h-2.8v-4.5h2.8v-5.7h5.5v5.7h6.2v4.5H216v15.6H210.4z"/>
	<path class="st2" d="M230.1,491.9v0.9c0,0.6,0,1.1,0.1,1.5s0.3,0.7,0.5,0.9c0.3,0.2,0.6,0.4,1,0.4c0.4,0.1,1,0.1,1.6,0.1h6.4v4.2
		h-6.4c-3.1,0-5.4-0.6-6.7-1.8c-1.3-1.2-2-3.1-2-5.8v-4.6c0-1.5,0.1-2.7,0.4-3.7s0.8-1.8,1.5-2.4c0.7-0.6,1.6-1,2.7-1.3
		c1.1-0.3,2.6-0.4,4.3-0.4h9.5c1.4,0,2.6,0.1,3.5,0.4s1.7,0.6,2.2,1.1s0.9,1.1,1.1,1.7c0.2,0.7,0.3,1.4,0.3,2.2v6.6L230.1,491.9
		L230.1,491.9z M244.9,485.8c0-0.7-0.2-1.1-0.5-1.3s-0.9-0.3-1.7-0.3h-9c-0.7,0-1.3,0-1.7,0.1c-0.4,0.1-0.8,0.2-1.1,0.4
		c-0.3,0.2-0.5,0.5-0.6,1c-0.1,0.4-0.2,1-0.2,1.7v1.1H245L244.9,485.8L244.9,485.8z"/>
	<path class="st2" d="M263.6,499.9c-1.8,0-3.3-0.2-4.5-0.5s-2.2-0.8-2.9-1.5c-0.7-0.7-1.2-1.6-1.5-2.7c-0.3-1.1-0.5-2.4-0.5-4.1
		v-2.7c0-1.6,0.2-3,0.5-4.1s0.8-2,1.5-2.7c0.7-0.7,1.7-1.2,2.9-1.5c1.2-0.3,2.7-0.5,4.5-0.5h14.3v4.7h-14.1c-0.9,0-1.5,0.1-2.1,0.2
		c-0.6,0.1-1,0.3-1.3,0.6c-0.3,0.3-0.5,0.7-0.7,1.3c-0.1,0.5-0.2,1.2-0.2,2v2.4c0,0.8,0.1,1.4,0.2,2c0.1,0.5,0.3,1,0.7,1.3
		c0.4,0.3,0.7,0.5,1.3,0.7s1.2,0.2,2.1,0.2h14.1v4.7h-14.3V499.9z"/>
	<path class="st2" d="M302.3,499.9v-11.2c0-0.8-0.1-1.5-0.2-2.1c-0.1-0.5-0.4-1-0.7-1.3s-0.8-0.5-1.3-0.6s-1.3-0.2-2.1-0.2h-10.8
		v15.3h-5.4v-26.5h5.4v6.5h11c1.8,0,3.4,0.2,4.6,0.5s2.2,0.8,2.9,1.5s1.2,1.6,1.5,2.7c0.3,1.1,0.5,2.5,0.5,4.1V500h-5.4V499.9z"/>
</g>
</svg>
