<svg width="60" height="40" viewBox="0 0 60 40" fill="none" xmlns="http://www.w3.org/2000/svg">
<path fill-rule="evenodd" clip-rule="evenodd" d="M30.6942 0.581986L30 1.42005L29.3058 0.581985L30 0L30.6942 0.581986ZM47.9945 5.78376C47.8098 4.70878 47.8094 4.70886 47.8089 4.70894L47.8078 4.70914L47.8047 4.70968L47.7955 4.71132L47.7652 4.71688C47.7397 4.72163 47.7037 4.72848 47.6578 4.73761C47.5661 4.75586 47.4346 4.78322 47.2675 4.8211C46.9333 4.89683 46.4562 5.01471 45.8692 5.18592C44.6966 5.52798 43.0789 6.08491 41.2854 6.94792C40.011 7.56116 38.6395 8.33304 37.2726 9.29772C36.6354 7.99962 35.9315 6.82991 35.2316 5.80311C34.1073 4.15352 32.9832 2.85749 32.1377 1.97137C31.7144 1.52786 31.3598 1.18574 31.108 0.952066C30.9821 0.835194 30.8818 0.745342 30.8115 0.683393C30.7763 0.652415 30.7486 0.628403 30.7288 0.611468L30.7053 0.591382L30.6982 0.585343L30.6958 0.583329L30.6949 0.582573C30.6945 0.582266 30.6942 0.581986 30 1.42005C29.3058 0.581985 29.3055 0.582265 29.3051 0.582573L29.3042 0.583328L29.3018 0.585342L29.2947 0.591381L29.2712 0.611467C29.2515 0.628402 29.2237 0.652414 29.1885 0.683392C29.1182 0.745341 29.0179 0.835193 28.892 0.952065C28.6402 1.18574 28.2856 1.52786 27.8624 1.97137C27.0168 2.85749 25.8927 4.15352 24.7684 5.8031C24.0538 6.85148 23.3351 8.04883 22.6873 9.37969C21.2823 8.37665 19.8693 7.57843 18.559 6.94792C16.7655 6.08491 15.1479 5.52797 13.9752 5.18591C13.3883 5.0147 12.9111 4.89683 12.577 4.8211C12.4098 4.78322 12.2783 4.75585 12.1866 4.7376C12.1407 4.72847 12.1048 4.72162 12.0793 4.71688L12.0489 4.71132L12.0397 4.70968L12.0367 4.70914L12.0355 4.70893C12.035 4.70885 12.0346 4.70878 11.85 5.78375L12.0346 4.70878L11.1442 4.55396L10.8323 5.40716L11.85 5.78375C10.8323 5.40716 10.8321 5.40757 10.832 5.40802L10.8316 5.40913L10.8305 5.41208L10.8273 5.4209L10.8169 5.45012C10.8083 5.47471 10.7962 5.50945 10.7811 5.55398C10.7509 5.64303 10.7088 5.77129 10.6578 5.93584C10.5559 6.26484 10.4188 6.73954 10.2727 7.33652C9.98083 8.52925 9.65143 10.2171 9.49756 12.2113C9.40764 13.3766 9.37725 14.6528 9.45105 16.0001H0V17.091C0 29.7433 10.195 40.0001 22.7711 40.0001H37.2289C49.805 40.0001 60 29.7433 60 17.091V16.0001H50.3934C50.4672 14.6528 50.4368 13.3766 50.3469 12.2113C50.193 10.2171 49.8636 8.52925 49.5717 7.33652C49.4256 6.73954 49.2885 6.26485 49.1866 5.93585C49.1357 5.77129 49.0935 5.64303 49.0633 5.55399C49.0483 5.50946 49.0362 5.47472 49.0275 5.45013L49.0171 5.4209L49.014 5.41208L49.0125 5.40803C49.0123 5.40758 49.0122 5.40717 47.9945 5.78376ZM47.9945 5.78376L47.8098 4.70878L48.7002 4.55396L49.0122 5.40717L47.9945 5.78376ZM50.1836 18.1819C49.8139 20.845 48.9894 23.6865 47.4099 26.4388C44.5556 31.4125 40.2179 34.3839 36.6418 36.1063C34.9401 36.926 33.3945 37.4709 32.2341 37.8183H37.2289C48.2436 37.8183 57.2394 29.1222 57.8033 18.1819H50.1836ZM27.6104 37.8183C26.4493 37.4707 24.9027 36.9254 23.2 36.1051C19.6245 34.3824 15.2881 31.4113 12.4345 26.4387C10.8551 23.6865 10.0306 20.845 9.66083 18.1819H2.19672C2.76059 29.1222 11.7564 37.8183 22.7711 37.8183H27.6104ZM33.4431 7.03699C34.1667 8.09863 34.8853 9.31059 35.5161 10.6551C33.6659 12.2206 31.9077 14.1794 30.5068 16.6206C30.2991 16.9824 30.1045 17.3458 29.9222 17.7103C29.7399 17.3458 29.5453 16.9824 29.3377 16.6206C27.9649 14.2285 26.249 12.2995 24.4397 10.7499C25.081 9.3675 25.8164 8.12351 26.5569 7.03699C27.6013 5.50475 28.6458 4.30079 29.4268 3.48235C29.6396 3.25932 29.8325 3.06531 30 2.90148C30.1675 3.06531 30.3604 3.25932 30.5732 3.48235C31.3542 4.30079 32.3987 5.50475 33.4431 7.03699ZM27.4596 17.7115C26.3627 15.8001 25.0159 14.209 23.5723 12.8879C22.8679 14.9107 22.4096 17.1638 22.4096 19.6019C22.4096 24.7622 24.4627 29.0941 26.5569 32.1667C27.6013 33.699 28.6458 34.9029 29.4268 35.7214C29.5762 35.8779 29.7157 36.0201 29.8435 36.1476L29.9222 36.1643C29.9951 36.1491 30.0885 36.129 30.2008 36.1033C30.3164 35.9874 30.4409 35.86 30.5732 35.7214C31.3542 34.9029 32.3987 33.699 33.4431 32.1667C35.5373 29.0941 37.5904 24.7622 37.5904 19.6019C37.5904 17.1207 37.1157 14.831 36.3901 12.7808C34.9019 14.1227 33.5116 15.7482 32.3849 17.7115C31.7934 18.7422 31.3187 19.7889 30.9416 20.8351L29.9222 23.6638L28.9028 20.8351C28.5258 19.7889 28.051 18.7422 27.4596 17.7115ZM17.6233 8.91619C18.9618 9.56028 20.3951 10.3828 21.7973 11.4247C20.8724 13.8305 20.241 16.5794 20.241 19.6019C20.241 25.3506 22.5253 30.1096 24.7684 33.4006C25.1338 33.9368 25.4992 34.4356 25.855 34.8951C25.3113 34.6766 24.7346 34.4253 24.1367 34.1373C20.7985 32.529 16.8741 29.8114 14.3127 25.3478C11.748 20.8789 11.3731 16.0946 11.6597 12.3801C11.8027 10.5278 12.1089 8.95972 12.3785 7.85809C12.452 7.55789 12.5226 7.29285 12.5862 7.06671C12.8127 7.12433 13.0761 7.19533 13.3713 7.28143C14.4544 7.59736 15.9574 8.11458 17.6233 8.91619ZM35.2316 33.4006C34.8905 33.9011 34.5494 34.369 34.2161 34.8029C34.6918 34.6069 35.1907 34.3863 35.7053 34.1384C39.044 32.5303 42.9697 29.8125 45.5318 25.3478C48.0964 20.8789 48.4713 16.0946 48.1847 12.3801C48.0418 10.5278 47.7355 8.95973 47.4659 7.8581C47.3925 7.55789 47.3219 7.29285 47.2582 7.06671C47.0317 7.12434 46.7683 7.19534 46.4731 7.28143C45.3901 7.59737 43.8871 8.11458 42.2211 8.9162C40.9211 9.54177 39.5317 10.3356 38.1682 11.3354C39.1118 13.7624 39.759 16.5419 39.759 19.6019C39.759 25.3506 37.4747 30.1096 35.2316 33.4006Z" fill="white"/>
</svg>
