<svg width="551" height="551" viewBox="0 0 551 551" fill="none" xmlns="http://www.w3.org/2000/svg">
<path d="M247 0H228V19H247V0Z" fill="black"/>
<path d="M285 0H266V19H285V0Z" fill="black"/>
<path d="M361 0H342V19H361V0Z" fill="black"/>
<path d="M380 0H361V19H380V0Z" fill="black"/>
<path d="M228 19H209V38H228V19Z" fill="black"/>
<path d="M323 19H304V38H323V19Z" fill="black"/>
<path d="M190 38H171V57H190V38Z" fill="black"/>
<path d="M247 38H228V57H247V38Z" fill="black"/>
<path d="M285 38H266V57H285V38Z" fill="black"/>
<path d="M304 38H285V57H304V38Z" fill="black"/>
<path d="M342 38H323V57H342V38Z" fill="black"/>
<path d="M380 38H361V57H380V38Z" fill="black"/>
<path d="M399 38H380V57H399V38Z" fill="black"/>
<path d="M190 57H171V76H190V57Z" fill="black"/>
<path d="M228 57H209V76H228V57Z" fill="black"/>
<path d="M247 57H228V76H247V57Z" fill="black"/>
<path d="M266 57H247V76H266V57Z" fill="black"/>
<path d="M323 57H304V76H323V57Z" fill="black"/>
<path d="M361 57H342V76H361V57Z" fill="black"/>
<path d="M209 76H190V95H209V76Z" fill="black"/>
<path d="M228 76H209V95H228V76Z" fill="black"/>
<path d="M342 76H323V95H342V76Z" fill="black"/>
<path d="M361 76H342V95H361V76Z" fill="black"/>
<path d="M399 76H380V95H399V76Z" fill="black"/>
<path d="M171 95H152V114H171V95Z" fill="black"/>
<path d="M190 95H171V114H190V95Z" fill="black"/>
<path d="M228 95H209V114H228V95Z" fill="black"/>
<path d="M247 95H228V114H247V95Z" fill="black"/>
<path d="M304 95H285V114H304V95Z" fill="black"/>
<path d="M323 95H304V114H323V95Z" fill="black"/>
<path d="M342 95H323V114H342V95Z" fill="black"/>
<path d="M361 95H342V114H361V95Z" fill="black"/>
<path d="M380 95H361V114H380V95Z" fill="black"/>
<path d="M171 114H152V133H171V114Z" fill="black"/>
<path d="M209 114H190V133H209V114Z" fill="black"/>
<path d="M247 114H228V133H247V114Z" fill="black"/>
<path d="M285 114H266V133H285V114Z" fill="black"/>
<path d="M323 114H304V133H323V114Z" fill="black"/>
<path d="M361 114H342V133H361V114Z" fill="black"/>
<path d="M399 114H380V133H399V114Z" fill="black"/>
<path d="M209 133H190V152H209V133Z" fill="black"/>
<path d="M228 133H209V152H228V133Z" fill="black"/>
<path d="M266 133H247V152H266V133Z" fill="black"/>
<path d="M304 133H285V152H304V133Z" fill="black"/>
<path d="M323 133H304V152H323V133Z" fill="black"/>
<path d="M342 133H323V152H342V133Z" fill="black"/>
<path d="M361 133H342V152H361V133Z" fill="black"/>
<path d="M19 152H0V171H19V152Z" fill="black"/>
<path d="M76 152H57V171H76V152Z" fill="black"/>
<path d="M114 152H95V171H114V152Z" fill="black"/>
<path d="M133 152H114V171H133V152Z" fill="black"/>
<path d="M171 152H152V171H171V152Z" fill="black"/>
<path d="M190 152H171V171H190V152Z" fill="black"/>
<path d="M285 152H266V171H285V152Z" fill="black"/>
<path d="M323 152H304V171H323V152Z" fill="black"/>
<path d="M380 152H361V171H380V152Z" fill="black"/>
<path d="M399 152H380V171H399V152Z" fill="black"/>
<path d="M418 152H399V171H418V152Z" fill="black"/>
<path d="M456 152H437V171H456V152Z" fill="black"/>
<path d="M19 171H0V190H19V171Z" fill="black"/>
<path d="M76 171H57V190H76V171Z" fill="black"/>
<path d="M152 171H133V190H152V171Z" fill="black"/>
<path d="M171 171H152V190H171V171Z" fill="black"/>
<path d="M190 171H171V190H190V171Z" fill="black"/>
<path d="M228 171H209V190H228V171Z" fill="black"/>
<path d="M247 171H228V190H247V171Z" fill="black"/>
<path d="M266 171H247V190H266V171Z" fill="black"/>
<path d="M304 171H285V190H304V171Z" fill="black"/>
<path d="M323 171H304V190H323V171Z" fill="black"/>
<path d="M399 171H380V190H399V171Z" fill="black"/>
<path d="M418 171H399V190H418V171Z" fill="black"/>
<path d="M437 171H418V190H437V171Z" fill="black"/>
<path d="M494 171H475V190H494V171Z" fill="black"/>
<path d="M551 171H532V190H551V171Z" fill="black"/>
<path d="M19 190H0V209H19V190Z" fill="black"/>
<path d="M57 190H38V209H57V190Z" fill="black"/>
<path d="M133 190H114V209H133V190Z" fill="black"/>
<path d="M228 190H209V209H228V190Z" fill="black"/>
<path d="M247 190H228V209H247V190Z" fill="black"/>
<path d="M266 190H247V209H266V190Z" fill="black"/>
<path d="M285 190H266V209H285V190Z" fill="black"/>
<path d="M304 190H285V209H304V190Z" fill="black"/>
<path d="M380 190H361V209H380V190Z" fill="black"/>
<path d="M494 190H475V209H494V190Z" fill="black"/>
<path d="M513 190H494V209H513V190Z" fill="black"/>
<path d="M532 190H513V209H532V190Z" fill="black"/>
<path d="M19 209H0V228H19V209Z" fill="black"/>
<path d="M57 209H38V228H57V209Z" fill="black"/>
<path d="M76 209H57V228H76V209Z" fill="black"/>
<path d="M114 209H95V228H114V209Z" fill="black"/>
<path d="M152 209H133V228H152V209Z" fill="black"/>
<path d="M190 209H171V228H190V209Z" fill="black"/>
<path d="M266 209H247V228H266V209Z" fill="black"/>
<path d="M323 209H304V228H323V209Z" fill="black"/>
<path d="M361 209H342V228H361V209Z" fill="black"/>
<path d="M380 209H361V228H380V209Z" fill="black"/>
<path d="M399 209H380V228H399V209Z" fill="black"/>
<path d="M418 209H399V228H418V209Z" fill="black"/>
<path d="M437 209H418V228H437V209Z" fill="black"/>
<path d="M456 209H437V228H456V209Z" fill="black"/>
<path d="M475 209H456V228H475V209Z" fill="black"/>
<path d="M513 209H494V228H513V209Z" fill="black"/>
<path d="M532 209H513V228H532V209Z" fill="black"/>
<path d="M19 228H0V247H19V228Z" fill="black"/>
<path d="M57 228H38V247H57V228Z" fill="black"/>
<path d="M76 228H57V247H76V228Z" fill="black"/>
<path d="M133 228H114V247H133V228Z" fill="black"/>
<path d="M228 228H209V247H228V228Z" fill="black"/>
<path d="M285 228H266V247H285V228Z" fill="black"/>
<path d="M304 228H285V247H304V228Z" fill="black"/>
<path d="M323 228H304V247H323V228Z" fill="black"/>
<path d="M342 228H323V247H342V228Z" fill="black"/>
<path d="M361 228H342V247H361V228Z" fill="black"/>
<path d="M399 228H380V247H399V228Z" fill="black"/>
<path d="M418 228H399V247H418V228Z" fill="black"/>
<path d="M437 228H418V247H437V228Z" fill="black"/>
<path d="M494 228H475V247H494V228Z" fill="black"/>
<path d="M532 228H513V247H532V228Z" fill="black"/>
<path d="M551 228H532V247H551V228Z" fill="black"/>
<path d="M38 247H19V266H38V247Z" fill="black"/>
<path d="M209 247H190V266H209V247Z" fill="black"/>
<path d="M228 247H209V266H228V247Z" fill="black"/>
<path d="M266 247H247V266H266V247Z" fill="black"/>
<path d="M285 247H266V266H285V247Z" fill="black"/>
<path d="M304 247H285V266H304V247Z" fill="black"/>
<path d="M323 247H304V266H323V247Z" fill="black"/>
<path d="M380 247H361V266H380V247Z" fill="black"/>
<path d="M399 247H380V266H399V247Z" fill="black"/>
<path d="M456 247H437V266H456V247Z" fill="black"/>
<path d="M57 266H38V285H57V266Z" fill="black"/>
<path d="M76 266H57V285H76V266Z" fill="black"/>
<path d="M95 266H76V285H95V266Z" fill="black"/>
<path d="M133 266H114V285H133V266Z" fill="black"/>
<path d="M190 266H171V285H190V266Z" fill="black"/>
<path d="M228 266H209V285H228V266Z" fill="black"/>
<path d="M266 266H247V285H266V266Z" fill="black"/>
<path d="M285 266H266V285H285V266Z" fill="black"/>
<path d="M323 266H304V285H323V266Z" fill="black"/>
<path d="M437 266H418V285H437V266Z" fill="black"/>
<path d="M494 266H475V285H494V266Z" fill="black"/>
<path d="M513 266H494V285H513V266Z" fill="black"/>
<path d="M532 266H513V285H532V266Z" fill="black"/>
<path d="M551 266H532V285H551V266Z" fill="black"/>
<path d="M19 285H0V304H19V285Z" fill="black"/>
<path d="M57 285H38V304H57V285Z" fill="black"/>
<path d="M114 285H95V304H114V285Z" fill="black"/>
<path d="M152 285H133V304H152V285Z" fill="black"/>
<path d="M209 285H190V304H209V285Z" fill="black"/>
<path d="M228 285H209V304H228V285Z" fill="black"/>
<path d="M304 285H285V304H304V285Z" fill="black"/>
<path d="M342 285H323V304H342V285Z" fill="black"/>
<path d="M361 285H342V304H361V285Z" fill="black"/>
<path d="M380 285H361V304H380V285Z" fill="black"/>
<path d="M399 285H380V304H399V285Z" fill="black"/>
<path d="M418 285H399V304H418V285Z" fill="black"/>
<path d="M437 285H418V304H437V285Z" fill="black"/>
<path d="M494 285H475V304H494V285Z" fill="black"/>
<path d="M532 285H513V304H532V285Z" fill="black"/>
<path d="M38 304H19V323H38V304Z" fill="black"/>
<path d="M57 304H38V323H57V304Z" fill="black"/>
<path d="M76 304H57V323H76V304Z" fill="black"/>
<path d="M133 304H114V323H133V304Z" fill="black"/>
<path d="M152 304H133V323H152V304Z" fill="black"/>
<path d="M209 304H190V323H209V304Z" fill="black"/>
<path d="M228 304H209V323H228V304Z" fill="black"/>
<path d="M266 304H247V323H266V304Z" fill="black"/>
<path d="M323 304H304V323H323V304Z" fill="black"/>
<path d="M342 304H323V323H342V304Z" fill="black"/>
<path d="M380 304H361V323H380V304Z" fill="black"/>
<path d="M418 304H399V323H418V304Z" fill="black"/>
<path d="M456 304H437V323H456V304Z" fill="black"/>
<path d="M532 304H513V323H532V304Z" fill="black"/>
<path d="M114 323H95V342H114V323Z" fill="black"/>
<path d="M171 323H152V342H171V323Z" fill="black"/>
<path d="M190 323H171V342H190V323Z" fill="black"/>
<path d="M209 323H190V342H209V323Z" fill="black"/>
<path d="M228 323H209V342H228V323Z" fill="black"/>
<path d="M247 323H228V342H247V323Z" fill="black"/>
<path d="M266 323H247V342H266V323Z" fill="black"/>
<path d="M285 323H266V342H285V323Z" fill="black"/>
<path d="M323 323H304V342H323V323Z" fill="black"/>
<path d="M418 323H399V342H418V323Z" fill="black"/>
<path d="M437 323H418V342H437V323Z" fill="black"/>
<path d="M456 323H437V342H456V323Z" fill="black"/>
<path d="M494 323H475V342H494V323Z" fill="black"/>
<path d="M551 323H532V342H551V323Z" fill="black"/>
<path d="M19 342H0V361H19V342Z" fill="black"/>
<path d="M76 342H57V361H76V342Z" fill="black"/>
<path d="M95 342H76V361H95V342Z" fill="black"/>
<path d="M133 342H114V361H133V342Z" fill="black"/>
<path d="M152 342H133V361H152V342Z" fill="black"/>
<path d="M171 342H152V361H171V342Z" fill="black"/>
<path d="M209 342H190V361H209V342Z" fill="black"/>
<path d="M247 342H228V361H247V342Z" fill="black"/>
<path d="M285 342H266V361H285V342Z" fill="black"/>
<path d="M323 342H304V361H323V342Z" fill="black"/>
<path d="M342 342H323V361H342V342Z" fill="black"/>
<path d="M418 342H399V361H418V342Z" fill="black"/>
<path d="M437 342H418V361H437V342Z" fill="black"/>
<path d="M456 342H437V361H456V342Z" fill="black"/>
<path d="M532 342H513V361H532V342Z" fill="black"/>
<path d="M551 342H532V361H551V342Z" fill="black"/>
<path d="M57 361H38V380H57V361Z" fill="black"/>
<path d="M76 361H57V380H76V361Z" fill="black"/>
<path d="M209 361H190V380H209V361Z" fill="black"/>
<path d="M247 361H228V380H247V361Z" fill="black"/>
<path d="M285 361H266V380H285V361Z" fill="black"/>
<path d="M304 361H285V380H304V361Z" fill="black"/>
<path d="M323 361H304V380H323V361Z" fill="black"/>
<path d="M342 361H323V380H342V361Z" fill="black"/>
<path d="M361 361H342V380H361V361Z" fill="black"/>
<path d="M380 361H361V380H380V361Z" fill="black"/>
<path d="M437 361H418V380H437V361Z" fill="black"/>
<path d="M532 361H513V380H532V361Z" fill="black"/>
<path d="M551 361H532V380H551V361Z" fill="black"/>
<path d="M19 380H0V399H19V380Z" fill="black"/>
<path d="M76 380H57V399H76V380Z" fill="black"/>
<path d="M114 380H95V399H114V380Z" fill="black"/>
<path d="M133 380H114V399H133V380Z" fill="black"/>
<path d="M152 380H133V399H152V380Z" fill="black"/>
<path d="M190 380H171V399H190V380Z" fill="black"/>
<path d="M228 380H209V399H228V380Z" fill="black"/>
<path d="M399 380H380V399H399V380Z" fill="black"/>
<path d="M418 380H399V399H418V380Z" fill="black"/>
<path d="M437 380H418V399H437V380Z" fill="black"/>
<path d="M456 380H437V399H456V380Z" fill="black"/>
<path d="M475 380H456V399H475V380Z" fill="black"/>
<path d="M513 380H494V399H513V380Z" fill="black"/>
<path d="M171 399H152V418H171V399Z" fill="black"/>
<path d="M209 399H190V418H209V399Z" fill="black"/>
<path d="M228 399H209V418H228V399Z" fill="black"/>
<path d="M285 399H266V418H285V399Z" fill="black"/>
<path d="M323 399H304V418H323V399Z" fill="black"/>
<path d="M342 399H323V418H342V399Z" fill="black"/>
<path d="M399 399H380V418H399V399Z" fill="black"/>
<path d="M475 399H456V418H475V399Z" fill="black"/>
<path d="M513 399H494V418H513V399Z" fill="black"/>
<path d="M532 399H513V418H532V399Z" fill="black"/>
<path d="M551 399H532V418H551V399Z" fill="black"/>
<path d="M209 418H190V437H209V418Z" fill="black"/>
<path d="M228 418H209V437H228V418Z" fill="black"/>
<path d="M247 418H228V437H247V418Z" fill="black"/>
<path d="M323 418H304V437H323V418Z" fill="black"/>
<path d="M399 418H380V437H399V418Z" fill="black"/>
<path d="M437 418H418V437H437V418Z" fill="black"/>
<path d="M475 418H456V437H475V418Z" fill="black"/>
<path d="M532 418H513V437H532V418Z" fill="black"/>
<path d="M171 437H152V456H171V437Z" fill="black"/>
<path d="M190 437H171V456H190V437Z" fill="black"/>
<path d="M228 437H209V456H228V437Z" fill="black"/>
<path d="M247 437H228V456H247V437Z" fill="black"/>
<path d="M285 437H266V456H285V437Z" fill="black"/>
<path d="M304 437H285V456H304V437Z" fill="black"/>
<path d="M361 437H342V456H361V437Z" fill="black"/>
<path d="M399 437H380V456H399V437Z" fill="black"/>
<path d="M475 437H456V456H475V437Z" fill="black"/>
<path d="M494 437H475V456H494V437Z" fill="black"/>
<path d="M513 437H494V456H513V437Z" fill="black"/>
<path d="M190 456H171V475H190V456Z" fill="black"/>
<path d="M209 456H190V475H209V456Z" fill="black"/>
<path d="M228 456H209V475H228V456Z" fill="black"/>
<path d="M323 456H304V475H323V456Z" fill="black"/>
<path d="M342 456H323V475H342V456Z" fill="black"/>
<path d="M399 456H380V475H399V456Z" fill="black"/>
<path d="M418 456H399V475H418V456Z" fill="black"/>
<path d="M437 456H418V475H437V456Z" fill="black"/>
<path d="M456 456H437V475H456V456Z" fill="black"/>
<path d="M475 456H456V475H475V456Z" fill="black"/>
<path d="M551 456H532V475H551V456Z" fill="black"/>
<path d="M171 475H152V494H171V475Z" fill="black"/>
<path d="M190 475H171V494H190V475Z" fill="black"/>
<path d="M228 475H209V494H228V475Z" fill="black"/>
<path d="M266 475H247V494H266V475Z" fill="black"/>
<path d="M342 475H323V494H342V475Z" fill="black"/>
<path d="M361 475H342V494H361V475Z" fill="black"/>
<path d="M380 475H361V494H380V475Z" fill="black"/>
<path d="M437 475H418V494H437V475Z" fill="black"/>
<path d="M475 475H456V494H475V475Z" fill="black"/>
<path d="M494 475H475V494H494V475Z" fill="black"/>
<path d="M513 475H494V494H513V475Z" fill="black"/>
<path d="M532 475H513V494H532V475Z" fill="black"/>
<path d="M190 494H171V513H190V494Z" fill="black"/>
<path d="M228 494H209V513H228V494Z" fill="black"/>
<path d="M285 494H266V513H285V494Z" fill="black"/>
<path d="M342 494H323V513H342V494Z" fill="black"/>
<path d="M399 494H380V513H399V494Z" fill="black"/>
<path d="M418 494H399V513H418V494Z" fill="black"/>
<path d="M475 494H456V513H475V494Z" fill="black"/>
<path d="M494 494H475V513H494V494Z" fill="black"/>
<path d="M513 494H494V513H513V494Z" fill="black"/>
<path d="M551 494H532V513H551V494Z" fill="black"/>
<path d="M209 513H190V532H209V513Z" fill="black"/>
<path d="M266 513H247V532H266V513Z" fill="black"/>
<path d="M285 513H266V532H285V513Z" fill="black"/>
<path d="M304 513H285V532H304V513Z" fill="black"/>
<path d="M323 513H304V532H323V513Z" fill="black"/>
<path d="M342 513H323V532H342V513Z" fill="black"/>
<path d="M380 513H361V532H380V513Z" fill="black"/>
<path d="M399 513H380V532H399V513Z" fill="black"/>
<path d="M475 513H456V532H475V513Z" fill="black"/>
<path d="M532 513H513V532H532V513Z" fill="black"/>
<path d="M171 532H152V551H171V532Z" fill="black"/>
<path d="M209 532H190V551H209V532Z" fill="black"/>
<path d="M228 532H209V551H228V532Z" fill="black"/>
<path d="M247 532H228V551H247V532Z" fill="black"/>
<path d="M266 532H247V551H266V532Z" fill="black"/>
<path d="M285 532H266V551H285V532Z" fill="black"/>
<path d="M304 532H285V551H304V532Z" fill="black"/>
<path d="M342 532H323V551H342V532Z" fill="black"/>
<path d="M361 532H342V551H361V532Z" fill="black"/>
<path d="M399 532H380V551H399V532Z" fill="black"/>
<path d="M437 532H418V551H437V532Z" fill="black"/>
<path d="M456 532H437V551H456V532Z" fill="black"/>
<path d="M475 532H456V551H475V532Z" fill="black"/>
<path d="M532 532H513V551H532V532Z" fill="black"/>
<path d="M87.5925 0.0107422H45.4075C24.8484 0.0107422 7.43071 13.594 1.862 32.1595C1.28611 34.08 0.83657 36.0537 0.52402 38.0714C0.17955 40.2978 0 42.5774 0 44.8982V88.0847C0 112.848 20.3756 132.985 45.4075 132.985L66.5 132.989L87.5925 132.984C112.623 132.984 133 112.847 133 88.0833V44.8982C133 20.1469 112.624 0.0107422 87.5925 0.0107422ZM113.05 88.0847C113.05 101.842 101.631 113.035 87.5872 113.035L66.5 113.039L45.4129 113.034C31.3694 113.034 19.95 101.841 19.95 88.0847V44.8982C19.95 40.601 21.0645 36.5552 23.0263 33.02C24.9149 29.6192 27.5869 26.6945 30.8041 24.4801C34.9404 21.6326 39.9771 19.9607 45.4062 19.9607H87.5925C101.631 19.9607 113.05 31.1474 113.05 44.8982V88.0847Z" fill="black"/>
<path d="M505.592 0.0107422H463.408C442.848 0.0107422 425.431 13.594 419.862 32.1595C419.286 34.08 418.837 36.0537 418.524 38.0714C418.18 40.2978 418 42.5774 418 44.8982V88.0847C418 112.848 438.376 132.985 463.408 132.985L484.5 132.989L505.592 132.984C530.623 132.984 551 112.847 551 88.0833V44.8982C551 20.1469 530.624 0.0107422 505.592 0.0107422ZM531.05 88.0847C531.05 101.842 519.631 113.035 505.587 113.035L484.5 113.039L463.413 113.034C449.369 113.034 437.95 101.841 437.95 88.0847V44.8982C437.95 40.601 439.065 36.5552 441.026 33.02C442.915 29.6192 445.587 26.6945 448.804 24.4801C452.94 21.6326 457.977 19.9607 463.406 19.9607H505.592C519.631 19.9607 531.05 31.1474 531.05 44.8982V88.0847Z" fill="black"/>
<path d="M87.5925 418.011H45.4075C24.8484 418.011 7.43071 431.594 1.862 450.16C1.28611 452.08 0.83657 454.054 0.52402 456.071C0.17955 458.298 0 460.577 0 462.898V506.085C0 530.848 20.3756 550.985 45.4075 550.985L66.5 550.989L87.5925 550.984C112.623 550.984 133 530.847 133 506.083V462.898C133 438.147 112.624 418.011 87.5925 418.011ZM113.05 506.085C113.05 519.842 101.631 531.035 87.5872 531.035L66.5 531.039L45.4129 531.034C31.3694 531.034 19.95 519.841 19.95 506.085V462.898C19.95 458.601 21.0645 454.555 23.0263 451.02C24.9149 447.619 27.5869 444.695 30.8041 442.48C34.9404 439.633 39.9771 437.961 45.4062 437.961H87.5925C101.631 437.961 113.05 449.147 113.05 462.898V506.085Z" fill="black"/>
<path d="M53.5902 95C44.9889 95 37.9922 88.1418 37.9922 79.7194V53.2726C37.9922 50.6415 38.6762 48.1654 39.8738 45.9988C41.0303 43.9137 42.6673 42.1217 44.639 40.7696C47.1715 39.0266 50.2586 38 53.5817 38H79.4181C88.0114 38 95.0081 44.8503 95.0081 53.272V79.7189C95.0081 88.1406 88.012 94.9994 79.4181 94.9994H66.5002H53.5902V95Z" fill="black"/>
<path d="M471.59 95C462.989 95 455.992 88.1418 455.992 79.7194V53.2726C455.992 50.6415 456.676 48.1654 457.874 45.9988C459.03 43.9137 460.667 42.1217 462.639 40.7696C465.171 39.0266 468.259 38 471.582 38H497.418C506.011 38 513.008 44.8503 513.008 53.272V79.7189C513.008 88.1406 506.012 94.9994 497.418 94.9994H484.5H471.59V95Z" fill="black"/>
<path d="M53.5902 513C44.9889 513 37.9922 506.142 37.9922 497.719V471.273C37.9922 468.641 38.6762 466.165 39.8738 463.999C41.0303 461.914 42.6673 460.122 44.639 458.77C47.1715 457.027 50.2586 456 53.5817 456H79.4181C88.0114 456 95.0081 462.85 95.0081 471.272V497.719C95.0081 506.141 88.012 512.999 79.4181 512.999H66.5002H53.5902V513Z" fill="black"/>
</svg>
