<svg xmlns="http://www.w3.org/2000/svg" xmlns:xlink="http://www.w3.org/1999/xlink" width="311.652" height="68.657" viewBox="0 0 311.652 68.657">
                            <defs>
                              <linearGradient id="linear-gradient" x2="0" y2="1" gradientUnits="objectBoundingBox">
                                <stop offset="0" stop-color="#113b81"></stop>
                                <stop offset="1" stop-color="#4c76bb"></stop>
                              </linearGradient>
                            </defs>
                            <g id="logo-white-footer" transform="translate(-275.086 -393.178)">
                              <g id="Group_1" data-name="Group 1" transform="translate(275.086 393.178)">
                                <g id="logo-loader" transform="translate(0 0)">
                                  <path id="Selection" d="M164,176.907h7.013c2.134,0,1.516-.554,2.96-2.107a12.659,12.659,0,0,1,3.873-2.911c2.453-1.007,4.3-.753,6.833-.331,4.871.811,11.3,2.8,13.486,7.687a17.9,17.9,0,0,1-2.158-1.433,14.816,14.816,0,0,0-5.754-2.343c2.316,2.832,3.123,4.429,3.384,8.092.056.8-.325,2.027-.1,2.7a10.279,10.279,0,0,0,1.674,2.158l3.981,4.5,8.293,9.35,4,4.463a19.121,19.121,0,0,0,3.4,2.066l4.136,2.338,10.969,6.184,6.653,3.83h-9.71c-3.415,0-5.585.268-8.811-1.305-3.087-1.505-4.555-3.906-6.835-6.247-1.029-1.054-1.678-2.309-3.235-2.338h-2.877c-1.795.013-1.983,1.029-2.74,2.517a57.771,57.771,0,0,1-3.913,7.193c.993,0,2.755-.144,3.578.376a1.864,1.864,0,0,1,.8,1.063A7.653,7.653,0,0,1,202.76,226a4.128,4.128,0,0,1-1.178,1.26l2.158.18h3.6a2.431,2.431,0,0,1,1.773.437c.96.815,1.02,3.791.284,4.758a1.786,1.786,0,0,1-.8.606l-3.417.313a6.74,6.74,0,0,1,1.048,1.1,10.175,10.175,0,0,1,.094,3.934,1.631,1.631,0,0,1-.493.777,3.465,3.465,0,0,1-2.268.486H176.947a2.54,2.54,0,0,1-2.336-.919,5.068,5.068,0,0,1-.361-2.677c.043-3.23,2.926-2.517,5.215-2.517v-.36c-2.17-.252-1.807-1.931-1.8-3.6a3.048,3.048,0,0,1,.21-1.431,2.717,2.717,0,0,1,1.408-1.086,34.178,34.178,0,0,0-5.754-.18,3.25,3.25,0,0,1-1.944-.361c-1.277-.876-1.266-4.148-.174-5.137a3.429,3.429,0,0,1,2.478-.615h7.732a2.335,2.335,0,0,0,1.189-.183,3.663,3.663,0,0,0,.856-1.255l1.527-2.877c.644-1.162,2.323-3.582,1.207-4.8a6.547,6.547,0,0,0-2.44-1l-4.5-1.69-3.057-1.451c-4.477-2.239-11.895-6.517-9.694-12.632a8.808,8.808,0,0,1,1.2-2.158,12.963,12.963,0,0,1,2.561-2.517l-.18,2.517c.009,2.041,1.084,5.936,2.517,7.372,0-3.661-.227-4.832.993-8.451l1.39-3.237a5.161,5.161,0,0,0,.681-1.669,8.824,8.824,0,0,0-.487-2.107c-.806-2.444-2.291-4.652-4.914-5.326L164,178.885Zm24.995,10.429-3.057-.18h-4.855l-1.789,4.136a17.889,17.889,0,0,0-1.268,7.552,7.925,7.925,0,0,0,.383,2.338c1.136,4.474,4.69,7.383,8.788,9.144a13.936,13.936,0,0,0,3.6,1.106l-1.394,2.7-2.258,4.5-1.383,2.338h8.631a2.624,2.624,0,0,0,1.325-.178,4.524,4.524,0,0,0,.843-1.26l1.5-2.877c.556-.984,1.935-3.206,1.555-4.316-.406-1.189-2.007-1.381-3.069-1.739a18.3,18.3,0,0,1-6.114-3.35c-4.88-4.177-5.3-9.068-3.519-14.871Z" transform="translate(-164 -171.187)" fill="url(#linear-gradient)"></path>
                                </g>
                              </g>
                              <path id="Selection-2" data-name="Selection" d="M101.66,12.074a6.1,6.1,0,0,1,5.08,1.078c3.164,2.7,1.266,8.1-3.971,7.887-4.111-.166-6.636-4.743-3.35-7.8A5.129,5.129,0,0,1,101.66,12.074Zm101.995,0a6.676,6.676,0,0,1,3.769.306,5.3,5.3,0,0,1,1.656,1.2c2.9,3.215.135,7.643-4.317,7.463-4.067-.164-6.652-4.656-3.508-7.705A5.507,5.507,0,0,1,203.655,12.074ZM214.52,24.152c-.6-.007-2.047.007-1.627-1.042.29-.732,1.308-.266,1.716-1.208l.523-3.736c.978-3.65,3.862-6.412,7.814-6.188,2.317.131,4.88,1.009,6.146,3.084s1.049,5.177-1.933,5.375a5.07,5.07,0,0,1-1.552-.137c-3.288-.936-1.007-5.428-3.366-6.474-1.565-.694-2.523,1.583-2.6,2.789-.129,2.055,1.375,4.911,3.306,5.745a11.967,11.967,0,0,0,3.388.275,9.714,9.714,0,0,0,7.273-4.246c.426-.576,1.47-2.827,2.33-2.4.625.31.534,1.592.534,2.18V22.6h3.991v1.552h-3.991V38.342c.047,3.31,2.106,2.849,4.435,2.661-.918,4.317-8.849,6.474-11.8,1.774a9.385,9.385,0,0,1-1.064-4.878V24.152h-5.1V41.89l.259,1.947,1.514,1.6H212.746l1.514-1.6.259-1.947ZM30.929,15.635c4.124.033,9.463.931,12.395,4.084,3.082,3.317,1.375,7.563-2.2,7.242-3.477-.313-3.512-3.042-4.543-5.248-1.1-2.348-3.4-4.51-6.1-4.647-2.678-.135-7.313,2.239-5.177,5.313a5.869,5.869,0,0,0,1.186,1.215c4.557,3.639,11.6,4.687,16.186,8.8,3.051,2.736,4.009,6.556.867,9.7a13.254,13.254,0,0,1-6.188,2.949c-4.466.965-11.055,1.078-15.3-.747-5.61-2.408-6.188-7.384-3.729-9.321A4.077,4.077,0,0,1,24.2,36.127c.785,1.333.705,2.565,1.909,4.432,2.007,3.117,5.736,4.827,9.164,2.865a4.622,4.622,0,0,0,1.131-.9c2.27-2.55-.714-4.96-2.812-6.255l-10.643-5.16a8.992,8.992,0,0,1-4.191-4.521,7.841,7.841,0,0,1-.244-2.661,6.609,6.609,0,0,1,2.226-4.84A12.781,12.781,0,0,1,24.5,16.817,19.37,19.37,0,0,1,30.929,15.635ZM134.254,22.6a8.985,8.985,0,0,0,6.67-3.557l2.118-2.931a1.766,1.766,0,0,1,.969-.386c.741,1.976.443,4.741.443,6.874h3.991c-.067,1.867-.384,1.552-4.213,1.552V37.234c0,1.04.064,2.594.843,3.37,1.055,1.053,2.486.35,3.814.621-2.858,5.55-10.2,5.381-12.273.887-.9-1.958-.809-4.756-.809-6.874V24.152h-1.552Zm40.576-6.652h12.2c-.395,1.144-.836.778-1.419,1.583a3.221,3.221,0,0,0-.355,1.965V40.781c0,2.215.579,2.958,2.882,2.878,3.335-.113,5.752-3.339,7.253-5.982.339-.6,1.231-3.106,2.155-2.59.514.286.346,1.863.286,2.368l-.665,5.987c-.073.6-.089,1.8-.672,2.024-.557.333-3.062-.027-3.922,0H174.83l1.388-1.612.386-2.186V19.717l-.386-2.186ZM58.423,22.03A12.041,12.041,0,0,1,71.547,37.455a9.821,9.821,0,0,1-1.965,3.769,10.478,10.478,0,0,1-3.177,2.818A11.883,11.883,0,0,1,62.193,45.6,12.576,12.576,0,0,1,50.924,42.3c-4.9-4.772-4.372-13.674,1.131-17.776A13.051,13.051,0,0,1,58.423,22.03ZM95.452,40.338c-.415,3.581-6.173,5.508-9.313,5.543-4.922.055-9.211-2.339-11-7.1a12.748,12.748,0,0,1-.747-5.543,11.693,11.693,0,0,1,3.557-8.166c3.907-3.647,11.406-4.4,15.492-.636,3.541,3.262,2.055,8.153-1.532,8.412-4.206.3-3.59-3.907-4.029-6.705-.166-1.053-1.058-2.849-2.4-2.359s-2.091,2.412-2.437,3.69c-.973,3.6-.366,8.166,2.064,11.086,1.559,1.874,3.78,3.514,6.359,3.022Zm37.029.222c-.871,2.226-3.384,3.723-5.543,4.525-6.47,2.406-13.47-.583-15.392-7.408a14.91,14.91,0,0,1-.5-3.769c.237-3.168.851-5.776,3.071-8.2,3.743-4.089,11.7-5.308,15.922-1.313,1.9,1.8,2.341,3.519,2.845,5.967.062.565.419,1.8,0,2.275-.326.468-1.408.386-1.953.386h-7.1a18.87,18.87,0,0,0-4.435.222l.962,2.882c1.222,2.84,3.913,5.7,7.242,5.534C129.239,41.577,131.174,40.336,132.48,40.56ZM252.213,22.03c2.727-.337,7.222.262,9.3,2.164,2.455,2.239,1.8,5.632-1.765,5.92a3.958,3.958,0,0,1-1.33-.111c-3.608-.933-1.528-4.51-4.217-6.053a2.75,2.75,0,0,0-3.887,1.754c-.5,2.04,1.958,3.333,3.448,4.027,2.907,1.355,6.634,2.772,8.667,5.324a5.736,5.736,0,0,1,1.3,4.175c-.138,3.379-2.916,5.412-5.978,6.155a22.41,22.41,0,0,1-5.765.5c-2.754-.033-6.5-.721-8.379-2.887-2.177-2.5-1.57-6.319,2.171-6.368a5.961,5.961,0,0,1,1.552,0c3.282,1.042,1.548,5.645,4.233,7.186a3.2,3.2,0,0,0,4.727-1.681c.7-1.9-1.333-3.614-2.752-4.494-3.275-2.035-8.35-2.9-9.625-7.055a4.945,4.945,0,0,1-.308-2,6.194,6.194,0,0,1,1.574-3.528,8.281,8.281,0,0,1,2.372-1.734A15.5,15.5,0,0,1,252.213,22.03ZM97.447,25.26a25.13,25.13,0,0,0,5.987-1.448,12.472,12.472,0,0,1,3.991-1.213V41.89l.355,1.965,1.419,1.583H101.66l-4.435-.222c.763-.816,1.494-.951,1.831-1.783a18.168,18.168,0,0,0,.164-3.761v-8.2c0-2.055.621-4.5-1.774-5.321Zm101.995,0a29.029,29.029,0,0,0,6.652-1.732c.63-.244,2.182-1.049,2.787-.792.654.277.539,1.494.539,2.08V41.668a3.7,3.7,0,0,0,.384,2.186c.565.8.938.439,1.39,1.583h-7.539l-4.435-.222c1.1-1.173,1.738-.772,1.774-2.661V31.247c0-1,.208-3.65-.355-4.386a2.111,2.111,0,0,0-1.2-.714Zm-50.554-2.439h8.647l4.656.222-1.069,1.776,1.111,3.767,2.619,7.317h.443l2.565-7.1c.37-.9,1.133-2.357.867-3.326-.47-1.7-2.029-1.206-2.545-2.661h8.426c-.395,1.1-1.8,1.295-2.621,2.069a9.524,9.524,0,0,0-2,3.474l-5.843,15.521c-1.007,2.645-1.987,6.035-3.8,8.2-3.326,3.976-10.206,4.073-11.015-.887-.4-2.437,2.071-4.415,3.993-3.479,1.375.672,2.069,2.632,3.326,3.251,2.224,1.1,4.481-3.359,4.592-4.65a4.83,4.83,0,0,0-.705-2.217l-2.02-4.213L154.5,31.469l-2.532-5.321a6.046,6.046,0,0,0-1.344-1.851C149.806,23.642,149.278,23.914,148.888,22.821ZM119.4,31.247c1,0,4.306.244,4.956-.355a2.823,2.823,0,0,0,.588-2.084c.018-1.517-.22-4.636-2-5.135-.976-.273-1.794.643-2.255,1.375C119.494,26.945,119.4,29.09,119.4,31.247ZM57.984,23.832c-2.075.874-2.022,3.5-2,5.419a38.207,38.207,0,0,0,2.067,10.643c.543,1.468,1.672,4.412,3.69,3.92,1.6-.39,1.767-3.45,1.783-4.807a37.059,37.059,0,0,0-2.04-11.752C60.844,25.633,60.028,23.706,57.984,23.832Z" transform="translate(322.497 392.259)" fill="#fff" stroke="#000" stroke-width="1"></path>
                            </g>
                          </svg>