<?xml version="1.0" encoding="utf-8"?>
<!-- Generator: Adobe Illustrator 19.2.1, SVG Export Plug-In . SVG Version: 6.00 Build 0)  -->
<svg version="1.1" id="layer" xmlns="http://www.w3.org/2000/svg" xmlns:xlink="http://www.w3.org/1999/xlink" x="0px" y="0px"
	 viewBox="0 0 652 652" style="enable-background:new 0 0 652 652;" xml:space="preserve">
<polygon points="343.2,391.8 280.4,345.8 266,353.7 266,391.8 250.9,391.8 250.9,299 266,299 266,338.2 337.3,299.4 365.7,299.4 
	293.7,338.6 366.3,391.8 "/>
<g>
	<path d="M40.8,380c-2.6,0-4.7-1.5-4.7-3.3V299H21v81c0,6.6,7.8,12,17.3,12c0,0,0.1,0,0.1,0v0H107v-12H40.8z"/>
	<path d="M507.4,308.6c0-5.6-6.8-10.1-15.2-10.1c-6.5,0-12.1,2.7-14.2,6.6h0l0,0c0,0,0,0.1-0.1,0.1L439,378.1l-38.9-72.9l0,0
		c-2.1-3.9-7.7-6.6-14.2-6.6c-8.4,0-15.2,4.5-15.2,10.1c0,0.3,0,0.6,0.1,0.9v82.3h15.1v-82.5l40.4,75.7l0,0c1.8,4,6.8,6.8,12.7,6.8
		c6.1,0,11.3-3.1,12.9-7.2l0,0l40.2-75.4v82.6h15.1v-82.3C507.3,309.2,507.4,308.9,507.4,308.6"/>
	<path d="M226,392h17.6l-51-87.2l0,0c-2.5-4.2-7.7-7.1-13.6-7.1c-5.6,0-10.5,2.6-13.2,6.4l0,0l-0.1,0.2c0,0-0.1,0.1-0.1,0.1l0,0
		L114.4,392H132l21.2-36.3h51.5L226,392z M160.2,343.7l18.8-32.2l18.8,32.2H160.2z"/>
	<path d="M619.7,310.9V299h-82.1c-9.5,0-17.3,5.3-17.3,11.9h0v69.9c0,6.6,7.8,12,17.3,11.9H621v-11.9h-85.7v-29.4h75.7v-11.9h-75.7
		v-28.5H619.7z"/>
	<polygon points="610,261.9 536.7,290.4 532.8,280 606.1,251.4 	"/>
</g>
</svg>
