<svg  version="1.1" id="layer" x="0px" y="0px" viewBox="0 0 215 25" xml:space="preserve" sodipodi:docname="lakme-salon-vector-logo.svg" inkscape:version="1.2.1 (9c6d41e410, 2022-07-14)" xmlns:inkscape="http://www.inkscape.org/namespaces/inkscape" xmlns:sodipodi="http://sodipodi.sourceforge.net/DTD/sodipodi-0.dtd" xmlns="http://www.w3.org/2000/svg" xmlns:svg="http://www.w3.org/2000/svg"><defs id="defs69"></defs><sodipodi:namedview id="namedview67" pagecolor="#ffffff" bordercolor="#000000" borderopacity="0.25" inkscape:showpageshadow="2" inkscape:pageopacity="0.0" inkscape:pagecheckerboard="0" inkscape:deskcolor="#d1d1d1" showgrid="false" inkscape:zoom="1.0888577" inkscape:cx="391.6949" inkscape:cy="205.72018" inkscape:window-width="1366" inkscape:window-height="705" inkscape:window-x="-8" inkscape:window-y="-8" inkscape:window-maximized="1" inkscape:current-layer="layer"></sodipodi:namedview><style type="text/css" id="style40">.st0{fill:#FFFFFF;}</style><path class="st0" d="m 141.90884,10.150744 c 0.1138,0 0.47413,0.17068 0.83447,0.77756 l 2.8258,4.72232 h -7.32053 l 2.8258,-4.72232 c 0.3793,-0.60688 0.70171,-0.77756 0.83446,-0.77756 m 2.67408,-0.3034498 c -0.7017,-1.17584 -1.63099,-1.83962 -2.67408,-1.83962 -1.02411,0 -1.97236,0.66378 -2.67407,1.83962 l -7.88949,13.1997098 -0.18965,0.32241 h 2.52236 l 0.0569,-0.11379 3.62233,-6.06883 h 9.14118 l 3.62234,6.06883 0.0759,0.11379 h 2.48443 l -0.17069,-0.32241 -7.92741,-13.1997098" id="path44" style="stroke-width:0.189651"></path><path class="st0" d="m 125.92126,14.285134 h -8.64809 c -1.23273,0 -2.21891,-1.00516 -2.21891,-2.21892 v -0.18965 c 0,-1.23273 1.00515,-2.2189198 2.21891,-2.2189198 h 11.0946 v -1.53617 h -11.28424 c -2.29479,0 -4.17233,1.72582 -4.17233,3.8499198 0,2.12409 1.87754,3.83094 4.17233,3.83094 h 8.34464 c 1.21377,0 2.21891,1.02412 2.21891,2.23789 v 1.66893 c 0,1.23273 -1.00514,2.21891 -2.21891,2.21891 h -12.36525 v 1.53618 h 12.87731 c 2.12409,0 3.86888,-1.72583 3.86888,-3.84992 v -1.47928 c 0,-2.14306 -1.74479,-3.84991 -3.88785,-3.84991" id="path46" style="stroke-width:0.189651"></path><path class="st0" d="m 157.59298,21.909104 c -0.39826,0 -0.70171,-0.32241 -0.70171,-0.72067 V 8.0835442 h -2.14305 V 21.093604 c 0,1.28963 1.06205,2.33271 2.35167,2.33271 h 12.15663 v -1.51721 h -11.66354" id="path48" style="stroke-width:0.189651"></path><path class="st0" d="M 212.06076,20.998774 V 8.2731942 8.0456142 h -2.0672 V 21.472904 l -0.30344,0.30344 -0.038,0.019 h -0.019 c -0.0759,0 -0.22757,-0.0569 -0.49309,-0.36034 l -0.0379,-0.019 c -0.18965,-0.18966 -0.62585,-0.66378 -1.23273,-1.34653 -0.68274,-0.75861 -1.51721,-1.82065 -2.42753,-2.93959 -0.72068,-0.91032 -1.49824,-1.82065 -2.21892,-2.67407 -1.95341,-2.25685 -4.41887,-5.1016198 -5.10161,-5.7274698 l -0.32241,-0.24654 -0.17069,-0.0759 -0.15171,-0.11378 -0.17069,-0.0948 c -0.30345,-0.11379 -0.58792,-0.17069 -0.89136,-0.17069 -1.27067,0 -2.31374,1.00516 -2.37064,2.2947898 l -0.019,0.0948 0.019,0.0759 v 12.74455 0.22759 h 2.0672 v -13.44627 l 0.28447,-0.3034398 h 0.0569 c 0.0759,0 0.22758,0.0759 0.49309,0.3224098 l 0.0569,0.038 c 0.20861,0.20862 0.60688,0.64481 1.2517,1.34652 1.00515,1.13791 2.56029,2.97752 4.62748,5.42402 0.85343,0.98618 1.72582,1.99134 2.46547,2.90167 1.27066,1.47927 2.25684,2.63614 2.65511,2.99648 l 0.32241,0.26551 0.17068,0.11379 0.15172,0.0948 0.18966,0.0759 c 0.28447,0.13276 0.58792,0.18965 0.87239,0.18965 1.27066,0 2.31374,-1.00515 2.37064,-2.29477 l 0.019,-0.0948 -0.0379,-0.0948" id="path50" style="stroke-width:0.189651"></path><path class="st0" d="m 188.33542,11.876564 v 7.85156 c 0,1.23272 -0.98619,2.21891 -2.21892,2.21891 h -11.03769 c -1.21377,0 -2.23788,-0.98619 -2.23788,-2.21891 v -7.85156 c 0,-1.23273 1.02411,-2.2189198 2.23788,-2.2189198 h 11.03769 c 1.23273,0 2.21892,0.9861898 2.21892,2.2189198 m -1.70686,-3.7550898 h -12.02388 c -2.14306,0 -3.88785,1.72582 -3.88785,3.8688798 v 7.64294 c 0,2.10512 1.74479,3.84991 3.88785,3.84991 h 12.02388 c 2.12408,0 3.86888,-1.72583 3.86888,-3.84991 v -7.64294 c -0.019,-2.1430598 -1.7448,-3.8688798 -3.86888,-3.8688798" id="path52" style="stroke-width:0.189651"></path><polygon class="st0" points="290.3,282.3 276.7,289.9 276.7,322.1 265.3,322.1 265.3,243.7 276.7,243.7 276.7,277.4 339,243.7 358.9,243.7 300.2,276.3 361.4,322.1 344.8,322.1 " id="polygon54" transform="matrix(0.18965102,0,0,0.18965102,-8.1215,-37.89376)"></polygon><path class="st0" d="m 4.2247813,23.192834 c -1.024115,0 -1.574103,-0.77756 -1.574103,-1.5741 V 8.3052242 h 2.180987 V 21.296324 H 18.467574 v 1.87755 H 4.2247813 Z" id="path56" style="stroke-width:0.189651"></path><path class="st0" d="m 26.319125,16.668844 4.153359,-7.1688198 h 0.01897 l 4.153359,7.1688198 z m 6.144693,-7.5860398 c -0.606882,-0.94826 -1.194801,-1.1948 -1.953406,-1.1948 h -0.07586 c -0.758601,0 -1.346518,0.22757 -1.953405,1.1948 L 20.269259,23.211804 h 2.332708 l 2.655113,-4.64645 h 10.430806 l 2.655114,4.64645 h 2.332706 z" id="path58" style="stroke-width:0.189651"></path><path class="st0" d="m 87.709164,23.192834 c -0.77756,0 -1.5172,-0.62585 -1.5172,-1.49824 V 9.8224442 c 0,-0.8724 0.72067,-1.49825 1.5172,-1.49825 H 101.85713 V 10.106914 H 88.240194 v 4.66541 h 10.260118 v 1.93445 H 88.240194 v 4.70334 h 13.616936 v 1.78272 z" id="path60" style="stroke-width:0.189651"></path><path class="st0" d="m 73.030174,18.546384 c 0.8155,0 1.27067,-0.36034 1.59308,-0.7017 0,0 6.75157,-7.07399 7.1119,-7.54812 h 0.019 v 12.87731 h 1.99134 v -13.16179 l -0.0379,-0.4361898 c -0.13276,-0.75861 -0.64481,-1.55514 -1.74479,-1.55514 h -0.0759 c -0.85344,0 -1.42239,0.64482 -1.51722,0.72067 l -7.33949,7.9084598 h -0.019 l -7.35846,-7.8894898 c -0.0759,-0.0759 -0.64481,-0.72068 -1.5172,-0.72068 h -0.0759 c -1.09997,0 -1.61203,0.79654 -1.74478,1.55514 l -0.0569,0.4361998 v 13.16178 h 1.99133 v -12.8773 h 0.019 c 0.36034,0.47412 7.11192,7.54811 7.11192,7.54811 0.32241,0.3224 0.77757,0.70171 1.59307,0.70171 h 0.0569 z" id="path62" style="stroke-width:0.189651"></path><polygon class="st0" points="510.5,220.4 511.6,229.3 571.2,221.8 570.1,212.9 " id="polygon64" transform="matrix(0.18965102,0,0,0.18965102,-8.1215,-37.89376)"></polygon></svg>