<?xml version="1.0" encoding="UTF-8"?>
<svg width="9px" height="11px" viewBox="0 0 9 11" version="1.1" xmlns="http://www.w3.org/2000/svg" xmlns:xlink="http://www.w3.org/1999/xlink">
    <title>i-weight</title>
    <g id="LandingPage" stroke="none" stroke-width="1" fill="none" fill-rule="evenodd" opacity="0.600000024">
        <g id="fish-Tile-view-with-outofStock-Copy" transform="translate(-29.000000, -438.000000)" fill="#000000" fill-rule="nonzero">
            <g id="Group-7" transform="translate(16.000000, 165.000000)">
                <g id="Group-16" transform="translate(13.000000, 272.000000)">
                    <path d="M0.492632302,1.0002855 C0.216678003,1.0045991 -0.00368444239,1.23151996 4.66898694e-05,1.5074821 C4.66898694e-05,1.92444523 0.282405568,2.27066197 0.526836323,2.39287727 C0.771267079,2.51509267 1.00080615,2.50819367 1.00080615,2.50819367 L3.50258507,2.50819367 L3.50258507,3.54701828 C1.52900588,3.80805135 4.66898694e-05,5.49907137 4.66898694e-05,7.54302375 L4.66898694e-05,10.0135304 C4.66898694e-05,10.5664236 0.447913004,11.014242 1.00080615,11.014242 L7.00507556,11.014242 C7.5579687,11.014242 8.00583738,10.5664236 8.00583738,10.0135304 L8.00583738,7.54302375 C8.00583738,5.49907137 6.47687598,3.80805135 4.50329664,3.54701828 L4.50329664,2.50819367 L7.00507556,2.50819367 C7.00507556,2.50819367 7.23461478,2.51509257 7.47904558,2.39287727 C7.72347639,2.27066197 8.00583738,1.92444523 8.00583738,1.5074821 C8.00833909,1.32703583 7.91353388,1.15919376 7.75767428,1.0682259 C7.60181468,0.977258034 7.40904801,0.977258034 7.25318841,1.0682259 C7.0973288,1.15919376 7.0025236,1.32703583 7.00507556,1.5074821 L4.08014425,1.5074821 C4.05205011,1.5027862 4.02360632,1.50049762 3.99512279,1.50064128 C3.97088326,1.50116662 3.94671396,1.50345292 3.92280587,1.5074821 L1.00080615,1.5074821 C1.00265818,1.37223577 0.949681436,1.24200002 0.853946868,1.14644955 C0.7582123,1.05089909 0.627874813,0.998173131 0.492632302,1.0002855 Z M4.00294085,5.51032837 C4.37320413,5.51032837 4.71571318,5.61760765 5.01342487,5.79373289 L3.6491738,7.15798446 C3.45353469,7.35362357 3.45353469,7.66987945 3.6491738,7.86551856 C3.74674318,7.96308794 3.87484977,8.01210729 4.00294085,8.01210729 C4.13103193,8.01210729 4.25913852,7.96308794 4.3567079,7.86551856 L5.72095947,6.50126749 C5.89708471,6.79897918 6.00436399,7.14148823 6.00436399,7.51175151 C6.00436399,8.61553637 5.10672571,9.51317465 4.00294085,9.51317465 C2.89915599,9.51317465 2.00151771,8.61553637 2.00151771,7.51175151 C2.00151771,6.40796665 2.89915599,5.51032837 4.00294085,5.51032837 Z" id="i-weight"></path>
                </g>
            </g>
        </g>
    </g>
</svg>