<?xml version="1.0" encoding="UTF-8"?> <svg xmlns="http://www.w3.org/2000/svg" xmlns:xlink="http://www.w3.org/1999/xlink" width="400" height="256" viewBox="0 0 400 256"><defs><path id="prefix__a" d="M0.042 0.314L290.74 0.314 290.74 251.291 0.042 251.291z"></path><path id="prefix__c" d="M.363 35.476V.327l.182.019v35.059c-.06.025-.121.048-.182.071z"></path></defs><g fill="none" fill-rule="evenodd"><mask id="prefix__b" fill="#fff"><use xlink:href="#prefix__a"></use></mask><path fill="#E1D3E1" d="M177.63 214.554s-32.45 20.118-46.728-1.947c-14.277-22.066-2.595-28.556-16.873-34.397-14.277-5.84-41.535-12.98-40.236-24.66 1.297-11.683 16.873-22.715 16.873-39.589 0-16.872-18.093-53.932-3.966-66.556 6.93-6.194 12.858-6.067 19.014-5.94 6.392.132 13.03.263 21.295-6.678C143.233 21.158 151.669 1.688 170.49.39c18.82-1.298 19.469 14.277 33.746 20.118 6.193 2.533 14.583.672 23.477-1.19 11.61-2.431 24.079-4.862 33.633 2.488 16.873 12.98 12.33 47.375 11.682 85.016-.65 37.64 28.332 63.908 13.461 75.338-14.87 11.43-101.073 6.434-108.86 32.393M106.44 241.478c0 5.42-23.828 9.813-53.22 9.813S0 246.898 0 241.478c0-5.42 23.828-9.814 53.22-9.814s53.22 4.394 53.22 9.814" mask="url(#prefix__b)"></path><path fill="#E1D3E1" d="M253.998 255.922c-51.373 0-93.02-4.776-93.02-10.666 0-5.89 41.647-10.666 93.02-10.666 51.374 0 93.02 4.776 93.02 10.666 0 5.89-41.646 10.666-93.02 10.666z"></path><path fill="#7E3E8F" d="M294.635 43.194v188.594c0 6.801-5.513 12.307-12.306 12.307h-95.322c-6.787 0-12.299-5.506-12.299-12.307V43.194c0-6.794 5.512-12.306 12.299-12.306h95.322c6.793 0 12.306 5.512 12.306 12.306"></path><path fill="#FFF" d="M244.504 236.318H224.84c-2.538 0-4.596-2.058-4.596-4.597 0-2.538 2.058-4.596 4.596-4.596h19.665c2.538 0 4.596 2.058 4.596 4.596 0 2.54-2.058 4.597-4.596 4.597"></path><path fill="#F1E8F1" d="M287.223 47.857v167.015c0 3.291-2.672 5.97-5.97 5.97h-93.17c-3.29 0-5.97-2.679-5.97-5.97V47.857c0-3.3 2.68-5.971 5.97-5.971h93.17c3.298 0 5.97 2.672 5.97 5.97"></path><path fill="#E5D7E5" d="M276.024 42.174l-93.91 155.515V47.857c0-3.3 2.678-5.971 5.97-5.971h86.564l1.376.288"></path><path fill="#7E3E8F" d="M264.004 115.502c0 16.404-13.298 29.702-29.702 29.702-16.404 0-29.702-13.298-29.702-29.702 0-16.404 13.298-29.702 29.702-29.702 16.404 0 29.702 13.298 29.702 29.702"></path><path fill="#FE8D23" d="M241.383 146.346c0 3.707-3.006 6.713-6.713 6.713-3.707 0-6.712-3.006-6.712-6.713 0-3.707 3.005-6.712 6.712-6.712s6.713 3.005 6.713 6.712"></path><path fill="#FFF" d="M234.366 149.525l-2.99-2.695c-.25-.226-.27-.61-.045-.86.227-.25.61-.269.86-.045l2.045 1.844 3.283-3.977c.214-.26.597-.296.857-.082.259.213.296.597.082.856l-4.092 4.959"></path><path fill="#7E3E8F" d="M251.237 200.886h1.477v-3.17h-1.216v-.79c.74-.112 1.13-.248 1.553-.5h.935v4.46h1.246v1.025h-3.995v-1.025M257.684 199.129c0-.398.281-.658.647-.658s.648.26.648.658c0 .4-.282.66-.648.66-.366 0-.647-.26-.647-.66zm1.624.016c0-1.424-.432-1.84-.977-1.84-.544 0-.976.416-.976 1.84 0 1.425.432 1.887.976 1.887.545 0 .977-.462.977-1.887zm-3.086 0c0-1.867.84-2.823 2.11-2.823s2.109.956 2.109 2.823c0 1.862-.84 2.87-2.11 2.87s-2.109-1.008-2.109-2.87zM262.869 199.129c0-.398.281-.658.647-.658s.648.26.648.658c0 .4-.282.66-.648.66-.366 0-.647-.26-.647-.66zm1.625.016c0-1.424-.433-1.84-.978-1.84-.545 0-.976.416-.976 1.84 0 1.425.431 1.887.976 1.887.545 0 .978-.462.978-1.887zm-3.086 0c0-1.867.838-2.823 2.108-2.823s2.11.956 2.11 2.823c0 1.862-.84 2.87-2.11 2.87s-2.108-1.008-2.108-2.87zM270.206 200.556c0-.59-.194-.757-.41-.757-.215 0-.408.167-.408.757 0 .587.193.778.409.778.215 0 .41-.191.41-.778zm-1.102-2.312l1.4-1.723.653.633-1.612 1.499-.441-.409zm-.59 2.312c0-.898.552-1.439 1.283-1.439.731 0 1.282.54 1.282 1.44 0 .891-.55 1.458-1.282 1.458-.731 0-1.282-.567-1.282-1.459zm-.498-2.795c0-.591-.194-.758-.41-.758-.215 0-.41.167-.41.758 0 .587.195.778.41.778.216 0 .41-.191.41-.778zm-1.69 0c0-.897.55-1.439 1.28-1.439s1.283.542 1.283 1.44c0 .891-.552 1.458-1.283 1.458-.73 0-1.28-.567-1.28-1.459zm-.068 3.28l1.613-1.5.44.408-1.398 1.724-.655-.632zM273.265 186.894c0 .906-.366 1.728-.957 2.318-.598.59-1.42.958-2.32.958h-70.641c-1.807 0-3.27-1.462-3.27-3.276 0-.901.368-1.722.959-2.313.59-.59 1.403-.957 2.31-.957h70.643c1.808 0 3.276 1.461 3.276 3.27"></path><path fill="#F1E8F1" d="M208.026 190.17L208.745 190.17 208.745 183.624 208.026 183.624zM221.305 190.17L222.025 190.17 222.025 183.624 221.305 183.624zM234.585 190.17L235.306 190.17 235.306 183.624 234.585 183.624zM247.872 190.17L248.593 190.17 248.593 183.624 247.872 183.624zM261.152 190.17L261.873 190.17 261.873 183.624 261.152 183.624z"></path><path fill="#7E3E8F" d="M42.54 240.985H9.97c-.406-1.405-.82-4.18 1.434-5.983 3.11-2.49 18.07-7.723 18.07-7.723l10.839-.378s4.286 10.255 2.225 14.084"></path><path fill="#FE8D23" d="M40.562 217.932l-.124 9.72s-1.994 2.399-5.64 2.399c-3.645 0-5.326-2.772-5.326-2.772l.498-9.223 10.592-.124"></path><path fill="#7E3E8F" d="M65.044 240.985h32.568c.406-1.405.82-4.18-1.434-5.983-3.108-2.49-18.07-7.723-18.07-7.723l-10.839-.378s-4.286 10.255-2.225 14.084"></path><path fill="#FE8D23" d="M67.02 217.932l.125 9.72s1.994 2.399 5.64 2.399c3.645 0 5.327-2.772 5.327-2.772l-.499-9.223-10.592-.124"></path><path fill="#770D35" d="M35.952 137.345l-10.635 80.753s4.985.664 10.966.664c5.982 0 8.31-.664 8.31-.664l7.975-65.134 11.63 66.463s6.315 1.662 9.638 1.662c3.323 0 6.978-.997 6.978-.997l-8.64-80.753-36.222-1.994"></path><path fill="#3F367E" d="M36.45 153.486c-.065 0-.129-.033-.164-.093-.053-.09-.022-.207.068-.261 5.473-3.22 4.24-12.51 4.228-12.604-.015-.104.058-.2.161-.214.1-.017.2.057.215.16.013.097 1.281 9.636-4.412 12.986l-.096.026M68.518 154.65l-.112-.038c-3.872-2.862-2.303-12.09-2.235-12.48.018-.106.116-.177.22-.156.104.018.173.117.155.22-.017.094-1.597 9.387 2.086 12.11.084.062.102.181.04.266l-.154.077M53.98 141.19c-.674 0-1.222.548-1.222 1.222 0 .675.548 1.223 1.222 1.223.674 0 1.222-.548 1.222-1.223 0-.674-.548-1.222-1.222-1.222zm0 2.824c-.884 0-1.602-.718-1.602-1.602 0-.883.718-1.601 1.602-1.601.883 0 1.602.718 1.602 1.601 0 .884-.719 1.602-1.602 1.602z"></path><path fill="#CEC8DA" d="M173.467 135.747h1.241v-6.914h-1.241v6.914zm0-82.49h1.241v-.04h-1.241v.04z"></path><path fill="#2B2648" d="M174.708 135.747h7.406v-6.914h-7.406v6.914zm0-82.49h7.406v-.04h-7.406v.04z"></path><path fill="#C7AAC7" d="M192.381 135.747h-10.267v-6.914h5.085c2.882 0 5.23-2.341 5.23-5.231V58.488c0-2.89-2.348-5.231-5.23-5.231h-5.085v-.04h10.267c3.153 0 5.713 2.553 5.713 5.713v71.104c0 3.16-2.56 5.713-5.713 5.713"></path><path fill="#D683A3" d="M125.016 55.265s-10.468 17.114-21.607 25.921c-11.131 8.8-28.574 15.118-28.574 15.118l-.499 43.036s-8.479 1.497-17.948.662c-9.47-.827-22.599-2.823-22.599-2.823s.5-48.854 4.321-54.83c2.889-4.515 7.86-5.627 10.12-5.898.734-.085 1.183-.085 1.183-.085l2.168.07 9.976.343h.065s1.803-.135 4.806-.57c4.87-.72 12.9-2.247 21.528-5.327 13.963-4.985 35.726-22.933 35.726-22.933l1.334 7.316"></path><path fill="#B56282" d="M64.863 76.447l-7.598 12.626L48.23 76.45c.734-.085 1.183-.085 1.183-.085l2.168.07 5.684 8.4 4.292-8.057h.065s.24.103 3.241-.332"></path><path fill="#FFFFFE" d="M55.475 82.055L56.804 79.77 58.84 81.889 61.622 76.779 56.597 75.284 51.581 76.437 55.475 82.055"></path><path fill="#D7B5DF" fill-rule="nonzero" d="M192.429 58.488v65.114c0 2.89-2.348 5.23-5.23 5.23H84.679c-2.89 0-5.231-2.34-5.231-5.23V58.488c0-2.89 2.341-5.231 5.23-5.231h102.52c2.883 0 5.23 2.341 5.23 5.23"></path><path fill="#A67CB1" fill-rule="nonzero" d="M88.141 70.273L153.835 70.273 153.835 66.112 88.141 66.112z"></path><path fill="#EEB177" d="M89.557 90.896c-.248 0-.495-.045-.72-.134V87.08c.225-.09.472-.135.72-.135h7.565c1.077 0 1.953.898 1.953 1.976 0 1.077-.876 1.975-1.953 1.975h-7.565"></path><path fill="#EEB177" d="M107.268 85.688v2.268h-6.083c-.405-1.864-2.088-3.256-4.063-3.256h-7.565c-.18 0-.382.023-.562.068.36-1.28 1.55-2.223 2.964-2.223h12.189c1.729 0 3.12 1.415 3.12 3.143"></path><path fill="#FE8D23" d="M101.095 90.2h6.173v2.896c0 1.729-1.391 3.143-3.12 3.143h-12.19c-1.728 0-3.12-1.414-3.12-3.143v-.022c.247.045.471.067.719.067h7.565c1.863 0 3.456-1.234 3.973-2.941"></path><path fill="#A67CB1" fill-rule="nonzero" d="M88.141 108.88L179.4 108.88 179.4 103.269 88.141 103.269zM142.521 118.987L179.4 118.987 179.4 113.748 142.521 113.748z"></path><path fill="#C593D1" d="M79.448 100.275V58.488c0-2.89 2.341-5.231 5.23-5.231h57.945c-2.697 3.585-6.251 8.077-10.455 12.855H88.141v4.161h40.26c-6.565 7.043-14.35 14.306-22.736 19.927h-4.57c-.517 1.707-2.11 2.941-3.973 2.941h-7.565c-.248 0-.472-.022-.72-.067v.022c0 1.729 1.393 3.143 3.122 3.143h2.958c-5.083 2.277-10.28 3.743-15.47 4.036m10.11-13.33c-.248 0-.495.045-.72.135v3.682c.225.09.472.134.72.134h7.565c1.077 0 1.953-.898 1.953-1.975 0-1.078-.876-1.976-1.953-1.976h-7.565m0-2.245h7.565c1.975 0 3.658 1.392 4.063 3.256h6.083v-2.268c0-1.728-1.391-3.143-3.12-3.143h-12.19c-1.414 0-2.603.943-2.963 2.223.18-.045.381-.068.562-.068"></path><path fill="#A67CB1" d="M128.401 70.273h-40.26v-4.161h44.027c-1.204 1.369-2.46 2.76-3.767 4.161"></path><path fill="#FE8D23" d="M97.122 90.896h-7.565c-.248 0-.495-.045-.72-.134V87.08c.225-.09.472-.135.72-.135h7.565c1.077 0 1.953.898 1.953 1.976 0 1.077-.876 1.975-1.953 1.975"></path><path fill="#FE8D23" d="M107.268 87.956h-6.083c-.405-1.864-2.088-3.256-4.063-3.256h-7.565c-.18 0-.382.023-.562.068.36-1.28 1.55-2.223 2.964-2.223h12.189c1.729 0 3.12 1.415 3.12 3.143v2.268M94.917 96.239h-2.958c-1.73 0-3.121-1.414-3.121-3.143v-.022c.247.045.471.067.719.067h7.565c1.863 0 3.456-1.234 3.973-2.941h4.57c-3.493 2.343-7.092 4.401-10.748 6.039"></path><path fill="#A67CB1" fill-rule="nonzero" d="M178.73 74.213h-17.561c-1.702 0-3.082-1.38-3.082-3.082v-6.937c0-1.703 1.38-3.083 3.082-3.083h17.56c1.703 0 3.083 1.38 3.083 3.083v6.937c0 1.702-1.38 3.082-3.083 3.082"></path><path fill="#FE8D23" d="M76.245 133.274s10.385 5.234 11.548 4.07c1.163-1.163-.914-1.828-.914-1.828s2.992 1.496 3.655.582c.666-.914-2.243-2.741-2.243-2.741s3.989 1.661 4.57.415c.582-1.246-6.231-3.738-6.231-3.738s5.4 1.163 5.65 0c.249-1.163-4.57-2.326-4.57-2.326s2.659-.5 2.077-1.995c-.582-1.495-10.302-.249-10.302-.249l-3.24 7.81"></path><path fill="#B56282" d="M40.936 79.48s5.733 3.863 4.113 13.832c0 0-3.116 10.842 4.735 16.076 7.852 5.234 30.283 15.702 30.283 15.702l-3.988 8.475s-31.778-5.235-39.629-16.077c-7.851-10.841-6.355-29.16 4.486-38.009"></path><path fill="#E56F88" d="M40.838 79.626l.044.03c.458.338 4.278 3.324 4.279 10.23 0 1.041-.087 2.173-.286 3.398l.174.028-.17-.048c-.003.01-.616 2.146-.616 4.99 0 .5.019 1.021.064 1.557.007.097.093.169.19.161.096-.008.168-.093.16-.19-.043-.525-.062-1.037-.062-1.528 0-1.397.151-2.623.302-3.498.076-.438.151-.787.208-1.028.056-.24.093-.366.093-.367l.003-.01.001-.01c.202-1.244.29-2.394.29-3.455.002-7.517-4.451-10.537-4.477-10.552-.08-.054-.19-.033-.245.048-.054.08-.033.19.048.244"></path><path fill="#FE8D23" d="M123.684 47.95s.186 11.59 2.43 11.59c2.243 0 1.059-7.04 1.059-7.04s.374 7.601 2.243 7.54c1.87-.063.81-8.164.81-8.164s.623 7.976 2.492 7.851c1.87-.124.187-8.224.187-8.224s.873 6.417 2.866 6.23c1.995-.186 1.434-9.782-.249-10.467-1.682-.686-4.673-1.433-7.664-.81-2.99.623-4.174 1.495-4.174 1.495M61.622 58.588v18.19s-.828 1.327-5.898 1.327c-5.07 0-5.733-1.326-5.733-1.326v-18.19h11.63"></path><path fill="#E67812" d="M61.622 67.787v5.484c-.65-.036-1.376-.079-2.183-.15-10.34-.87-8.536-14.512-8.536-14.512l10.719 9.178"></path><path fill="#FE8D23" d="M72.174 54.182c-.25-1.551-1.744-1.455-2.323-1.357v-2.63c0-2.902-1.305-5.498-3.366-7.238-1.647-1.39-3.78-2.232-6.111-2.232-5.228 0-9.47 4.236-9.47 9.47v2.624c-.45-.235-.949-.385-1.49-.385-1.79 0-2.747 1.625-2.347 3.43.292 1.298 1.098 2.353 2.902 2.81.286.07.6.128.934.17v2.318c0 5.227 4.243 9.47 9.47 9.47 5.235 0 9.478-4.243 9.478-9.47v-4.055c.732-.344 2.574-1.372 2.323-2.925"></path><path fill="#7E3E8F" d="M71.59 36.61c-.748-1.747-3.486 1.249-3.486 1.249s1.077-2.66.292-3.409c-.792-.748-2.824 1.077-2.824 1.077s-2.788-1.904-7.815-.706c-4.742 1.14-6.269 7.701-6.419 8.414-.235-.064-.47-.1-.72-.1-2.11 0-3.822 2.375-3.822 5.314 0 2.937 2.126 6.19 4.236 6.19s3.401-3.253 3.401-6.19c0-.236-.014-.471-.035-.692 1.17.45 2.78.735 4.984.692 3.231-.065 5.698-.471 7.573-1.106.564 1.319 1.463 2.674 2.896 3.608v-.755c0-1.348-.285-2.625-.792-3.787 5.284-3.038 3.074-8.529 2.531-9.798"></path><path fill="#7E3E8F" d="M69.85 61.162c0 5.227-4.242 9.47-9.476 9.47-5.228 0-9.47-4.243-9.47-9.47V52.82l2.203.613s1.205 9.68 10.676 9.556c4.54-.06 6.068-1.826 6.068-1.826"></path><g transform="translate(294.272 188.672)"><mask id="prefix__d" fill="#fff"><use xlink:href="#prefix__c"></use></mask><path fill="#70838C" d="M0.363 35.476L0.545 35.476 0.545 0.327 0.363 0.327z" mask="url(#prefix__d)"></path></g><path fill="#7E3E8F" d="M290.33 224.408l-2.959-34.616c1.118-.68 2.794-.93 4.654-.93.843 0 1.725.051 2.61.137v35.149c-.85.315-1.735.42-2.535.42-.674 0-1.288-.074-1.77-.16zM310.785 54.925s-2.52-.183-5.295 1.665c-2.818 1.874-5.521 4.02-5.496 11.4.028 7.732-.873 7.3-4.12 12.318-1.658 2.56-6.035 9.68 4.012 10.866 10.01 1.18 15.235-2.43 22.412-2.162 7.135.266 9.083-5.387 7.41-8.335-1.647-2.903-2.6-11.103-1.305-14.092 2.893-6.68-6.698-19.109-17.618-11.66"></path><path fill="#770D35" d="M347.525 184.73c-1.486 12.262-32.205 24.226-32.205 24.226l-4.384-21.272 17.406-4.628-13.355-16.977 1.253-16.12c4.217.087 12.609-1.172 12.609-1.172s19.689 27.587 18.676 35.943"></path><path fill="#6B2E7B" d="M289.501 190.053l2.643 30.94c1.367.272 4.036.44 5.567-1.847 2.112-3.155 5.871-17.794 5.871-17.794l-.52-10.328s-10.09-3.24-13.561-.97"></path><path fill="#EFA89A" d="M311.563 190.06l-9.225.907s-2.116 2.089-1.822 5.552c.296 3.463 3.067 4.836 3.067 4.836l10.226-1.35-2.246-9.945"></path><path fill="#7E3E8F" d="M301.821 246.154h30.355c.379-1.31.765-3.894-1.335-5.576-2.899-2.32-16.844-7.198-16.844-7.198l-10.103-.352s-3.994 9.557-2.073 13.126"></path><path fill="#FE8D23" d="M303.663 224.668l.116 9.06s1.86 2.235 5.256 2.235c3.397 0 4.966-2.584 4.966-2.584l-.465-8.596-9.873-.115"></path><path fill="#770D35" d="M319.284 226.996L299.164 227.047 296.418 147.17 319.153 149.061 319.284 226.996"></path><path fill="#FE8D23" d="M377.478 111.829c-.31-.948-4.564.79-4.564.79s3.481-1.422 3.25-2.37c-.234-.948-6.575 1.422-6.575 1.422s2.32-1.185 1.779-1.817c-.542-.632-6.033 1.422-6.033 1.422s-18.642 3.834-25.894 3.139c-8.962-.855-11.794-13.586-11.794-13.586-3.13-9.108-11.008-10.302-11.008-10.302-5.123 12.324 4.12 27.083 15.605 32.654 9.586 4.65 31.55-4.139 33.452-4.808 1.192-.11 10.36-1.002 9.925-1.962-.428-.949-2.502-.416-2.817-.328.433-.123 3.959-1.147 3.668-1.963-.288-.811-3.876.304-4.354.456.549-.177 5.653-1.85 5.36-2.747"></path><path fill="#D683A3" d="M331.194 148.264s-1.536.412-3.992.826c-2.782.47-6.745.956-10.962.87-.94-.03-1.89-.073-2.847-.16-9.028-.79-22.213-3.137-22.213-3.137s.855-10.52 1.355-17.729c.963-14.048 4.255-30.011 6.267-34.003.703-1.393 1.18-2.533 2.334-3.337 3.151-2.194 7.679-2.406 7.679-2.406l9.511.326h.059l.022.028c.506.457 8.78 6.874 9.11 15.455.278 7.255 3.677 43.267 3.677 43.267"></path><path fill="#FE8D23" d="M336.853 138.365l.895-1.928s-21.723-5.986-29.21-10.976c-7.485-4.991-3.48-20.678-3.48-20.678 1.545-9.506-3.922-13.19-3.922-13.19-10.337 8.438-9.655 28.646-2.169 38.984 7.486 10.337 35.9 12.063 35.9 12.063l.01-.02c1.784.628 8.988 2.97 13.316 1.508 4.45-1.502-8.57-5.04-11.34-5.763"></path><path fill="#7E3E8F" d="M338.295 140.559l2.796-4.3c.263-.405.755-.595 1.222-.473l14.898 3.909c.67.175 1.02.91.736 1.54l-2.149 4.772c-.227.506-.79.769-1.323.618l-15.545-4.38c-.726-.204-1.046-1.054-.635-1.686"></path><path fill="#F1E8F1" d="M340.438 140.554l2.204-3.389c.207-.319.596-.469.964-.372l11.742 3.08c.527.139.804.718.58 1.215l-1.694 3.761c-.18.398-.623.605-1.043.487l-12.253-3.452c-.572-.162-.824-.831-.5-1.33"></path><path fill="#FE8D23" d="M337.253 136.27s5.903 1.354 6.338 2.37c.436 1.015-7.377 1.07-7.377 1.07l1.04-3.44M318.387 72.171v17.346s-.789 1.265-5.623 1.265c-4.834 0-5.467-1.265-5.467-1.265V72.171h11.09"></path><path fill="#E67812" d="M318.387 80.942v5.23c-.619-.035-1.312-.076-2.08-.143-9.86-.83-8.14-13.837-8.14-13.837l10.22 8.75"></path><path fill="#FE8D23" d="M326.232 70.756v3.87c0 4.984-4.044 9.027-9.035 9.027-4.985 0-9.027-4.043-9.027-9.028v-2.21c-.32-.043-.623-.094-.892-.159-1.724-.435-2.492-1.442-2.768-2.681-.383-1.724.529-3.274 2.239-3.274.515 0 .993.145 1.42.37v-2.5c0-4.993 4.043-9.035 9.028-9.035 2.224 0 4.26.804 5.824 2.13 1.464 1.231 2.522 2.913 2.971 4.825.16.666.24 1.363.24 2.08v2.506c.557-.094 1.977-.188 2.216 1.29.24 1.485-1.514 2.463-2.216 2.79"></path><path fill="#7E3E8F" d="M326.133 62.058c-.451-1.927-1.496-3.622-3.018-4.903-1.647-1.395-3.749-2.164-5.919-2.164-5.057 0-9.171 4.118-9.171 9.18v2.743l.212-.116c.041-.022 3.956-2.17 5.658-5.572.526.439 2.46 1.774 6.486 1.774.197 0 .397-.004.603-.01 1.913-.062 3.613-.318 5.051-.76l.129-.04-.031-.132"></path><path fill="#BB5E07" d="M384.865 94.683c0 5.528-4.482 10.009-10.01 10.009-5.527 0-10.01-4.481-10.01-10.009 0-5.528 4.483-10.01 10.01-10.01 5.528 0 10.01 4.482 10.01 10.01"></path><path fill="#FE8D23" d="M383.144 94.683c0 4.577-3.711 8.288-8.29 8.288-4.577 0-8.287-3.71-8.287-8.288s3.71-8.289 8.288-8.289 8.289 3.711 8.289 8.29"></path><path fill="#FFF" d="M377.414 95.95c0-2.123-3.398-2.02-3.398-2.849 0-.338.287-.534.807-.534.464 0 .815.105 1.182.308.267.149.601.092.802-.14l.058-.068c.257-.298.188-.749-.14-.966-.364-.243-.788-.416-1.302-.484v-.947c0-.314-.254-.568-.568-.568-.313 0-.567.254-.567.568v.963c-1.183.185-1.916.886-1.916 1.892 0 2.145 3.398 1.972 3.398 2.946 0 .333-.296.531-.86.531-.554 0-1.051-.155-1.58-.427-.3-.156-.668-.068-.85.217l-.08.125c-.199.308-.106.726.215.905.516.291 1.125.48 1.673.54v1.133c0 .313.254.567.567.567.314 0 .568-.254.568-.567v-1.173c1.29-.218 1.991-.997 1.991-1.972"></path><path fill="#BB5E07" d="M398.292 70.322c0 5.528-4.482 10.01-10.01 10.01s-10.01-4.482-10.01-10.01c0-5.529 4.482-10.01 10.01-10.01s10.01 4.481 10.01 10.01"></path><path fill="#FE8D23" d="M396.57 70.322c0 4.577-3.711 8.288-8.289 8.288-4.577 0-8.288-3.71-8.288-8.288s3.711-8.288 8.288-8.288c4.578 0 8.29 3.71 8.29 8.288"></path><path fill="#FFF" d="M390.841 71.59c0-2.124-3.398-2.021-3.398-2.85 0-.337.287-.534.807-.534.464 0 .816.105 1.181.309.268.148.603.09.802-.14l.059-.069c.257-.297.188-.748-.14-.966-.365-.242-.788-.416-1.303-.483v-.947c0-.314-.254-.568-.568-.568-.313 0-.566.254-.566.568v.962c-1.183.185-1.917.887-1.917 1.893 0 2.144 3.399 1.972 3.399 2.945 0 .334-.296.531-.86.531-.554 0-1.053-.154-1.58-.427-.3-.155-.668-.067-.85.217l-.081.125c-.198.308-.104.726.215.906.517.29 1.125.479 1.674.54v1.133c0 .313.253.567.566.567.314 0 .568-.254.568-.567v-1.173c1.292-.219 1.992-.998 1.992-1.972"></path><path fill="#BB5E07" d="M365.346 77.717c0 5.528-4.482 10.01-10.01 10.01s-10.01-4.482-10.01-10.01c0-5.527 4.482-10.01 10.01-10.01s10.01 4.483 10.01 10.01"></path><path fill="#FE8D23" d="M363.624 77.717c0 4.578-3.71 8.289-8.288 8.289-4.577 0-8.289-3.711-8.289-8.289 0-4.577 3.712-8.288 8.29-8.288 4.577 0 8.287 3.711 8.287 8.288"></path><path fill="#FFF" d="M357.895 78.986c0-2.124-3.398-2.022-3.398-2.85 0-.338.287-.534.808-.534.464 0 .815.105 1.18.308.268.149.603.091.802-.14l.06-.068c.256-.298.187-.749-.14-.966-.366-.243-.789-.416-1.303-.484v-.947c0-.314-.254-.568-.568-.568-.314 0-.567.254-.567.568v.963c-1.183.185-1.916.886-1.916 1.892 0 2.144 3.398 1.972 3.398 2.946 0 .333-.296.53-.86.53-.553 0-1.052-.153-1.58-.426-.3-.156-.668-.068-.85.217l-.081.124c-.198.309-.104.727.215.906.517.291 1.126.48 1.674.54v1.133c0 .313.253.568.567.568.314 0 .568-.255.568-.568v-1.173c1.29-.218 1.991-.997 1.991-1.971"></path><path fill="#E1D3E1" d="M367.871 59.822L369.047 54.071 370.935 59.783 375.08 61.67 370.895 63.63 368.937 69.38 367.832 63.668 362.904 61.781 367.871 59.822M395.116 87.031L395.785 83.765 396.856 87.009 399.21 88.081 396.834 89.193 395.721 92.458 395.094 89.215 392.296 88.144 395.116 87.031M352.706 95.801L353.374 92.535 354.446 95.779 356.801 96.851 354.425 97.963 353.312 101.229 352.684 97.986 349.885 96.913 352.706 95.801"></path><path fill="#FFF" d="M232.57 105.6c.28 0 .542.144.693.38l5.002 7.49c.018.03.052.048.087.046l3.336-.087c.165-.01.75-.016.926-.016 2.282 0 3.716.74 3.716 1.65 0 .91-1.44 1.645-3.716 1.645-.175 0-.756-.005-.926-.015l-3.336-.087c-.035-.001-.068.016-.087.046l-5.007 7.484c-.15.238-.412.381-.694.38h-1.218c-.288 0-.386-.287-.283-.555l2.576-7.345c.012-.031.008-.066-.01-.094-.02-.027-.05-.044-.083-.045l-6.256-.139c-.132-.003-.257.056-.34.16l-1.937 2.349c-.157.197-.395.313-.648.313h-.858c-.067.001-.13-.03-.169-.085-.039-.054-.049-.124-.026-.187l1.022-3.532c.078-.196.078-.415 0-.611l-1.022-3.532c-.023-.063-.013-.132.026-.187.04-.054.102-.086.169-.085h.863c.253-.002.493.114.648.313l1.902 2.314c.081.104.207.163.34.159l6.291-.093c.034 0 .065-.017.083-.044.019-.028.022-.063.01-.094l-2.576-7.34c-.102-.268-.005-.556.283-.556h1.218z"></path></g></svg> 