<svg width="59" height="60" viewBox="0 0 59 60" fill="none" xmlns="http://www.w3.org/2000/svg">
<path d="M10.7252 53.0885V50.0015C10.7252 48.8181 10.0169 48.0463 8.80264 48.0463C8.19552 48.0463 7.5378 48.2521 7.08246 48.921C6.7283 48.355 6.22236 48.0463 5.46346 48.0463C4.95752 48.0463 4.45159 48.2007 4.04684 48.7666V48.1492H2.98438V53.0885H4.04684V50.3616C4.04684 49.487 4.50218 49.0754 5.21049 49.0754C5.9188 49.0754 6.27296 49.5384 6.27296 50.3616V53.0885H7.33542V50.3616C7.33542 49.487 7.84136 49.0754 8.49908 49.0754C9.20739 49.0754 9.56154 49.5384 9.56154 50.3616V53.0885H10.7252ZM26.4598 48.1492H24.7396V46.6572H23.6772V48.1492H22.7159V49.1268H23.6772V51.3907C23.6772 52.5226 24.1325 53.1914 25.3467 53.1914C25.8021 53.1914 26.308 53.0371 26.6622 52.8313L26.3586 51.9052C26.055 52.111 25.7009 52.1624 25.4479 52.1624C24.942 52.1624 24.7396 51.8537 24.7396 51.3392V49.1268H26.4598V48.1492ZM35.4655 48.0463C34.8583 48.0463 34.4536 48.355 34.2006 48.7666V48.1492H33.1382V53.0885H34.2006V50.3102C34.2006 49.487 34.5548 49.0239 35.2125 49.0239C35.4149 49.0239 35.6678 49.0754 35.8702 49.1268L36.1738 48.0978C35.9714 48.0463 35.6678 48.0463 35.4655 48.0463ZM21.8558 48.5608C21.3498 48.2007 20.6415 48.0463 19.8826 48.0463C18.6684 48.0463 17.8589 48.6637 17.8589 49.6413C17.8589 50.4645 18.466 50.9276 19.5285 51.0819L20.0344 51.1334C20.5909 51.2363 20.8945 51.3907 20.8945 51.6479C20.8945 52.0081 20.4898 52.2653 19.7814 52.2653C19.0731 52.2653 18.5166 52.0081 18.1625 51.7508L17.6565 52.574C18.213 52.9856 18.9719 53.1914 19.7309 53.1914C21.1475 53.1914 21.957 52.5226 21.957 51.5965C21.957 50.7218 21.2993 50.2587 20.2874 50.1044L19.7814 50.0529C19.3261 50.0015 18.9719 49.8986 18.9719 49.5899C18.9719 49.2297 19.3261 49.0239 19.8826 49.0239C20.4898 49.0239 21.0969 49.2812 21.4004 49.4355L21.8558 48.5608ZM50.087 48.0463C49.4799 48.0463 49.0751 48.355 48.8222 48.7666V48.1492H47.7597V53.0885H48.8222V50.3102C48.8222 49.487 49.1763 49.0239 49.834 49.0239C50.0364 49.0239 50.2894 49.0754 50.4918 49.1268L50.7953 48.0978C50.5929 48.0463 50.2894 48.0463 50.087 48.0463ZM36.5279 50.6189C36.5279 52.111 37.5398 53.1914 39.1082 53.1914C39.8165 53.1914 40.3224 53.0371 40.8284 52.6255L40.3224 51.7508C39.9177 52.0595 39.5129 52.2139 39.0576 52.2139C38.1975 52.2139 37.5904 51.5965 37.5904 50.6189C37.5904 49.6928 38.1975 49.0754 39.0576 49.0239C39.5129 49.0239 39.9177 49.1783 40.3224 49.487L40.8284 48.6123C40.3224 48.2007 39.8165 48.0463 39.1082 48.0463C37.5398 48.0463 36.5279 49.1268 36.5279 50.6189ZM46.3431 50.6189V48.1492H45.2806V48.7666C44.9265 48.3036 44.4205 48.0463 43.7628 48.0463C42.3968 48.0463 41.3343 49.1268 41.3343 50.6189C41.3343 52.111 42.3968 53.1914 43.7628 53.1914C44.4711 53.1914 44.9771 52.9342 45.2806 52.4711V53.0885H46.3431V50.6189ZM42.4474 50.6189C42.4474 49.7442 43.0039 49.0239 43.9146 49.0239C44.7747 49.0239 45.3818 49.6928 45.3818 50.6189C45.3818 51.4936 44.7747 52.2139 43.9146 52.2139C43.0039 52.1624 42.4474 51.4936 42.4474 50.6189ZM29.7484 48.0463C28.3318 48.0463 27.3199 49.0754 27.3199 50.6189C27.3199 52.1624 28.3318 53.1914 29.799 53.1914C30.5073 53.1914 31.2156 52.9856 31.7721 52.5226L31.2662 51.7508C30.8614 52.0595 30.3555 52.2653 29.8496 52.2653C29.1919 52.2653 28.5341 51.9566 28.3824 51.0819H31.9745V50.6703C32.0251 49.0754 31.1144 48.0463 29.7484 48.0463ZM29.7484 48.9725C30.4061 48.9725 30.8614 49.3841 30.9626 50.1558H28.433C28.5341 49.487 28.9895 48.9725 29.7484 48.9725ZM56.1076 50.6189V46.1941H55.0452V48.7666C54.691 48.3036 54.1851 48.0463 53.5274 48.0463C52.1613 48.0463 51.0989 49.1268 51.0989 50.6189C51.0989 52.111 52.1613 53.1914 53.5274 53.1914C54.2357 53.1914 54.7416 52.9342 55.0452 52.4711V53.0885H56.1076V50.6189ZM52.2119 50.6189C52.2119 49.7442 52.7685 49.0239 53.6792 49.0239C54.5392 49.0239 55.1464 49.6928 55.1464 50.6189C55.1464 51.4936 54.5392 52.2139 53.6792 52.2139C52.7685 52.1624 52.2119 51.4936 52.2119 50.6189ZM16.6952 50.6189V48.1492H15.6328V48.7666C15.2786 48.3036 14.7727 48.0463 14.115 48.0463C12.7489 48.0463 11.6865 49.1268 11.6865 50.6189C11.6865 52.111 12.7489 53.1914 14.115 53.1914C14.8233 53.1914 15.3292 52.9342 15.6328 52.4711V53.0885H16.6952V50.6189ZM12.7489 50.6189C12.7489 49.7442 13.3055 49.0239 14.2162 49.0239C15.0762 49.0239 15.6834 49.6928 15.6834 50.6189C15.6834 51.4936 15.0762 52.2139 14.2162 52.2139C13.3055 52.1624 12.7489 51.4936 12.7489 50.6189Z" fill="#F6F3FA"/>
<path d="M37.4399 10.6416H21.5029V39.7629H37.4399V10.6416Z" fill="#E1DFE3"/>
<path d="M22.5142 25.2021C22.5142 19.2852 25.2462 14.0372 29.4455 10.6414C26.3593 8.17177 22.4636 6.67969 18.2137 6.67969C8.14557 6.67969 0 14.9633 0 25.2021C0 35.4409 8.14557 43.7245 18.2137 43.7245C22.4636 43.7245 26.3593 42.2324 29.4455 39.7627C25.2462 36.4184 22.5142 31.119 22.5142 25.2021Z" fill="#F6F3FA"/>
<path d="M58.9416 25.2021C58.9416 35.4409 50.796 43.7245 40.7279 43.7245C36.478 43.7245 32.5823 42.2324 29.4961 39.7627C33.746 36.367 36.4274 31.119 36.4274 25.2021C36.4274 19.2852 33.6954 14.0372 29.4961 10.6414C32.5823 8.17177 36.478 6.67969 40.7279 6.67969C50.796 6.67969 58.9416 15.0148 58.9416 25.2021Z" fill="#F6F3FA"/>
</svg>
