<svg width="59" height="20" viewBox="0 0 59 20" fill="none" xmlns="http://www.w3.org/2000/svg">
<g clip-path="url(#clip0_502_21812)">
<path d="M58.395 5.86667C58.1561 5.06667 57.6188 4.33333 56.962 3.8C56.3052 3.26667 55.529 3 54.7528 3H54.6931C54.1557 3 53.6781 3.13333 53.2004 3.33333C52.7227 3.53333 52.3048 3.86667 51.9465 4.33333C51.5883 3.93333 51.1703 3.6 50.6927 3.33333C50.215 3.13333 49.6777 3 49.2 3H49.1403C48.2447 3 47.3491 3.33333 46.6326 4V3.73333C46.6326 3.6 46.5729 3.4 46.4534 3.33333C46.334 3.2 46.2146 3.13333 46.0952 3.13333H43.5278C43.4681 3.13333 43.4083 3.13333 43.2889 3.2C43.1695 3.26667 43.1098 3.33333 43.0501 3.33333C42.9904 3.4 42.9307 3.46667 42.9307 3.53333C42.9307 3.6 42.871 3.66667 42.871 3.8V19.2667C42.871 19.4667 42.9307 19.6 43.0501 19.7333C43.1695 19.8667 43.2889 19.9333 43.468 19.9333H46.0355C46.1549 19.9333 46.334 19.8667 46.3937 19.8C46.5131 19.7333 46.5729 19.5333 46.5729 19.4V8.26667C46.5729 8.2 46.5729 8.2 46.5729 8.13333C46.5729 7.86667 46.6923 7.66667 46.8714 7.46667C47.0505 7.26667 47.2296 7.2 47.4685 7.2H47.9461C48.1253 7.2 48.3044 7.26667 48.4835 7.4C48.6029 7.53333 48.6626 7.6 48.7223 7.8C48.782 7.93333 48.8417 8.13333 48.782 8.26667V19.2667C48.782 19.4667 48.8417 19.6 48.9612 19.7333C49.0806 19.8667 49.2 19.9333 49.3791 19.9333H52.0063C52.1257 19.9333 52.3048 19.8667 52.4242 19.7333C52.5436 19.6 52.6033 19.4667 52.6033 19.3333V8.26667C52.6033 8.06667 52.663 7.93333 52.7227 7.73333C52.7825 7.6 52.9019 7.46667 53.0213 7.33333C53.1407 7.2 53.3198 7.2 53.4989 7.13333H53.9766C54.2154 7.13333 54.4543 7.26667 54.6334 7.46667C54.8125 7.66667 54.8722 7.93333 54.8722 8.2V19.2C54.8722 19.4 54.9319 19.5333 55.0513 19.6667C55.1708 19.8 55.2902 19.8667 55.4693 19.8667H57.977C58.0367 19.8667 58.1562 19.8667 58.2159 19.8C58.2756 19.8 58.3353 19.7333 58.395 19.6667C58.4547 19.6 58.5144 19.5333 58.5144 19.4667C58.5144 19.4 58.5741 19.3333 58.5741 19.2V7.4C58.5741 6.86667 58.5144 6.4 58.395 5.86667Z" fill="#F6F3FA"/>
<path d="M40.8994 3.2H39.4067V0.533333C39.4067 0.466667 39.4068 0.4 39.347 0.333333C39.347 0.266667 39.2873 0.2 39.2276 0.133333C39.1679 0.0666667 39.1082 0.0666667 39.0485 0C39.0485 0 38.9888 0 38.9291 0C38.8694 0 38.8694 0 38.8097 0C37.1976 0.466667 37.4961 3 34.5107 3.2H34.2122C34.1525 3.2 34.1525 3.2 34.0928 3.2C33.9733 3.2 33.8539 3.33333 33.7942 3.4C33.7345 3.53333 33.6748 3.66667 33.6748 3.8V6.66667C33.6748 6.86667 33.7345 7 33.8539 7.13333C33.9733 7.26667 34.0928 7.33333 34.2719 7.33333H35.8243V19.4C35.8243 19.4667 35.8243 19.5333 35.884 19.6667C35.884 19.7333 35.9437 19.8 36.0034 19.8667C36.0631 19.9333 36.1228 20 36.1825 20C36.2422 20 36.3019 20.0667 36.4214 20.0667H38.8694C39.0485 20.0667 39.1679 20 39.2873 19.8667C39.4067 19.7333 39.4665 19.6 39.4665 19.4V7.33333H40.8994C40.9592 7.33333 41.0189 7.33333 41.1383 7.26667C41.198 7.26667 41.2577 7.2 41.3174 7.13333C41.3771 7.06667 41.4368 7 41.4368 6.93333C41.4368 6.86667 41.4965 6.8 41.4965 6.66667V3.86667C41.4965 3.73333 41.4368 3.53333 41.3174 3.4C41.198 3.26667 41.0786 3.2 40.8994 3.2Z" fill="#F6F3FA"/>
<path d="M31.6452 3.19995H29.0778C28.8987 3.19995 28.7793 3.26662 28.6599 3.39995C28.5404 3.53328 28.4807 3.66662 28.4807 3.86662V9.73328C28.4807 9.93328 28.421 10.0666 28.3016 10.2C28.1822 10.3333 28.0628 10.4 27.8837 10.4H26.8089C26.7492 10.4 26.6298 10.4 26.5701 10.3333C26.5104 10.2666 26.4507 10.2666 26.391 10.2C26.3313 10.1333 26.2716 10.0666 26.2716 9.99995C26.2716 9.93328 26.2118 9.79995 26.2118 9.73328V3.86662C26.2118 3.73328 26.1521 3.53328 26.0327 3.39995C25.9133 3.26662 25.7939 3.19995 25.6148 3.19995H23.0473C22.9876 3.19995 22.9279 3.19995 22.8085 3.26662C22.7488 3.26662 22.6891 3.33328 22.6294 3.39995C22.5697 3.46662 22.51 3.53328 22.51 3.59995C22.51 3.66662 22.4503 3.73328 22.4503 3.86662V10.3333C22.4503 10.8666 22.51 11.4666 22.6891 11.9333C22.8682 12.4666 23.1667 12.9333 23.525 13.3333C23.8832 13.7333 24.3012 14.0666 24.7789 14.2666C25.2565 14.4666 25.7342 14.5333 26.2716 14.5333C26.2716 14.5333 27.9434 14.5333 28.0031 14.5333C28.1225 14.5333 28.3016 14.5999 28.3613 14.7333C28.4807 14.8666 28.5404 15 28.5404 15.2C28.5404 15.3333 28.4807 15.5333 28.3613 15.6666C28.2419 15.8 28.1225 15.8666 28.0031 15.8666H27.9434H24.1818C24.0027 15.8666 23.8832 15.9333 23.7638 16.0666C23.6444 16.2 23.5847 16.3333 23.5847 16.5333V19.3333C23.5847 19.5333 23.6444 19.6666 23.7638 19.8C23.8832 19.9333 24.0027 20 24.1818 20H28.421C28.8987 20 29.4361 19.9333 29.9137 19.7333C30.3914 19.5333 30.8093 19.2 31.1676 18.8C31.5258 18.4 31.8244 17.9333 32.0035 17.4C32.1826 16.8666 32.302 16.3333 32.2423 15.8V3.86662C32.2423 3.79995 32.2423 3.73328 32.1826 3.59995C32.1826 3.53328 32.1229 3.46662 32.0632 3.39995C32.0035 3.33328 31.9438 3.26662 31.8841 3.26662C31.7647 3.19995 31.705 3.19995 31.6452 3.19995Z" fill="#F6F3FA"/>
<path d="M6.86683 3.19995H1.1946C1.07518 3.19995 0.896057 3.26662 0.776642 3.39995C0.716934 3.53328 0.657227 3.66662 0.657227 3.79995V6.59995C0.657227 6.59995 0.657227 6.59995 0.657227 6.66662V19.2666C0.657227 19.4 0.716934 19.6 0.776642 19.6666C0.896057 19.8 1.01547 19.8666 1.13489 19.8666H3.76203C3.94115 19.8666 4.06057 19.8 4.17998 19.6666C4.2994 19.5333 4.35911 19.4 4.35911 19.2V14.8666H6.80712C7.28478 14.8666 7.76245 14.8 8.1804 14.6C8.59835 14.4 9.01631 14.1333 9.31485 13.7333C9.67309 13.4 9.91192 12.9333 10.091 12.4666C10.2702 12 10.3299 11.4666 10.3299 10.9333V6.93328C10.3299 6.39995 10.2702 5.93328 10.091 5.39995C9.91192 4.93328 9.67309 4.46662 9.31485 4.13328C8.9566 3.79995 8.59835 3.46662 8.1804 3.26662C7.82215 3.26662 7.34449 3.19995 6.86683 3.19995ZM6.628 8.39995V10.1333C6.628 10.3333 6.56829 10.4666 6.44888 10.6C6.32946 10.7333 6.21004 10.8 6.03092 10.8H4.41881V7.33328H6.03092C6.21004 7.33328 6.32946 7.39995 6.44888 7.53329C6.56829 7.66662 6.628 7.79995 6.628 7.99995V8.39995Z" fill="#F6F3FA"/>
<path d="M16.9574 3.19995H13.3749C13.2555 3.19995 13.0764 3.26662 12.957 3.33328C12.8376 3.46662 12.7778 3.59995 12.7778 3.73328V4.86662V6.39995C12.7778 6.59995 12.8376 6.73328 12.957 6.86662C13.0764 6.99995 13.1958 7.06662 13.3749 7.06662H16.7783C16.8977 7.06662 17.0171 7.13328 17.1365 7.26662C17.2559 7.39995 17.3156 7.53328 17.3156 7.66662V7.99995C17.3156 8.13328 17.2559 8.26662 17.1365 8.39995C17.0171 8.53328 16.8977 8.59995 16.7783 8.59995H15.1065C14.6288 8.53328 14.0914 8.59995 13.6735 8.79995C13.1958 8.99995 12.7779 9.26662 12.4196 9.66662C12.0614 10.0666 11.7628 10.4666 11.5837 11C11.4046 11.4666 11.2852 12.0666 11.2852 12.6V15.9333C11.2852 16.4666 11.3449 17 11.524 17.4666C11.7031 17.9333 11.9419 18.4 12.3002 18.8C12.6584 19.2 13.0764 19.4666 13.4943 19.6666C13.972 19.8666 14.4497 19.9333 14.9273 19.8666H19.5845C20.0025 19.8666 20.3607 19.7333 20.6593 19.4C20.9578 19.1333 21.1369 18.6666 21.1369 18.2666V7.53328C21.0772 4.86662 19.8831 3.19995 16.9574 3.19995ZM17.3156 15.1333V15.6C17.3156 15.6666 17.3156 15.6666 17.3156 15.7333V15.8C17.2559 15.9333 17.1962 16.0666 17.0768 16.1333C16.9574 16.2 16.838 16.2666 16.7186 16.2666H15.6438C15.4647 16.2666 15.3453 16.2 15.2259 16.0666C15.1065 15.9333 15.0467 15.8 15.0467 15.6V15.0666V13.6666V13.2C15.0467 13 15.1065 12.8666 15.2259 12.7333C15.3453 12.6 15.4647 12.5333 15.6438 12.5333H16.7186C16.8977 12.5333 17.0171 12.6 17.1365 12.7333C17.2559 12.8666 17.3156 13 17.3156 13.2V15.1333Z" fill="#F6F3FA"/>
</g>
<defs>
<clipPath id="clip0_502_21812">
<rect width="57.9165" height="20" fill="white" transform="translate(0.657227)"/>
</clipPath>
</defs>
</svg>
