<svg width="101" height="30" viewBox="0 0 101 30" fill="none" xmlns="http://www.w3.org/2000/svg">
<path d="M48.58 9.99391C47.8454 12.2837 45.8197 12.0137 45.8197 12.0137L43.0545 12.0155L44.1467 7.47916C44.1467 7.47916 45.8965 7.48909 47.0526 7.48909C48.4675 7.48909 48.9812 8.74376 48.58 9.99391ZM54.3878 7.8748C54.8368 3.90485 52.1274 2.24731 48.7442 2.24731C47.1561 2.24731 39.8557 2.24731 39.8557 2.24731L34.6094 23.5992H40.257L41.8451 17.0161L46.3455 17.0468C46.3455 17.0468 53.3143 17.3765 54.3878 7.8748Z" fill="#F6F3FA"/>
<path d="M22.1228 8.08618H27.2745L25.1533 17.2004C25.1533 17.2004 24.6243 19.2328 26.3272 19.3899C27.6718 19.5137 28.6725 17.7216 29.0009 16.5075C29.4313 14.9132 31.106 8.08618 31.106 8.08618H36.413L32.3745 23.5992H27.7405L28.3101 21.3826C28.3101 21.3826 25.9462 24.601 22.4335 24.2153C19.3116 23.8729 19.0422 21.3446 19.5834 18.1904C19.8487 16.6412 22.1228 8.08618 22.1228 8.08618Z" fill="#F6F3FA"/>
<path d="M59.1374 20.4386C58.2547 20.6889 57.1844 20.8243 56.9725 19.9292C56.3892 17.4759 61.5336 16.7577 61.5336 16.7577C61.5684 18.9934 59.8145 20.2462 59.1374 20.4386ZM66.9183 15.9484C67.5971 13.3686 68.4554 10.9243 67.7645 9.57028C66.7072 7.49723 64.7955 7.31567 61.9996 7.31567C58.9108 7.31567 55.0964 7.97056 53.8538 12.5575C55.7865 12.5575 58.9966 12.5575 58.9966 12.5575C58.9966 12.5575 59.465 10.8295 61.3961 10.9388C63.1047 11.0345 63.0108 12.3479 62.3814 13.0732C61.2772 14.3451 58.2272 13.6396 54.8497 14.9485C51.8984 16.0911 50.8653 20.4242 51.5069 22.154C52.1282 23.8305 53.285 24.0437 54.8464 24.2153C57.3535 24.4899 59.2757 22.9299 60.1704 22.014C60.1704 23.0311 60.1939 23.5992 60.1939 23.5992H65.6061L65.5932 23.0302C65.5932 23.0302 65.111 22.8875 65.1644 22.1314C65.204 21.5768 66.1384 18.9121 66.9183 15.9484Z" fill="#F6F3FA"/>
<path d="M14.8497 9.94513C14.1192 11.8348 11.8548 11.6198 11.8548 11.6198L9.21911 11.6063L10.1818 7.60562C10.1818 7.60562 12.5401 7.61555 13.6961 7.61555C14.9347 7.61555 15.3214 8.7257 14.8497 9.94513ZM20.8412 7.21901C21.2902 3.24996 18.1618 2.24731 14.7794 2.24731C13.1913 2.24731 5.89089 2.24731 5.89089 2.24731L0.644531 23.5992H6.29215L8.05577 16.3494L11.2238 16.3784C11.2238 16.3784 12.5312 16.2934 12.557 17.6646C12.5854 19.1271 11.5862 21.8125 11.651 23.5992C12.4017 23.5992 17.4531 23.5992 17.4531 23.5992L17.4402 23.0302C17.4402 23.0302 16.958 22.8874 17.0122 22.1314C17.0349 21.8161 17.3455 20.8207 17.7532 19.4775C17.9984 18.885 18.3689 17.4804 18.3349 16.3368C18.292 14.9087 17.4895 14.2457 16.3326 13.7823C19.94 12.8375 20.8412 7.21901 20.8412 7.21901Z" fill="#F6F3FA"/>
<path d="M69.3689 8.08618H74.6152V17.3937L79.1545 8.08618H83.9697L74.2617 26.9035C74.2617 26.9035 73.3605 28.4824 72.2424 29.3171C71.3234 30.0036 70.1948 29.9729 69.8494 30C67.9321 29.9819 65.6191 29.9765 65.6191 29.9765L66.7348 25.4907L68.5404 25.4871C68.5404 25.4871 69.3664 25.3932 69.686 24.9379C69.9902 24.5043 70.1455 24.0708 70.1455 23.4349C70.1455 22.4819 69.3689 8.08618 69.3689 8.08618Z" fill="#F6F3FA"/>
<path d="M90.7004 4.50195L84.6426 28.0308L95.9816 16.2664L90.7004 4.50195Z" fill="#F6F3FA"/>
<path d="M86.8175 4.50195L80.7598 28.0308L92.0987 16.2664L86.8175 4.50195Z" fill="#F6F3FA"/>
<path d="M98.0949 0.231242C96.9437 0.231242 96.0069 1.27725 96.0069 2.56263C96.0069 3.84801 96.9437 4.89401 98.0949 4.89401C99.2461 4.89401 100.183 3.84801 100.183 2.56263C100.183 1.27725 99.2461 0.231242 98.0949 0.231242ZM98.0949 5.12526C96.8289 5.12526 95.7998 3.97537 95.7998 2.56263C95.7998 1.14989 96.8289 0 98.0949 0C99.3602 0 100.39 1.14989 100.39 2.56263C100.39 3.97537 99.3602 5.12526 98.0949 5.12526Z" fill="#F6F3FA"/>
<path d="M96.9818 3.51908V1.91664H96.4463V1.70166H97.7358V1.91664H97.1978V3.51908H96.9818Z" fill="#F6F3FA"/>
<path d="M98.0635 3.51908V1.70166H98.3879L98.773 2.98885C98.8086 3.10808 98.8345 3.19841 98.8514 3.25803C98.8692 3.19118 98.8984 3.09453 98.938 2.96626L99.3271 1.70166H99.6168V3.51908H99.4097V1.99794L98.9364 3.51908H98.7422L98.2714 1.97174V3.51908H98.0635Z" fill="#F6F3FA"/>
</svg>
