<svg width="82" height="45" viewBox="0 0 82 45" fill="none" xmlns="http://www.w3.org/2000/svg">
<path fill-rule="evenodd" clip-rule="evenodd" d="M65.083 32.175L74.7033 22.3763L70.1464 12.2393L65.083 32.175Z" fill="#F6F3FA"/>
<path fill-rule="evenodd" clip-rule="evenodd" d="M61.8418 32.175L71.4621 22.3763L66.9052 12.2393L61.8418 32.175Z" fill="#F6F3FA"/>
<path fill-rule="evenodd" clip-rule="evenodd" d="M15.8674 12.3525L11.817 28.4588L26.1963 28.5713L30.146 12.3525H33.7914L29.0558 31.2075C28.8744 31.9275 28.1839 32.5125 27.5142 32.5125H9.08313C7.9654 32.5125 7.30309 31.5375 7.60536 30.3375L12.122 12.3525H15.8674ZM60.3227 12.24H63.968L58.9047 32.5125H55.1565L60.3227 12.24ZM34.1971 20.6865L52.4247 20.574L53.6405 16.2938H35.1079L36.2216 12.3518L55.97 12.1493C57.1992 12.1365 57.9314 13.1993 57.6076 14.5245L55.747 22.1175C55.4225 23.442 54.1617 24.5153 52.9325 24.5153H36.6273L34.7049 32.85H31.1583L34.1971 20.6865Z" fill="#F6F3FA"/>
</svg>
