<svg width="62" height="65" viewBox="0 0 62 65" fill="none" xmlns="http://www.w3.org/2000/svg">
<g clip-path="url(#clip0_502_21810)">
<path d="M39.3436 23.3538C38.3438 22.9584 36.7861 22.5386 34.8486 22.5386C29.8886 22.5386 26.3882 25.1602 26.3623 28.9167C26.3313 31.6792 28.8527 33.2338 30.7566 34.16C32.7122 35.108 33.3658 35.7038 33.3606 36.5569C33.3477 37.8488 31.7977 38.4338 30.3588 38.4338C28.3799 38.4338 27.2949 38.144 25.6287 37.4182L25.0113 37.1175L24.3112 41.4455C25.515 41.9736 27.685 42.4259 29.9299 42.4611C35.2025 42.4611 38.6487 39.8584 38.69 35.8555C38.7313 33.6536 37.3725 31.9825 34.5024 30.6067C32.7613 29.7129 31.6763 29.1144 31.6763 28.2071C31.6763 27.4055 32.6037 26.5496 34.5412 26.5496C36.2074 26.5225 37.3725 26.899 38.2999 27.289L38.7649 27.5084L39.465 23.3267L39.3436 23.3538ZM52.2163 22.8934H48.3413C47.1349 22.8934 46.2333 23.2373 45.7038 24.494L38.2508 42.1902H43.5234L44.5774 39.2923L51.0099 39.2977C51.1675 39.9748 51.6299 42.1902 51.6299 42.1902H56.2773L52.2163 22.8934ZM19.2323 22.7309H24.2518L21.113 42.0386H16.091L19.2323 22.7254V22.7309ZM6.47326 33.3719L6.99509 36.0532L11.906 22.8934H17.2251L9.31751 42.1632H4.01134L-0.328656 25.8427C-0.419073 25.5638 -0.530157 25.3742 -0.793656 25.2009C-2.26099 24.3965 -3.90141 23.7411 -5.72266 23.2861L-5.65807 22.8798H2.43034C3.52568 22.9232 4.40918 23.2861 4.71143 24.5157L6.47326 33.38V33.3719ZM46.0189 35.3409L48.021 29.9405C47.9952 29.9946 48.4343 28.8246 48.6875 28.0988L49.0311 29.7644L50.191 35.3355H46.0189V35.3409Z" fill="#F6F3FA"/>
</g>
<defs>
<clipPath id="clip0_502_21810">
<rect width="62" height="65" fill="white"/>
</clipPath>
</defs>
</svg>
