<svg id="Layer_1" data-name="Layer 1" xmlns="http://www.w3.org/2000/svg" xmlns:xlink="http://www.w3.org/1999/xlink" viewBox="0 0 441.62 193.93"><defs><style>.cls-1{fill:none;}.cls-2{clip-path:url(#clip-path);}.cls-3{font-size:81.93px;font-family:Oddval-SemiBold, Oddval;font-weight:600;}.cls-3,.cls-5{fill:#1c75bc;}.cls-4{fill:#2b3990;}.cls-6{fill:#911a1d;}.cls-7{fill:#fff;}</style><clipPath id="clip-path" transform="translate(-3.85 1.68)"><rect class="cls-1" width="446.72" height="201.02"/></clipPath></defs><g class="cls-2"><text class="cls-3" transform="translate(179.28 69.64)">scrap</text><path class="cls-4" d="M31.57,75.72c6.27-.55,11.41,1.43,15,6.36,3.08,4.18,5.79,8.65,8.55,13.06,7,11.13,13.84,22.32,20.78,33.46.36.59.34,1-.2,1.29a17.8,17.8,0,0,1-4,2,5.84,5.84,0,0,1-3.19-.58,10.84,10.84,0,0,1-4.9-4.12c-2.59-3.76-5.06-7.62-7.46-11.5q-12-19.36-23.88-38.77C32.06,76.56,31.86,76.21,31.57,75.72Z" transform="translate(-3.85 1.68)"/><path class="cls-5" d="M62.06,92.16c2.9.22,5.6.25,8.24.65s4.4,2.15,5.79,4.24c2.45,3.68,4.77,7.46,7.14,11.2.87,1.38,1.75,2.76,2.56,4.18a1.48,1.48,0,0,1,.14,1.2c-1.59,2.94-3.25,5.84-5,9Z" transform="translate(-3.85 1.68)"/><path class="cls-6" d="M116.58,69.23c.24.18,0,0,.22.23,0,0,.49.33.47.34-.25-.23-.48-.41-.69-.57L114,73.75l-.62,1.14L112,77.33c-1.19,2.14-2.4,4.27-3.57,6.42q-5.2,9.59-10.39,19.18c-.28.47-.56.94-.83,1.42C92,113.57,87.63,123.29,81.51,132a11.88,11.88,0,0,0-1,.92c-2.57,3.06-5.61,5.29-9.76,5.6l-2.24-.2h-.44l-1.57-.47c0-.06-.07-.14-.12-.17-4.34-2-7.46-5.34-10.15-9.11-2.06-2.9-3.91-6-5.86-8.93l-.38-.6c-.41-.66-.82-1.31-1.22-2l-.65-.92c-.07-.14-.13-.28-.19-.43L46.91,114l-.83-.94c-.52-1-1-2-1.57-3-1.69-2.78-3.41-5.54-5.14-8.31S35.8,96.06,34,93.21l-.25-.41-1.17-1.74-.45-.87-.7-1.13c-.63-1-1.25-2-1.87-3l-.45-.69h0l-.94-1.53-.4-.66h0L27,82a.22.22,0,0,0-.06-.19l-.63-.92c-.35-.64-.65-1.32-1.05-1.93-2.7-4.1-5.28-8.28-8.17-12.24A14.19,14.19,0,0,0,3.85,61.48c.19.3.4.6.59.9Q12,74.72,19.61,87.07c2.19,3.57,4.42,7.1,6.64,10.65l1.11,1.79,1,1.56.25.4.55.93.36.62,1.41,2.19a.88.88,0,0,0,.05.33q5.79,9.36,11.61,18.71c.63,1,1.4,1.91,2.11,2.86v0c.45.84.91,1.68,1.37,2.52l.53.88,1.92,3c.17.32.32.66.51,1q5.11,8.24,10.23,16.46,4,6.44,8,12.84h0c.1.15.19.3.29.44l.8,1.3.85,1.34.94,1.53c2.78,4.75,5.61,9.49,9.56,13.4a29.92,29.92,0,0,0,3.52,2.64,6.23,6.23,0,0,0,6.5,0,12.27,12.27,0,0,0,3-2.43c3.46-3.68,5.81-8.11,8.14-12.54.74-1.3,1.5-2.6,2.24-3.91q2.56-4.58,5.1-9.15,4.55-8.19,9.07-16.38l1.24-2.22.64-1.14.61-1.14.35-.93.43-.64.5-.92,1.64-2.75.25-.45,0-.07.51-.84,1.18-2.18c.41-.7.81-1.41,1.22-2.12.1-.2.19-.41.29-.61a9,9,0,0,0,.55-.82q3.88-7,7.74-14c1.91-3.5,3.78-7,5.67-10.55.25-.4.52-.8.75-1.22q3.87-7.15,7.74-14.3,2.81-5.25,5.59-10.51c1.46-2.66,2.94-5.32,4.38-8q3.36-6.21,6.67-12.44c2.26-4.26,4.49-8.53,6.74-12.79,1.4-2.61,2.85-5.19,4.21-7.82,2.69-5.16,5.33-10.34,8-15.51l-.07-.43-18.3.46a69.72,69.72,0,0,0-13.38.94h0A14.81,14.81,0,0,0,146,19.56c-3.78,2.64-6,6.51-8.19,10.43h0c-.18.32-.36.64-.55,1L136,33.21c-.19.32-.41.62-.58.94q-5.5,10.1-11,20.19c-1.47,2.71-2.89,5.44-4.34,8.17m-89.73,40.6-.09-.12.09.12.13-.09Zm14.46,8.42c-.06,0-.14-.09-.19-.07s.13,0,.19.07Zm72.7-41.48,3.29-6.86-.07.18m18.71,34.3a.92.92,0,0,0,.13.52A.92.92,0,0,1,139.45,97.67Z" transform="translate(-3.85 1.68)"/><path class="cls-7" d="M173.61,82" transform="translate(-3.85 1.68)"/><path class="cls-6" d="M170.4,152.41l-11,10.88v20.16h-23V118.52l23-44.25v61.8l33.55-31.78h27.37l-33,33.55,35.9,45.61H195.42Z" transform="translate(-3.85 1.68)"/><path class="cls-6" d="M302.11,138.28v45.17H280.63V173.6c-4.27,7.21-12.51,11-24.14,11-18.54,0-29.58-10.3-29.58-24,0-14,9.86-23.7,34-23.7h18.24c0-9.86-5.88-15.59-18.24-15.59-8.39,0-17.07,2.79-22.81,7.35l-8.24-16c8.68-6.18,21.48-9.56,34.14-9.56C288.13,103.11,302.11,114.29,302.11,138.28Zm-23,20.16v-8.09H263.41c-10.74,0-14.13,4-14.13,9.27,0,5.73,4.86,9.56,13,9.56C269.88,169.18,276.51,165.65,279.15,158.44Z" transform="translate(-3.85 1.68)"/><path class="cls-6" d="M372,103.11V124.3c-1.91-.15-3.38-.3-5.15-.3-12.65,0-21,6.92-21,22.08v37.37h-23V104.29h21.93v10.44C350.38,107.08,359.8,103.11,372,103.11Z" transform="translate(-3.85 1.68)"/><path class="cls-6" d="M439.56,179.63c-4.71,3.38-11.63,5-18.69,5-18.69,0-29.58-9.56-29.58-28.4V123.71H379.08V106.05h12.21V86.77h23v19.28H434v17.66H414.25v32.23c0,6.77,3.68,10.44,9.86,10.44a15.52,15.52,0,0,0,9.27-2.94Z" transform="translate(-3.85 1.68)"/></g></svg>