<svg width="3267" height="81" viewBox="0 0 3267 81" fill="none" xmlns="http://www.w3.org/2000/svg">
<g clip-path="url(#clip0_7714_21342)">
<rect width="3267" height="81" fill="#FFE973"/>
<path d="M1035.3 53V30.44H1050.98V34.312H1040.07V39.592H1050.22V43.496H1040.07V49.128H1050.98V53H1035.3ZM1051.49 53L1060.93 40.456V42.664L1051.74 30.44H1057.6L1063.74 39.048H1062.14L1068.32 30.44H1074.17L1064.96 42.664V40.456L1074.46 53H1068.57L1062.14 44.072H1063.77L1057.31 53H1051.49ZM1076.18 53V30.44H1086.71C1089.25 30.44 1091.17 31.0587 1092.47 32.296C1093.79 33.512 1094.45 35.1867 1094.45 37.32C1094.45 39.432 1093.79 41.1173 1092.47 42.376C1091.17 43.6133 1089.25 44.232 1086.71 44.232H1081.17V53H1076.18ZM1081.17 40.36H1086.07C1087.26 40.36 1088.15 40.0933 1088.72 39.56C1089.32 39.0267 1089.62 38.28 1089.62 37.32C1089.62 36.36 1089.32 35.624 1088.72 35.112C1088.15 34.5787 1087.26 34.312 1086.07 34.312H1081.17V40.36ZM1097.77 53V30.44H1113.45V34.312H1102.54V39.592H1112.68V43.496H1102.54V49.128H1113.45V53H1097.77ZM1116.93 53V30.44H1127.17C1129.71 30.44 1131.67 31.048 1133.06 32.264C1134.44 33.4587 1135.14 35.1333 1135.14 37.288C1135.14 38.696 1134.82 39.912 1134.18 40.936C1133.56 41.9387 1132.66 42.7173 1131.49 43.272C1130.34 43.8053 1128.95 44.072 1127.33 44.072L1127.71 43.368H1129.03C1129.94 43.368 1130.75 43.6133 1131.46 44.104C1132.18 44.5947 1132.78 45.3093 1133.25 46.248L1136.61 53H1131.11L1127.62 45.736C1127.36 45.1173 1126.96 44.712 1126.4 44.52C1125.87 44.3067 1125.25 44.2 1124.55 44.2H1121.92V53H1116.93ZM1121.92 40.616H1126.31C1127.61 40.616 1128.6 40.3493 1129.28 39.816C1129.96 39.2827 1130.31 38.4933 1130.31 37.448C1130.31 36.4027 1129.96 35.624 1129.28 35.112C1128.6 34.5787 1127.61 34.312 1126.31 34.312H1121.92V40.616ZM1139.59 53V30.44H1144.58V53H1139.59ZM1149.15 53V30.44H1164.83V34.312H1153.92V39.592H1164.06V43.496H1153.92V49.128H1164.83V53H1149.15ZM1168.3 53V30.44H1172.02L1184.27 46.024H1183.41V30.44H1188.05V53H1184.34L1172.11 37.416H1172.94V53H1168.3ZM1203.53 53.352C1201.12 53.352 1199.05 52.872 1197.32 51.912C1195.59 50.952 1194.26 49.608 1193.32 47.88C1192.4 46.1307 1191.94 44.072 1191.94 41.704C1191.94 39.336 1192.4 37.288 1193.32 35.56C1194.26 33.832 1195.59 32.488 1197.32 31.528C1199.05 30.568 1201.12 30.088 1203.53 30.088C1205.09 30.088 1206.5 30.312 1207.78 30.76C1209.06 31.1867 1210.15 31.816 1211.05 32.648L1209.48 36.584C1208.5 35.816 1207.56 35.272 1206.66 34.952C1205.79 34.632 1204.8 34.472 1203.69 34.472C1201.58 34.472 1199.96 35.1013 1198.82 36.36C1197.72 37.5973 1197.16 39.3787 1197.16 41.704C1197.16 44.0293 1197.72 45.8213 1198.82 47.08C1199.96 48.3387 1201.58 48.968 1203.69 48.968C1204.8 48.968 1205.79 48.808 1206.66 48.488C1207.56 48.168 1208.5 47.624 1209.48 46.856L1211.05 50.792C1210.15 51.6027 1209.06 52.232 1207.78 52.68C1206.5 53.128 1205.09 53.352 1203.53 53.352ZM1214.52 53V30.44H1230.2V34.312H1219.29V39.592H1229.43V43.496H1219.29V49.128H1230.2V53H1214.52ZM1240.05 53L1250.42 30.44H1254.55L1265.05 53H1259.99L1257.27 46.728L1259.22 48.104H1245.81L1247.8 46.728L1245.08 53H1240.05ZM1252.47 35.688L1248.34 45.48L1247.48 44.264H1257.56L1256.82 45.48L1252.6 35.688H1252.47ZM1282.36 53L1274.36 30.44H1279.51L1285.24 47.848H1283.86L1290.1 30.44H1293.75L1299.48 47.848H1298.2L1304.28 30.44H1309.11L1301.05 53H1296.98L1291.45 36.968H1292.18L1286.45 53H1282.36ZM1310.79 41.704C1310.79 39.3573 1311.23 37.32 1312.1 35.592C1313 33.8427 1314.28 32.488 1315.94 31.528C1317.6 30.568 1319.58 30.088 1321.86 30.088C1324.14 30.088 1326.12 30.568 1327.78 31.528C1329.44 32.488 1330.72 33.8427 1331.62 35.592C1332.54 37.32 1333 39.3467 1333 41.672C1333 44.04 1332.54 46.0987 1331.62 47.848C1330.72 49.576 1329.44 50.9307 1327.78 51.912C1326.12 52.872 1324.14 53.352 1321.86 53.352C1319.58 53.352 1317.6 52.872 1315.94 51.912C1314.3 50.9307 1313.03 49.5653 1312.13 47.816C1311.24 46.0667 1310.79 44.0293 1310.79 41.704ZM1316 41.704C1316 44.0293 1316.48 45.8533 1317.44 47.176C1318.43 48.4773 1319.9 49.128 1321.86 49.128C1323.78 49.128 1325.24 48.4773 1326.24 47.176C1327.25 45.8533 1327.75 44.0293 1327.75 41.704C1327.75 39.3573 1327.25 37.544 1326.24 36.264C1325.26 34.9627 1323.8 34.312 1321.86 34.312C1319.9 34.312 1318.43 34.9627 1317.44 36.264C1316.48 37.544 1316 39.3573 1316 41.704ZM1336.9 53V30.44H1347.14C1349.68 30.44 1351.64 31.048 1353.03 32.264C1354.41 33.4587 1355.11 35.1333 1355.11 37.288C1355.11 38.696 1354.79 39.912 1354.15 40.936C1353.53 41.9387 1352.63 42.7173 1351.46 43.272C1350.31 43.8053 1348.92 44.072 1347.3 44.072L1347.68 43.368H1348.99C1349.91 43.368 1350.72 43.6133 1351.43 44.104C1352.15 44.5947 1352.75 45.3093 1353.22 46.248L1356.58 53H1351.07L1347.59 45.736C1347.33 45.1173 1346.92 44.712 1346.37 44.52C1345.84 44.3067 1345.22 44.2 1344.51 44.2H1341.89V53H1336.9ZM1341.89 40.616H1346.27C1347.58 40.616 1348.57 40.3493 1349.25 39.816C1349.93 39.2827 1350.27 38.4933 1350.27 37.448C1350.27 36.4027 1349.93 35.624 1349.25 35.112C1348.57 34.5787 1347.58 34.312 1346.27 34.312H1341.89V40.616ZM1359.55 53V30.44H1364.55V48.808H1374.72V53H1359.55ZM1377.77 53V30.44H1386.38C1389 30.44 1391.22 30.888 1393.04 31.784C1394.85 32.68 1396.22 33.9707 1397.13 35.656C1398.07 37.32 1398.54 39.336 1398.54 41.704C1398.54 44.0507 1398.07 46.0667 1397.13 47.752C1396.22 49.4373 1394.85 50.7387 1393.04 51.656C1391.22 52.552 1389 53 1386.38 53H1377.77ZM1382.76 48.904H1386.09C1388.61 48.904 1390.48 48.3173 1391.69 47.144C1392.93 45.9493 1393.55 44.136 1393.55 41.704C1393.55 39.2507 1392.93 37.4373 1391.69 36.264C1390.48 35.0907 1388.61 34.504 1386.09 34.504H1382.76V48.904ZM1410.82 41.704C1410.82 39.3573 1411.26 37.32 1412.13 35.592C1413.03 33.8427 1414.31 32.488 1415.97 31.528C1417.64 30.568 1419.61 30.088 1421.89 30.088C1424.17 30.088 1426.15 30.568 1427.81 31.528C1429.48 32.488 1430.76 33.8427 1431.65 35.592C1432.57 37.32 1433.03 39.3467 1433.03 41.672C1433.03 44.04 1432.57 46.0987 1431.65 47.848C1430.76 49.576 1429.48 50.9307 1427.81 51.912C1426.15 52.872 1424.17 53.352 1421.89 53.352C1419.61 53.352 1417.64 52.872 1415.97 51.912C1414.33 50.9307 1413.06 49.5653 1412.16 47.816C1411.27 46.0667 1410.82 44.0293 1410.82 41.704ZM1416.04 41.704C1416.04 44.0293 1416.52 45.8533 1417.48 47.176C1418.46 48.4773 1419.93 49.128 1421.89 49.128C1423.81 49.128 1425.27 48.4773 1426.28 47.176C1427.28 45.8533 1427.78 44.0293 1427.78 41.704C1427.78 39.3573 1427.28 37.544 1426.28 36.264C1425.29 34.9627 1423.83 34.312 1421.89 34.312C1419.93 34.312 1418.46 34.9627 1417.48 36.264C1416.52 37.544 1416.04 39.3573 1416.04 41.704ZM1436.93 53V30.44H1452.26V34.312H1441.92V39.816H1451.52V43.656H1441.92V53H1436.93ZM1464.46 53V30.44H1480.14V34.312H1469.23V39.592H1479.37V43.496H1469.23V49.128H1480.14V53H1464.46ZM1480.64 53L1490.08 40.456V42.664L1480.9 30.44H1486.75L1492.9 39.048H1491.3L1497.47 30.44H1503.33L1494.11 42.664V40.456L1503.62 53H1497.73L1491.3 44.072H1492.93L1486.47 53H1480.64ZM1515.31 53.352C1512.9 53.352 1510.83 52.872 1509.1 51.912C1507.37 50.952 1506.04 49.608 1505.1 47.88C1504.18 46.1307 1503.73 44.072 1503.73 41.704C1503.73 39.336 1504.18 37.288 1505.1 35.56C1506.04 33.832 1507.37 32.488 1509.1 31.528C1510.83 30.568 1512.9 30.088 1515.31 30.088C1516.87 30.088 1518.29 30.312 1519.57 30.76C1520.85 31.1867 1521.93 31.816 1522.83 32.648L1521.26 36.584C1520.28 35.816 1519.34 35.272 1518.45 34.952C1517.57 34.632 1516.58 34.472 1515.47 34.472C1513.36 34.472 1511.74 35.1013 1510.61 36.36C1509.5 37.5973 1508.94 39.3787 1508.94 41.704C1508.94 44.0293 1509.5 45.8213 1510.61 47.08C1511.74 48.3387 1513.36 48.968 1515.47 48.968C1516.58 48.968 1517.57 48.808 1518.45 48.488C1519.34 48.168 1520.28 47.624 1521.26 46.856L1522.83 50.792C1521.93 51.6027 1520.85 52.232 1519.57 52.68C1518.29 53.128 1516.87 53.352 1515.31 53.352ZM1526.3 53V30.44H1531.3V48.808H1541.47V53H1526.3ZM1553.28 53.352C1549.97 53.352 1547.51 52.5307 1545.89 50.888C1544.27 49.2453 1543.46 46.8027 1543.46 43.56V30.44H1548.45V43.592C1548.45 45.4053 1548.83 46.7813 1549.6 47.72C1550.39 48.6587 1551.62 49.128 1553.28 49.128C1554.9 49.128 1556.11 48.6587 1556.9 47.72C1557.71 46.7813 1558.11 45.4053 1558.11 43.592V30.44H1563.04V43.56C1563.04 46.8027 1562.22 49.2453 1560.58 50.888C1558.96 52.5307 1556.52 53.352 1553.28 53.352ZM1575.62 53.352C1573.81 53.352 1572.11 53.128 1570.53 52.68C1568.95 52.232 1567.61 51.6133 1566.5 50.824L1567.97 46.92C1568.7 47.4107 1569.47 47.8267 1570.28 48.168C1571.09 48.5093 1571.94 48.776 1572.84 48.968C1573.73 49.1387 1574.67 49.224 1575.65 49.224C1577.19 49.224 1578.28 48.9893 1578.92 48.52C1579.58 48.0507 1579.91 47.4533 1579.91 46.728C1579.91 46.0667 1579.68 45.5653 1579.24 45.224C1578.81 44.8613 1578.02 44.552 1576.87 44.296L1573.09 43.528C1571.02 43.1013 1569.48 42.376 1568.45 41.352C1567.43 40.328 1566.92 38.9627 1566.92 37.256C1566.92 35.8053 1567.3 34.5467 1568.07 33.48C1568.84 32.4133 1569.91 31.5813 1571.3 30.984C1572.71 30.3867 1574.35 30.088 1576.23 30.088C1577.83 30.088 1579.32 30.312 1580.71 30.76C1582.09 31.208 1583.24 31.848 1584.13 32.68L1582.66 36.328C1581.79 35.624 1580.8 35.1013 1579.72 34.76C1578.65 34.3973 1577.45 34.216 1576.13 34.216C1574.75 34.216 1573.68 34.4613 1572.93 34.952C1572.21 35.4427 1571.84 36.1147 1571.84 36.968C1571.84 37.608 1572.07 38.1307 1572.52 38.536C1572.96 38.92 1573.75 39.2293 1574.88 39.464L1578.6 40.2C1580.71 40.6267 1582.28 41.3413 1583.3 42.344C1584.32 43.3467 1584.84 44.68 1584.84 46.344C1584.84 47.752 1584.45 48.9787 1583.68 50.024C1582.94 51.0693 1581.87 51.8907 1580.48 52.488C1579.12 53.064 1577.5 53.352 1575.62 53.352ZM1588.52 53V30.44H1593.51V53H1588.52ZM1605.48 53L1595.33 30.44H1600.71L1608.42 48.488H1606.85L1614.57 30.44H1619.75L1609.61 53H1605.48ZM1621.62 53V30.44H1637.3V34.312H1626.38V39.592H1636.53V43.496H1626.38V49.128H1637.3V53H1621.62ZM1649.8 53V30.44H1660.33C1662.87 30.44 1664.79 31.0587 1666.09 32.296C1667.41 33.512 1668.08 35.1867 1668.08 37.32C1668.08 39.432 1667.41 41.1173 1666.09 42.376C1664.79 43.6133 1662.87 44.232 1660.33 44.232H1654.8V53H1649.8ZM1654.8 40.36H1659.69C1660.89 40.36 1661.77 40.0933 1662.35 39.56C1662.95 39.0267 1663.24 38.28 1663.24 37.32C1663.24 36.36 1662.95 35.624 1662.35 35.112C1661.77 34.5787 1660.89 34.312 1659.69 34.312H1654.8V40.36ZM1671.4 53V30.44H1687.08V34.312H1676.17V39.592H1686.31V43.496H1676.17V49.128H1687.08V53H1671.4ZM1690.55 53V30.44H1700.79C1703.33 30.44 1705.3 31.048 1706.68 32.264C1708.07 33.4587 1708.76 35.1333 1708.76 37.288C1708.76 38.696 1708.44 39.912 1707.8 40.936C1707.18 41.9387 1706.29 42.7173 1705.11 43.272C1703.96 43.8053 1702.58 44.072 1700.95 44.072L1701.34 43.368H1702.65C1703.57 43.368 1704.38 43.6133 1705.08 44.104C1705.81 44.5947 1706.4 45.3093 1706.87 46.248L1710.23 53H1704.73L1701.24 45.736C1700.99 45.1173 1700.58 44.712 1700.03 44.52C1699.49 44.3067 1698.87 44.2 1698.17 44.2H1695.55V53H1690.55ZM1695.55 40.616H1699.93C1701.23 40.616 1702.22 40.3493 1702.91 39.816C1703.59 39.2827 1703.93 38.4933 1703.93 37.448C1703.93 36.4027 1703.59 35.624 1702.91 35.112C1702.22 34.5787 1701.23 34.312 1699.93 34.312H1695.55V40.616ZM1713.21 53V30.44H1718.2V40.264H1718.27L1727.51 30.44H1733.43L1722.07 42.248L1722.11 40.2L1734.14 53H1728.03L1718.27 42.696H1718.2V53H1713.21ZM1742.62 53.352C1740.81 53.352 1739.11 53.128 1737.53 52.68C1735.95 52.232 1734.61 51.6133 1733.5 50.824L1734.97 46.92C1735.7 47.4107 1736.47 47.8267 1737.28 48.168C1738.09 48.5093 1738.94 48.776 1739.84 48.968C1740.73 49.1387 1741.67 49.224 1742.65 49.224C1744.19 49.224 1745.28 48.9893 1745.92 48.52C1746.58 48.0507 1746.91 47.4533 1746.91 46.728C1746.91 46.0667 1746.68 45.5653 1746.24 45.224C1745.81 44.8613 1745.02 44.552 1743.87 44.296L1740.09 43.528C1738.02 43.1013 1736.48 42.376 1735.45 41.352C1734.43 40.328 1733.92 38.9627 1733.92 37.256C1733.92 35.8053 1734.3 34.5467 1735.07 33.48C1735.84 32.4133 1736.91 31.5813 1738.3 30.984C1739.71 30.3867 1741.35 30.088 1743.23 30.088C1744.83 30.088 1746.32 30.312 1747.71 30.76C1749.09 31.208 1750.24 31.848 1751.13 32.68L1749.66 36.328C1748.79 35.624 1747.8 35.1013 1746.72 34.76C1745.65 34.3973 1744.45 34.216 1743.13 34.216C1741.75 34.216 1740.68 34.4613 1739.93 34.952C1739.21 35.4427 1738.84 36.1147 1738.84 36.968C1738.84 37.608 1739.07 38.1307 1739.52 38.536C1739.96 38.92 1740.75 39.2293 1741.88 39.464L1745.6 40.2C1747.71 40.6267 1749.28 41.3413 1750.3 42.344C1751.32 43.3467 1751.84 44.68 1751.84 46.344C1751.84 47.752 1751.45 48.9787 1750.68 50.024C1749.94 51.0693 1748.87 51.8907 1747.48 52.488C1746.12 53.064 1744.5 53.352 1742.62 53.352ZM1783.43 53.352C1782.45 53.0747 1781.49 52.6587 1780.55 52.104C1779.64 51.5493 1778.77 50.9307 1777.96 50.248L1778.99 50.28C1777.96 51.2187 1776.8 51.9653 1775.5 52.52C1774.2 53.0747 1772.83 53.352 1771.4 53.352C1769.7 53.352 1768.21 53.0853 1766.95 52.552C1765.72 52.0187 1764.76 51.2827 1764.07 50.344C1763.41 49.4053 1763.08 48.3067 1763.08 47.048C1763.08 45.5973 1763.51 44.36 1764.36 43.336C1765.22 42.312 1766.36 41.3947 1767.79 40.584L1768.91 40.008L1768.17 40.904C1767.3 40.072 1766.63 39.2293 1766.19 38.376C1765.74 37.5013 1765.51 36.6053 1765.51 35.688C1765.51 34.5787 1765.79 33.608 1766.35 32.776C1766.92 31.9227 1767.71 31.2613 1768.71 30.792C1769.72 30.3227 1770.9 30.088 1772.27 30.088C1774.04 30.088 1775.47 30.5573 1776.55 31.496C1777.66 32.4133 1778.22 33.6613 1778.22 35.24C1778.22 36.072 1778.05 36.8507 1777.71 37.576C1777.39 38.3013 1776.87 38.984 1776.17 39.624C1775.47 40.2427 1774.56 40.84 1773.45 41.416L1773.58 40.488L1778.83 45.736H1777.83C1778.39 44.8613 1778.82 43.8693 1779.11 42.76C1779.41 41.6507 1779.59 40.488 1779.66 39.272H1783.66C1783.57 41.0213 1783.27 42.6853 1782.76 44.264C1782.25 45.8213 1781.56 47.208 1780.68 48.424L1780.65 47.336C1781.25 47.9333 1781.91 48.4453 1782.63 48.872C1783.36 49.2987 1784.14 49.64 1784.97 49.896L1783.43 53.352ZM1771.69 49.64C1772.63 49.64 1773.47 49.4693 1774.22 49.128C1774.96 48.7867 1775.65 48.2853 1776.27 47.624L1776.17 48.68L1769.58 42.248L1771.59 42.28L1770.7 42.728C1770.08 43.0907 1769.56 43.4747 1769.13 43.88C1768.7 44.264 1768.38 44.6907 1768.17 45.16C1767.96 45.6293 1767.85 46.152 1767.85 46.728C1767.85 47.624 1768.18 48.3387 1768.84 48.872C1769.52 49.384 1770.47 49.64 1771.69 49.64ZM1772.27 33.288C1771.54 33.288 1770.96 33.5013 1770.54 33.928C1770.11 34.3333 1769.9 34.888 1769.9 35.592C1769.9 35.9547 1769.96 36.3067 1770.09 36.648C1770.24 36.9893 1770.47 37.352 1770.79 37.736C1771.11 38.0987 1771.52 38.5467 1772.01 39.08L1770.92 39.112C1772.16 38.5147 1773.06 37.9387 1773.61 37.384C1774.19 36.8293 1774.47 36.1787 1774.47 35.432C1774.47 34.728 1774.27 34.1947 1773.87 33.832C1773.46 33.4693 1772.93 33.288 1772.27 33.288ZM1795.93 53V30.44H1806.17C1808.71 30.44 1810.67 31.048 1812.06 32.264C1813.44 33.4587 1814.14 35.1333 1814.14 37.288C1814.14 38.696 1813.82 39.912 1813.18 40.936C1812.56 41.9387 1811.66 42.7173 1810.49 43.272C1809.34 43.8053 1807.95 44.072 1806.33 44.072L1806.71 43.368H1808.03C1808.94 43.368 1809.75 43.6133 1810.46 44.104C1811.18 44.5947 1811.78 45.3093 1812.25 46.248L1815.61 53H1810.11L1806.62 45.736C1806.36 45.1173 1805.96 44.712 1805.4 44.52C1804.87 44.3067 1804.25 44.2 1803.55 44.2H1800.92V53H1795.93ZM1800.92 40.616H1805.31C1806.61 40.616 1807.6 40.3493 1808.28 39.816C1808.96 39.2827 1809.31 38.4933 1809.31 37.448C1809.31 36.4027 1808.96 35.624 1808.28 35.112C1807.6 34.5787 1806.61 34.312 1805.31 34.312H1800.92V40.616ZM1818.59 53V30.44H1834.27V34.312H1823.35V39.592H1833.5V43.496H1823.35V49.128H1834.27V53H1818.59ZM1844.08 53L1836.08 30.44H1841.23L1846.96 47.848H1845.58L1851.82 30.44H1855.47L1861.2 47.848H1859.92L1866 30.44H1870.83L1862.77 53H1858.7L1853.17 36.968H1853.9L1848.17 53H1844.08ZM1869.12 53L1879.48 30.44H1883.61L1894.11 53H1889.05L1886.33 46.728L1888.28 48.104H1874.88L1876.86 46.728L1874.14 53H1869.12ZM1881.53 35.688L1877.4 45.48L1876.54 44.264H1886.62L1885.88 45.48L1881.66 35.688H1881.53ZM1896.05 53V30.44H1906.29C1908.83 30.44 1910.8 31.048 1912.18 32.264C1913.57 33.4587 1914.26 35.1333 1914.26 37.288C1914.26 38.696 1913.94 39.912 1913.3 40.936C1912.68 41.9387 1911.79 42.7173 1910.61 43.272C1909.46 43.8053 1908.08 44.072 1906.45 44.072L1906.84 43.368H1908.15C1909.07 43.368 1909.88 43.6133 1910.58 44.104C1911.31 44.5947 1911.9 45.3093 1912.37 46.248L1915.73 53H1910.23L1906.74 45.736C1906.49 45.1173 1906.08 44.712 1905.53 44.52C1904.99 44.3067 1904.37 44.2 1903.67 44.2H1901.05V53H1896.05ZM1901.05 40.616H1905.43C1906.73 40.616 1907.72 40.3493 1908.41 39.816C1909.09 39.2827 1909.43 38.4933 1909.43 37.448C1909.43 36.4027 1909.09 35.624 1908.41 35.112C1907.72 34.5787 1906.73 34.312 1905.43 34.312H1901.05V40.616ZM1918.71 53V30.44H1927.32C1929.94 30.44 1932.16 30.888 1933.97 31.784C1935.79 32.68 1937.15 33.9707 1938.07 35.656C1939.01 37.32 1939.48 39.336 1939.48 41.704C1939.48 44.0507 1939.01 46.0667 1938.07 47.752C1937.15 49.4373 1935.79 50.7387 1933.97 51.656C1932.16 52.552 1929.94 53 1927.32 53H1918.71ZM1923.7 48.904H1927.03C1929.55 48.904 1931.41 48.3173 1932.63 47.144C1933.87 45.9493 1934.49 44.136 1934.49 41.704C1934.49 39.2507 1933.87 37.4373 1932.63 36.264C1931.41 35.0907 1929.55 34.504 1927.03 34.504H1923.7V48.904ZM1951.56 53.352C1949.74 53.352 1948.05 53.128 1946.47 52.68C1944.89 52.232 1943.55 51.6133 1942.44 50.824L1943.91 46.92C1944.64 47.4107 1945.4 47.8267 1946.21 48.168C1947.02 48.5093 1947.88 48.776 1948.77 48.968C1949.67 49.1387 1950.61 49.224 1951.59 49.224C1953.13 49.224 1954.21 48.9893 1954.85 48.52C1955.52 48.0507 1955.85 47.4533 1955.85 46.728C1955.85 46.0667 1955.62 45.5653 1955.17 45.224C1954.75 44.8613 1953.96 44.552 1952.81 44.296L1949.03 43.528C1946.96 43.1013 1945.41 42.376 1944.39 41.352C1943.37 40.328 1942.85 38.9627 1942.85 37.256C1942.85 35.8053 1943.24 34.5467 1944.01 33.48C1944.77 32.4133 1945.85 31.5813 1947.24 30.984C1948.65 30.3867 1950.29 30.088 1952.17 30.088C1953.77 30.088 1955.26 30.312 1956.65 30.76C1958.03 31.208 1959.17 31.848 1960.07 32.68L1958.6 36.328C1957.72 35.624 1956.74 35.1013 1955.65 34.76C1954.59 34.3973 1953.39 34.216 1952.07 34.216C1950.68 34.216 1949.62 34.4613 1948.87 34.952C1948.14 35.4427 1947.78 36.1147 1947.78 36.968C1947.78 37.608 1948.01 38.1307 1948.45 38.536C1948.9 38.92 1949.69 39.2293 1950.82 39.464L1954.53 40.2C1956.65 40.6267 1958.21 41.3413 1959.24 42.344C1960.26 43.3467 1960.77 44.68 1960.77 46.344C1960.77 47.752 1960.39 48.9787 1959.62 50.024C1958.88 51.0693 1957.81 51.8907 1956.42 52.488C1955.06 53.064 1953.44 53.352 1951.56 53.352Z" fill="#121212"/>
<rect x="2011" y="13" width="224" height="56" rx="6" fill="#121212"/>
<path d="M2077.02 34.96V39.16H2082.66V41.824H2077.02V46.264H2083.38V49H2073.66V32.224H2083.38V34.96H2077.02ZM2096.46 49L2092.84 43.36L2089.55 49H2085.76L2091.04 40.552L2085.69 32.248H2089.55L2093.17 37.864L2096.44 32.248H2100.23L2094.97 40.672L2100.33 49H2096.46ZM2115.1 37.432C2115.1 38.328 2114.88 39.168 2114.45 39.952C2114.03 40.736 2113.37 41.368 2112.46 41.848C2111.56 42.328 2110.43 42.568 2109.05 42.568H2106.24V49H2102.88V32.248H2109.05C2110.35 32.248 2111.45 32.472 2112.36 32.92C2113.27 33.368 2113.95 33.984 2114.4 34.768C2114.87 35.552 2115.1 36.44 2115.1 37.432ZM2108.91 39.856C2109.83 39.856 2110.52 39.648 2110.97 39.232C2111.42 38.8 2111.64 38.2 2111.64 37.432C2111.64 35.8 2110.73 34.984 2108.91 34.984H2106.24V39.856H2108.91ZM2120.84 46.336H2126.36V49H2117.48V32.248H2120.84V46.336ZM2136.28 49.168C2134.71 49.168 2133.27 48.8 2131.96 48.064C2130.64 47.328 2129.6 46.312 2128.84 45.016C2128.07 43.704 2127.68 42.224 2127.68 40.576C2127.68 38.944 2128.07 37.48 2128.84 36.184C2129.6 34.872 2130.64 33.848 2131.96 33.112C2133.27 32.376 2134.71 32.008 2136.28 32.008C2137.86 32.008 2139.3 32.376 2140.6 33.112C2141.91 33.848 2142.94 34.872 2143.69 36.184C2144.46 37.48 2144.84 38.944 2144.84 40.576C2144.84 42.224 2144.46 43.704 2143.69 45.016C2142.94 46.312 2141.91 47.328 2140.6 48.064C2139.28 48.8 2137.84 49.168 2136.28 49.168ZM2136.28 46.168C2137.28 46.168 2138.17 45.944 2138.94 45.496C2139.71 45.032 2140.31 44.376 2140.74 43.528C2141.17 42.68 2141.39 41.696 2141.39 40.576C2141.39 39.456 2141.17 38.48 2140.74 37.648C2140.31 36.8 2139.71 36.152 2138.94 35.704C2138.17 35.256 2137.28 35.032 2136.28 35.032C2135.27 35.032 2134.37 35.256 2133.59 35.704C2132.82 36.152 2132.22 36.8 2131.79 37.648C2131.36 38.48 2131.14 39.456 2131.14 40.576C2131.14 41.696 2131.36 42.68 2131.79 43.528C2132.22 44.376 2132.82 45.032 2133.59 45.496C2134.37 45.944 2135.27 46.168 2136.28 46.168ZM2155.98 49L2152.29 42.472H2150.7V49H2147.34V32.248H2153.63C2154.93 32.248 2156.03 32.48 2156.94 32.944C2157.86 33.392 2158.54 34.008 2158.98 34.792C2159.45 35.56 2159.68 36.424 2159.68 37.384C2159.68 38.488 2159.36 39.488 2158.72 40.384C2158.08 41.264 2157.13 41.872 2155.86 42.208L2159.87 49H2155.98ZM2150.7 39.952H2153.51C2154.42 39.952 2155.1 39.736 2155.55 39.304C2156 38.856 2156.22 38.24 2156.22 37.456C2156.22 36.688 2156 36.096 2155.55 35.68C2155.1 35.248 2154.42 35.032 2153.51 35.032H2150.7V39.952ZM2166.08 34.96V39.16H2171.72V41.824H2166.08V46.264H2172.44V49H2162.72V32.224H2172.44V34.96H2166.08Z" fill="white"/>
<g clip-path="url(#clip1_7714_21342)">
<path d="M702.927 54.9156L700 56.1567C700 56.8985 700.285 57.6349 700.842 58.1896L746.98 104.166C747.518 104.703 748.443 104.997 748.986 105C749.538 105.002 750.481 104.712 751.029 104.166L797.159 58.1601C797.714 57.6062 798 56.8717 798 56.1312L795.455 54.9158C794.036 54.9158 780.854 54.9158 764.837 54.9158L747.662 60.4599L733.136 54.9158C718.07 54.9156 705.521 54.9156 702.927 54.9156Z" fill="#FFB739"/>
<path d="M797.999 56.1314C797.999 56.8712 797.714 57.6054 797.158 58.1597L751.028 104.165C750.486 104.708 749.55 104.999 749 104.999V60.0275L764.837 54.9156H795.455L797.999 56.1314Z" fill="#FF9441"/>
<path d="M733.133 54.9156L748.997 104.999L764.833 54.9156H733.133Z" fill="#FF9441"/>
<path d="M764.837 54.9156L749 104.999V54.9156H764.837Z" fill="#FF7149"/>
<path d="M797.519 54.538L782.163 31.5304C781.951 31.2123 781.677 30.9421 781.362 30.7334L779.97 31.4018L751.657 31.5783L749 30.2547L746.853 31.6081L718.604 31.7842L716.632 30.7363C716.319 30.9444 716.047 31.2137 715.835 31.532L700.48 54.5685C700.157 55.0535 700 55.6069 700 56.1572C705.562 56.1556 790.816 56.1332 798 56.1313C798 55.5795 797.843 55.0242 797.519 54.538Z" fill="#FFD17E"/>
<path d="M797.999 56.1319C794.44 56.1319 771.705 56.1395 749 56.1453V30.2547L751.657 31.5775L779.97 31.4016L781.362 30.7325C781.677 30.9428 781.95 31.2123 782.163 31.5297L797.52 54.5373C797.844 55.025 798.001 55.5793 797.999 56.1319Z" fill="#FFB739"/>
<path d="M718.22 30.2547C717.647 30.2547 717.097 30.4272 716.633 30.7359L733.64 56.1483H733.642L748.999 30.2547H718.22Z" fill="#FFB739"/>
<path d="M764.364 56.1401L781.362 30.7328C780.899 30.426 780.351 30.2547 779.779 30.2547H749L764.352 56.1403H764.364V56.1401Z" fill="#FF9441"/>
<path d="M731.854 76.159C727.054 76.159 723.15 72.2544 723.15 67.4548C723.15 65.8692 721.864 64.5838 720.278 64.5838C718.693 64.5838 717.407 65.8692 717.407 67.4548C717.407 72.2302 713.526 76.159 708.703 76.159C707.118 76.159 705.832 77.4445 705.832 79.0301C705.832 80.6157 707.118 81.9012 708.703 81.9012C713.503 81.9012 717.407 85.8059 717.407 90.6054C717.407 92.191 718.693 93.4765 720.278 93.4765C721.864 93.4765 723.15 92.191 723.15 90.6054C723.15 85.8304 727.03 81.9012 731.854 81.9012C733.44 81.9012 734.725 80.6157 734.725 79.0301C734.725 77.4445 733.44 76.159 731.854 76.159Z" fill="#FFD17E"/>
<path d="M775.862 18.5753C771.062 18.5753 767.157 14.6706 767.157 9.87109C767.157 8.28548 765.872 7 764.286 7C762.701 7 761.415 8.28548 761.415 9.87109C761.415 14.6706 757.511 18.5753 752.711 18.5753C751.125 18.5753 749.84 19.8608 749.84 21.4464C749.84 23.032 751.125 24.3175 752.711 24.3175C757.51 24.3175 761.415 28.2222 761.415 33.0217C761.415 34.6073 762.701 35.8928 764.286 35.8928C765.872 35.8928 767.157 34.6073 767.157 33.0217C767.157 28.2222 771.062 24.3175 775.862 24.3175C777.447 24.3175 778.733 23.032 778.733 21.4464C778.733 19.8608 777.447 18.5753 775.862 18.5753Z" fill="#FFB739"/>
</g>
<path d="M865.416 60.4164C861.097 60.4164 857.584 56.9026 857.584 52.5836C857.584 51.1568 856.427 50 855 50C853.573 50 852.416 51.1568 852.416 52.5836C852.416 56.9026 848.903 60.4164 844.584 60.4164C843.157 60.4164 842 61.5731 842 63C842 64.4269 843.157 65.5836 844.584 65.5836C848.903 65.5836 852.416 69.0974 852.416 73.4164C852.416 74.8432 853.573 76 855 76C856.427 76 857.584 74.8432 857.584 73.4164C857.584 69.0974 861.097 65.5836 865.416 65.5836C866.843 65.5836 868 64.4269 868 63C868 61.5731 866.843 60.4164 865.416 60.4164Z" fill="#FFB739"/>
<g clip-path="url(#clip2_7714_21342)">
<path d="M830.981 6.13869H815.019C814.648 6.13869 814.305 6.33659 814.12 6.65786L806.139 20.4811C805.954 20.8023 805.954 21.1981 806.139 21.5194L814.12 35.3426C814.305 35.6639 814.648 35.8618 815.019 35.8618H830.981C831.352 35.8618 831.695 35.6639 831.88 35.3426L839.861 21.5194C840.046 21.1981 840.046 20.8023 839.861 20.4811L831.88 6.65786C831.695 6.33659 831.352 6.13869 830.981 6.13869Z" fill="#FFD45D"/>
<path d="M840 21H833.195L828.098 29.8289L831.5 35.7224C831.656 35.6327 831.788 35.503 831.88 35.3424L839.861 21.5191C839.954 21.3585 840 21.1792 840 21Z" fill="#FF6500"/>
<path d="M828.097 29.8291H817.903L814.5 35.7226C814.655 35.8123 814.834 35.8617 815.019 35.8617H830.981C831.166 35.8617 831.345 35.8123 831.5 35.7226L828.097 29.8291Z" fill="#FF9416"/>
<path d="M817.903 29.8289L812.805 21H806C806 21.1792 806.046 21.3585 806.139 21.5192L814.12 35.3424C814.213 35.5031 814.345 35.6328 814.5 35.7225L817.903 29.8289Z" fill="#FFC13F"/>
<path d="M817.903 12.1709L814.5 6.27732C814.345 6.36697 814.213 6.49673 814.12 6.65736L806.139 20.4807C806.046 20.6413 806 20.8206 806 20.9998H812.805L817.903 12.1709Z" fill="#FFD45D"/>
<path d="M817.903 12.171H828.097L831.5 6.2774C831.345 6.18776 831.166 6.13828 830.981 6.13828H815.019C814.834 6.13828 814.655 6.18776 814.5 6.2774L817.903 12.171Z" fill="#FFC13F"/>
<path d="M828.098 12.1709L833.195 20.9998H840C840 20.8206 839.954 20.6413 839.861 20.4807L831.88 6.65736C831.788 6.49673 831.656 6.36697 831.5 6.27732L828.098 12.1709Z" fill="#FF9416"/>
<path d="M828.097 12.1709H817.902L812.805 20.9998L817.902 29.8287H828.097L833.194 20.9998L828.097 12.1709Z" fill="#FF7B05"/>
<path d="M818.085 11.5528L818.734 11.0675C818.882 10.957 819.078 11.122 818.994 11.2864L818.626 12.0089C818.586 12.0861 818.609 12.1805 818.68 12.2305L819.343 12.6985C819.493 12.8051 819.397 13.0421 819.215 13.0131L818.414 12.8858C818.328 12.8722 818.245 12.9235 818.22 13.0063L817.979 13.781C817.925 13.9572 817.669 13.9387 817.641 13.7565L817.514 12.9553C817.501 12.8697 817.426 12.8071 817.34 12.8082L816.529 12.8189C816.344 12.8213 816.283 12.5728 816.447 12.4892L817.17 12.1213C817.247 12.082 817.284 11.9919 817.256 11.9098L816.995 11.1418C816.936 10.9671 817.153 10.832 817.284 10.9626L817.857 11.5364C817.918 11.5977 818.015 11.6047 818.085 11.5528Z" fill="white"/>
</g>
<circle opacity="0.55" cx="2532.5" cy="-15.5" r="68.5" fill="#FFFACA"/>
<g clip-path="url(#clip3_7714_21342)">
<path d="M2542.61 22.4025L2541 23.0863C2541 23.4951 2541.16 23.9009 2541.46 24.2065L2566.89 49.5405C2567.18 49.8362 2567.69 49.9984 2567.99 49.9997C2568.3 50.0011 2568.82 49.8411 2569.12 49.5402L2594.54 24.1903C2594.84 23.885 2595 23.4803 2595 23.0723L2593.6 22.4026C2592.82 22.4026 2585.55 22.4026 2576.73 22.4026L2567.26 25.4575L2559.26 22.4026C2550.96 22.4025 2544.04 22.4025 2542.61 22.4025Z" fill="#FFB739"/>
<path d="M2595 23.0724C2595 23.48 2594.84 23.8846 2594.54 24.19L2569.12 49.54C2568.82 49.8391 2568.3 49.9993 2568 49.9993V25.2192L2576.73 22.4025H2593.6L2595 23.0724Z" fill="#FF9441"/>
<path d="M2559.26 22.4025L2568 49.9993L2576.73 22.4025H2559.26Z" fill="#FF9441"/>
<path d="M2576.73 22.4025L2568 49.9993V22.4025H2576.73Z" fill="#FF7149"/>
<path d="M2594.73 22.1944L2586.27 9.51677C2586.16 9.34148 2586.01 9.19256 2585.83 9.0776L2585.06 9.44589L2569.46 9.54314L2568 8.81382L2566.82 9.55959L2551.25 9.65662L2550.16 9.07918C2549.99 9.19382 2549.84 9.34222 2549.73 9.51761L2541.26 22.2112C2541.09 22.4785 2541 22.7834 2541 23.0866C2544.07 23.0857 2591.04 23.0734 2595 23.0724C2595 22.7683 2594.91 22.4623 2594.73 22.1944Z" fill="#FFD17E"/>
<path d="M2595 23.0727C2593.04 23.0727 2580.51 23.0769 2568 23.08V8.81382L2569.46 9.54271L2585.07 9.44579L2585.83 9.07707C2586.01 9.19298 2586.16 9.34148 2586.27 9.51635L2594.74 22.194C2594.91 22.4627 2595 22.7682 2595 23.0727Z" fill="#FFB739"/>
<path d="M2551.04 8.81382C2550.72 8.81382 2550.42 8.90885 2550.16 9.07897L2559.54 23.0817H2559.54L2568 8.81382H2551.04Z" fill="#FFB739"/>
<path d="M2576.47 23.0772L2585.83 9.07728C2585.58 8.90821 2585.27 8.81382 2584.96 8.81382H2568L2576.46 23.0773H2576.47V23.0772Z" fill="#FF9441"/>
</g>
<g clip-path="url(#clip4_7714_21342)">
<path d="M2470.06 60.7365L2468 61.6103C2468 62.1326 2468.2 62.6511 2468.59 63.0416L2501.08 95.4129C2501.46 95.7908 2502.11 95.9979 2502.49 95.9997C2502.88 96.0014 2503.54 95.797 2503.93 95.4125L2536.41 63.0209C2536.8 62.6309 2537 62.1138 2537 61.5924L2535.21 60.7366C2534.21 60.7366 2524.93 60.7366 2513.65 60.7366L2501.56 64.6401L2491.33 60.7366C2480.72 60.7365 2471.89 60.7365 2470.06 60.7365Z" fill="#FFB739"/>
<path d="M2537 61.5925C2537 62.1134 2536.8 62.6303 2536.41 63.0206L2503.93 95.4122C2503.55 95.7944 2502.89 95.9991 2502.5 95.9991V64.3357L2513.65 60.7365H2535.21L2537 61.5925Z" fill="#FF9441"/>
<path d="M2491.33 60.7365L2502.5 95.9991L2513.65 60.7365H2491.33Z" fill="#FF9441"/>
<path d="M2513.65 60.7365L2502.5 95.9991V60.7365H2513.65Z" fill="#FF7149"/>
<path d="M2536.66 60.4707L2525.85 44.2714C2525.7 44.0474 2525.51 43.8572 2525.29 43.7103L2524.31 44.1809L2504.37 44.3051L2502.5 43.3732L2500.99 44.3261L2481.1 44.4501L2479.71 43.7123C2479.49 43.8588 2479.3 44.0484 2479.15 44.2725L2468.34 60.4921C2468.11 60.8336 2468 61.2232 2468 61.6106C2471.92 61.6096 2531.94 61.5938 2537 61.5925C2537 61.2039 2536.89 60.813 2536.66 60.4707Z" fill="#FFD17E"/>
<path d="M2537 61.5928C2534.49 61.5928 2518.49 61.5982 2502.5 61.6023V43.3732L2504.37 44.3046L2524.31 44.1807L2525.29 43.7096C2525.51 43.8577 2525.7 44.0474 2525.85 44.2709L2536.66 60.4701C2536.89 60.8135 2537 61.2038 2537 61.5928Z" fill="#FFB739"/>
<path d="M2480.83 43.3732C2480.42 43.3732 2480.04 43.4946 2479.71 43.712L2491.69 61.6044H2491.69L2502.5 43.3732H2480.83Z" fill="#FFB739"/>
<path d="M2513.32 61.5986L2525.29 43.7099C2524.96 43.4938 2524.57 43.3732 2524.17 43.3732H2502.5L2513.31 61.5988H2513.32V61.5986Z" fill="#FF9441"/>
</g>
<path d="M2453.21 16.2113C2450.22 16.2113 2447.79 13.7787 2447.79 10.7887C2447.79 9.80085 2446.99 9 2446 9C2445.01 9 2444.21 9.80085 2444.21 10.7887C2444.21 13.7787 2441.78 16.2113 2438.79 16.2113C2437.8 16.2113 2437 17.0122 2437 18C2437 18.9878 2437.8 19.7887 2438.79 19.7887C2441.78 19.7887 2444.21 22.2213 2444.21 25.2113C2444.21 26.1992 2445.01 27 2446 27C2446.99 27 2447.79 26.1992 2447.79 25.2113C2447.79 22.2213 2450.22 19.7887 2453.21 19.7887C2454.2 19.7887 2455 18.9878 2455 18C2455 17.0122 2454.2 16.2113 2453.21 16.2113Z" fill="#FFB739"/>
<path d="M2557.91 65.4069C2556.08 65.4069 2554.59 63.9203 2554.59 62.0931C2554.59 61.4894 2554.1 61 2553.5 61C2552.9 61 2552.41 61.4894 2552.41 62.0931C2552.41 63.9203 2550.92 65.4069 2549.09 65.4069C2548.49 65.4069 2548 65.8963 2548 66.5C2548 67.1037 2548.49 67.5931 2549.09 67.5931C2550.92 67.5931 2552.41 69.0797 2552.41 70.9069C2552.41 71.5106 2552.9 72 2553.5 72C2554.1 72 2554.59 71.5106 2554.59 70.9069C2554.59 69.0797 2556.08 67.5931 2557.91 67.5931C2558.51 67.5931 2559 67.1037 2559 66.5C2559 65.8963 2558.51 65.4069 2557.91 65.4069Z" fill="#FFB739"/>
<g clip-path="url(#clip5_7714_21342)">
<path d="M2508.1 -6.36452H2495.9C2495.61 -6.36452 2495.35 -6.2132 2495.21 -5.96752L2489.11 4.60316C2488.96 4.84884 2488.96 5.15149 2489.11 5.39717L2495.21 15.9679C2495.35 16.2136 2495.61 16.3649 2495.9 16.3649H2508.1C2508.39 16.3649 2508.65 16.2136 2508.79 15.9679L2514.89 5.39717C2515.04 5.15149 2515.04 4.84884 2514.89 4.60316L2508.79 -5.96752C2508.65 -6.2132 2508.39 -6.36452 2508.1 -6.36452Z" fill="#FFD45D"/>
<path d="M2515 5H2509.8L2505.9 11.7515L2508.5 16.2583C2508.62 16.1897 2508.72 16.0905 2508.79 15.9677L2514.89 5.39696C2514.97 5.27417 2515 5.13706 2515 5Z" fill="#FF6500"/>
<path d="M2505.9 11.7517H2498.1L2495.5 16.2585C2495.62 16.327 2495.76 16.3649 2495.9 16.3649H2508.1C2508.24 16.3649 2508.38 16.327 2508.5 16.2585L2505.9 11.7517Z" fill="#FF9416"/>
<path d="M2498.1 11.7515L2494.2 5H2489C2489 5.13706 2489.04 5.27417 2489.11 5.39701L2495.21 15.9677C2495.28 16.0906 2495.38 16.1898 2495.5 16.2584L2498.1 11.7515Z" fill="#FFC13F"/>
<path d="M2498.1 -1.75169L2495.5 -6.25852C2495.38 -6.18997 2495.28 -6.09074 2495.21 -5.9679L2489.11 4.60287C2489.04 4.72566 2489 4.86277 2489 4.99983H2494.2L2498.1 -1.75169Z" fill="#FFD45D"/>
<path d="M2505.9 -1.75169L2509.8 4.99983H2515C2515 4.86277 2514.97 4.72566 2514.89 4.60287L2508.79 -5.9679C2508.72 -6.09074 2508.62 -6.18997 2508.5 -6.25852L2505.9 -1.75169Z" fill="#FF9416"/>
<path d="M2505.9 -1.75169H2498.1L2494.2 4.99983L2498.1 11.7514H2505.9L2509.8 4.99983L2505.9 -1.75169Z" fill="#FF7B05"/>
</g>
</g>
<defs>
<clipPath id="clip0_7714_21342">
<rect width="3267" height="81" fill="white"/>
</clipPath>
<clipPath id="clip1_7714_21342">
<rect width="98" height="98" fill="white" transform="translate(700 7)"/>
</clipPath>
<clipPath id="clip2_7714_21342">
<rect width="34" height="34" fill="white" transform="translate(806 4)"/>
</clipPath>
<clipPath id="clip3_7714_21342">
<rect width="54" height="54" fill="white" transform="translate(2541 -4)"/>
</clipPath>
<clipPath id="clip4_7714_21342">
<rect width="69" height="69" fill="white" transform="translate(2468 27)"/>
</clipPath>
<clipPath id="clip5_7714_21342">
<rect width="26" height="26" fill="white" transform="translate(2489 -8)"/>
</clipPath>
</defs>
</svg>
